<ttFont>
    <TTGlyph name="A" xMin="156" yMin="0" xMax="1556" yMax="1562">
      <contour>
        <pt x="854" y="1562" on="1"/>
        <pt x="916" y="1562" on="0"/>
        <pt x="1044" y="1537" on="0"/>
        <pt x="1094" y="1516" on="1"/>
        <pt x="1182" y="1362" on="0"/>
        <pt x="1327" y="1043" on="0"/>
        <pt x="1384" y="874" on="1"/>
        <pt x="1423" y="869" on="0"/>
        <pt x="1503" y="858" on="0"/>
        <pt x="1544" y="852" on="1"/>
        <pt x="1544" y="596" on="1"/>
        <pt x="1458" y="620" on="1"/>
        <pt x="1494" y="471" on="0"/>
        <pt x="1544" y="161" on="0"/>
        <pt x="1556" y="0" on="1"/>
        <pt x="1318" y="0" on="1"/>
        <pt x="1303" y="172" on="0"/>
        <pt x="1233" y="508" on="0"/>
        <pt x="1188" y="662" on="1"/>
        <pt x="1091" y="670" on="0"/>
        <pt x="916" y="678" on="0"/>
        <pt x="854" y="678" on="1"/>
        <pt x="771" y="678" on="0"/>
        <pt x="607" y="672" on="0"/>
        <pt x="524" y="664" on="1"/>
        <pt x="479" y="510" on="0"/>
        <pt x="408" y="174" on="0"/>
        <pt x="394" y="0" on="1"/>
        <pt x="156" y="0" on="1"/>
        <pt x="167" y="161" on="0"/>
        <pt x="216" y="469" on="0"/>
        <pt x="252" y="618" on="1"/>
        <pt x="174" y="596" on="1"/>
        <pt x="174" y="852" on="1"/>
        <pt x="328" y="874" on="1"/>
        <pt x="384" y="1043" on="0"/>
        <pt x="529" y="1362" on="0"/>
        <pt x="618" y="1516" on="1"/>
        <pt x="668" y="1537" on="0"/>
        <pt x="794" y="1562" on="0"/>
      </contour>
      <contour>
        <pt x="854" y="904" on="1"/>
        <pt x="914" y="904" on="0"/>
        <pt x="1042" y="901" on="0"/>
        <pt x="1110" y="896" on="1"/>
        <pt x="1059" y="1035" on="0"/>
        <pt x="960" y="1240" on="0"/>
        <pt x="924" y="1296" on="1"/>
        <pt x="906" y="1304" on="0"/>
        <pt x="874" y="1310" on="0"/>
        <pt x="854" y="1310" on="1"/>
        <pt x="822" y="1310" on="0"/>
        <pt x="788" y="1296" on="1"/>
        <pt x="752" y="1240" on="0"/>
        <pt x="652" y="1035" on="0"/>
        <pt x="602" y="896" on="1"/>
        <pt x="668" y="901" on="0"/>
        <pt x="795" y="904" on="0"/>
      </contour>
    </TTGlyph>
    <TTGlyph name="AE" xMin="66" yMin="-6" xMax="1972" yMax="1516">
      <contour>
        <pt x="590" y="1462" on="1"/>
        <pt x="779" y="1494" on="0"/>
        <pt x="1134" y="1516" on="0"/>
        <pt x="1288" y="1516" on="1"/>
        <pt x="1440" y="1516" on="0"/>
        <pt x="1785" y="1494" on="0"/>
        <pt x="1972" y="1462" on="1"/>
        <pt x="1972" y="1216" on="1"/>
        <pt x="1905" y="1239" on="0"/>
        <pt x="1819" y="1257" on="1"/>
        <pt x="1745" y="1272" on="0"/>
        <pt x="1537" y="1298" on="0"/>
        <pt x="1406" y="1298" on="1"/>
        <pt x="1362" y="1298" on="0"/>
        <pt x="1283" y="1296" on="0"/>
        <pt x="1242" y="1296" on="1"/>
        <pt x="1242" y="854" on="1"/>
        <pt x="1724" y="854" on="1"/>
        <pt x="1724" y="632" on="1"/>
        <pt x="1242" y="632" on="1"/>
        <pt x="1242" y="220" on="1"/>
        <pt x="1283" y="220" on="0"/>
        <pt x="1364" y="220" on="0"/>
        <pt x="1406" y="222" on="1"/>
        <pt x="1537" y="226" on="0"/>
        <pt x="1745" y="252" on="0"/>
        <pt x="1819" y="266" on="1"/>
        <pt x="1905" y="283" on="0"/>
        <pt x="1972" y="302" on="1"/>
        <pt x="1972" y="48" on="1"/>
        <pt x="1785" y="16" on="0"/>
        <pt x="1439" y="-6" on="0"/>
        <pt x="1284" y="-6" on="1"/>
        <pt x="1218" y="-6" on="0"/>
        <pt x="1071" y="-3" on="0"/>
        <pt x="996" y="2" on="1"/>
        <pt x="996" y="632" on="1"/>
        <pt x="462" y="632" on="1"/>
        <pt x="436" y="546" on="0"/>
        <pt x="390" y="375" on="0"/>
        <pt x="351" y="213" on="0"/>
        <pt x="317" y="64" on="0"/>
        <pt x="304" y="0" on="1"/>
        <pt x="66" y="0" on="1"/>
        <pt x="98" y="187" on="0"/>
        <pt x="170" y="501" on="0"/>
        <pt x="208" y="632" on="1"/>
        <pt x="102" y="632" on="1"/>
        <pt x="186" y="854" on="1"/>
        <pt x="282" y="854" on="1"/>
        <pt x="326" y="980" on="0"/>
        <pt x="414" y="1174" on="0"/>
        <pt x="495" y="1321" on="0"/>
        <pt x="564" y="1425" on="0"/>
      </contour>
      <contour>
        <pt x="996" y="1286" on="1"/>
        <pt x="911" y="1278" on="0"/>
        <pt x="775" y="1257" on="0"/>
        <pt x="724" y="1246" on="1"/>
        <pt x="670" y="1163" on="0"/>
        <pt x="575" y="964" on="0"/>
        <pt x="536" y="854" on="1"/>
        <pt x="996" y="854" on="1"/>
      </contour>
    </TTGlyph>
    <TTGlyph name="Aacute" xMin="134" yMin="0" xMax="1536" yMax="2146">
      <contour>
        <pt x="834" y="1562" on="1"/>
        <pt x="896" y="1562" on="0"/>
        <pt x="1023" y="1537" on="0"/>
        <pt x="1074" y="1516" on="1"/>
        <pt x="1248" y="1210" on="0"/>
        <pt x="1362" y="874" on="1"/>
        <pt x="1403" y="869" on="0"/>
        <pt x="1482" y="858" on="0"/>
        <pt x="1524" y="852" on="1"/>
        <pt x="1524" y="596" on="1"/>
        <pt x="1436" y="620" on="1"/>
        <pt x="1474" y="471" on="0"/>
        <pt x="1524" y="161" on="0"/>
        <pt x="1536" y="0" on="1"/>
        <pt x="1298" y="0" on="1"/>
        <pt x="1281" y="172" on="0"/>
        <pt x="1213" y="508" on="0"/>
        <pt x="1166" y="662" on="1"/>
        <pt x="1071" y="670" on="0"/>
        <pt x="896" y="678" on="0"/>
        <pt x="834" y="678" on="1"/>
        <pt x="751" y="678" on="0"/>
        <pt x="587" y="672" on="0"/>
        <pt x="504" y="664" on="1"/>
        <pt x="457" y="510" on="0"/>
        <pt x="387" y="174" on="0"/>
        <pt x="372" y="0" on="1"/>
        <pt x="134" y="0" on="1"/>
        <pt x="146" y="161" on="0"/>
        <pt x="194" y="469" on="0"/>
        <pt x="232" y="618" on="1"/>
        <pt x="154" y="596" on="1"/>
        <pt x="154" y="852" on="1"/>
        <pt x="308" y="874" on="1"/>
        <pt x="419" y="1210" on="0"/>
        <pt x="596" y="1516" on="1"/>
        <pt x="647" y="1537" on="0"/>
        <pt x="772" y="1562" on="0"/>
      </contour>
      <contour>
        <pt x="834" y="904" on="1"/>
        <pt x="894" y="904" on="0"/>
        <pt x="1022" y="901" on="0"/>
        <pt x="1088" y="896" on="1"/>
        <pt x="1037" y="1035" on="0"/>
        <pt x="940" y="1240" on="0"/>
        <pt x="902" y="1296" on="1"/>
        <pt x="871" y="1310" on="0"/>
        <pt x="834" y="1310" on="1"/>
        <pt x="799" y="1310" on="0"/>
        <pt x="768" y="1296" on="1"/>
        <pt x="730" y="1240" on="0"/>
        <pt x="632" y="1035" on="0"/>
        <pt x="582" y="896" on="1"/>
        <pt x="647" y="901" on="0"/>
        <pt x="774" y="904" on="0"/>
      </contour>
      <contour>
        <pt x="880" y="2146" on="1"/>
        <pt x="1056" y="1970" on="1"/>
        <pt x="1021" y="1922" on="0"/>
        <pt x="979" y="1867" on="1"/>
        <pt x="943" y="1820" on="0"/>
        <pt x="845" y="1703" on="0"/>
        <pt x="788" y="1640" on="1"/>
        <pt x="648" y="1780" on="1"/>
      </contour>
    </TTGlyph>
    <TTGlyph name="Acircumflex" xMin="134" yMin="0" xMax="1536" yMax="2128">
      <contour>
        <pt x="834" y="1562" on="1"/>
        <pt x="896" y="1562" on="0"/>
        <pt x="1023" y="1537" on="0"/>
        <pt x="1074" y="1516" on="1"/>
        <pt x="1248" y="1210" on="0"/>
        <pt x="1362" y="874" on="1"/>
        <pt x="1403" y="869" on="0"/>
        <pt x="1482" y="858" on="0"/>
        <pt x="1524" y="852" on="1"/>
        <pt x="1524" y="596" on="1"/>
        <pt x="1436" y="620" on="1"/>
        <pt x="1474" y="471" on="0"/>
        <pt x="1524" y="161" on="0"/>
        <pt x="1536" y="0" on="1"/>
        <pt x="1298" y="0" on="1"/>
        <pt x="1281" y="172" on="0"/>
        <pt x="1213" y="508" on="0"/>
        <pt x="1166" y="662" on="1"/>
        <pt x="1071" y="670" on="0"/>
        <pt x="896" y="678" on="0"/>
        <pt x="834" y="678" on="1"/>
        <pt x="751" y="678" on="0"/>
        <pt x="587" y="672" on="0"/>
        <pt x="504" y="664" on="1"/>
        <pt x="457" y="510" on="0"/>
        <pt x="387" y="174" on="0"/>
        <pt x="372" y="0" on="1"/>
        <pt x="134" y="0" on="1"/>
        <pt x="146" y="161" on="0"/>
        <pt x="194" y="469" on="0"/>
        <pt x="232" y="618" on="1"/>
        <pt x="154" y="596" on="1"/>
        <pt x="154" y="852" on="1"/>
        <pt x="308" y="874" on="1"/>
        <pt x="419" y="1210" on="0"/>
        <pt x="596" y="1516" on="1"/>
        <pt x="647" y="1537" on="0"/>
        <pt x="772" y="1562" on="0"/>
      </contour>
      <contour>
        <pt x="834" y="904" on="1"/>
        <pt x="894" y="904" on="0"/>
        <pt x="1022" y="901" on="0"/>
        <pt x="1088" y="896" on="1"/>
        <pt x="1037" y="1035" on="0"/>
        <pt x="940" y="1240" on="0"/>
        <pt x="902" y="1296" on="1"/>
        <pt x="871" y="1310" on="0"/>
        <pt x="834" y="1310" on="1"/>
        <pt x="799" y="1310" on="0"/>
        <pt x="768" y="1296" on="1"/>
        <pt x="730" y="1240" on="0"/>
        <pt x="632" y="1035" on="0"/>
        <pt x="582" y="896" on="1"/>
        <pt x="647" y="901" on="0"/>
        <pt x="774" y="904" on="0"/>
      </contour>
      <contour>
        <pt x="1196" y="1822" on="1"/>
        <pt x="1042" y="1668" on="1"/>
        <pt x="834" y="1890" on="1"/>
        <pt x="628" y="1668" on="1"/>
        <pt x="474" y="1824" on="1"/>
        <pt x="834" y="2128" on="1"/>
      </contour>
    </TTGlyph>
    <TTGlyph name="Adieresis" xMin="134" yMin="0" xMax="1536" yMax="1976">
      <contour>
        <pt x="834" y="1562" on="1"/>
        <pt x="896" y="1562" on="0"/>
        <pt x="1023" y="1537" on="0"/>
        <pt x="1074" y="1516" on="1"/>
        <pt x="1248" y="1210" on="0"/>
        <pt x="1362" y="874" on="1"/>
        <pt x="1403" y="869" on="0"/>
        <pt x="1482" y="858" on="0"/>
        <pt x="1524" y="852" on="1"/>
        <pt x="1524" y="596" on="1"/>
        <pt x="1436" y="620" on="1"/>
        <pt x="1474" y="471" on="0"/>
        <pt x="1524" y="161" on="0"/>
        <pt x="1536" y="0" on="1"/>
        <pt x="1298" y="0" on="1"/>
        <pt x="1281" y="172" on="0"/>
        <pt x="1213" y="508" on="0"/>
        <pt x="1166" y="662" on="1"/>
        <pt x="1071" y="670" on="0"/>
        <pt x="896" y="678" on="0"/>
        <pt x="834" y="678" on="1"/>
        <pt x="751" y="678" on="0"/>
        <pt x="587" y="672" on="0"/>
        <pt x="504" y="664" on="1"/>
        <pt x="457" y="510" on="0"/>
        <pt x="387" y="174" on="0"/>
        <pt x="372" y="0" on="1"/>
        <pt x="134" y="0" on="1"/>
        <pt x="146" y="161" on="0"/>
        <pt x="194" y="469" on="0"/>
        <pt x="232" y="618" on="1"/>
        <pt x="154" y="596" on="1"/>
        <pt x="154" y="852" on="1"/>
        <pt x="308" y="874" on="1"/>
        <pt x="419" y="1210" on="0"/>
        <pt x="596" y="1516" on="1"/>
        <pt x="647" y="1537" on="0"/>
        <pt x="772" y="1562" on="0"/>
      </contour>
      <contour>
        <pt x="834" y="904" on="1"/>
        <pt x="894" y="904" on="0"/>
        <pt x="1022" y="901" on="0"/>
        <pt x="1088" y="896" on="1"/>
        <pt x="1037" y="1035" on="0"/>
        <pt x="940" y="1240" on="0"/>
        <pt x="902" y="1296" on="1"/>
        <pt x="871" y="1310" on="0"/>
        <pt x="834" y="1310" on="1"/>
        <pt x="799" y="1310" on="0"/>
        <pt x="768" y="1296" on="1"/>
        <pt x="730" y="1240" on="0"/>
        <pt x="632" y="1035" on="0"/>
        <pt x="582" y="896" on="1"/>
        <pt x="647" y="901" on="0"/>
        <pt x="774" y="904" on="0"/>
      </contour>
      <contour>
        <pt x="590" y="1976" on="1"/>
        <pt x="664" y="1976" on="0"/>
        <pt x="750" y="1929" on="0"/>
        <pt x="750" y="1876" on="1"/>
        <pt x="750" y="1824" on="1"/>
        <pt x="750" y="1777" on="0"/>
        <pt x="664" y="1734" on="0"/>
        <pt x="590" y="1734" on="1"/>
        <pt x="519" y="1734" on="0"/>
        <pt x="434" y="1777" on="0"/>
        <pt x="434" y="1824" on="1"/>
        <pt x="434" y="1876" on="1"/>
        <pt x="434" y="1929" on="0"/>
        <pt x="519" y="1976" on="0"/>
      </contour>
      <contour>
        <pt x="1074" y="1974" on="1"/>
        <pt x="1146" y="1974" on="0"/>
        <pt x="1234" y="1927" on="0"/>
        <pt x="1234" y="1874" on="1"/>
        <pt x="1234" y="1822" on="1"/>
        <pt x="1234" y="1775" on="0"/>
        <pt x="1146" y="1732" on="0"/>
        <pt x="1074" y="1732" on="1"/>
        <pt x="1002" y="1732" on="0"/>
        <pt x="916" y="1775" on="0"/>
        <pt x="916" y="1822" on="1"/>
        <pt x="916" y="1874" on="1"/>
        <pt x="916" y="1927" on="0"/>
        <pt x="1002" y="1974" on="0"/>
      </contour>
    </TTGlyph>
    <TTGlyph name="Agrave" xMin="134" yMin="0" xMax="1536" yMax="2146">
      <contour>
        <pt x="834" y="1562" on="1"/>
        <pt x="896" y="1562" on="0"/>
        <pt x="1023" y="1537" on="0"/>
        <pt x="1074" y="1516" on="1"/>
        <pt x="1248" y="1210" on="0"/>
        <pt x="1362" y="874" on="1"/>
        <pt x="1403" y="869" on="0"/>
        <pt x="1482" y="858" on="0"/>
        <pt x="1524" y="852" on="1"/>
        <pt x="1524" y="596" on="1"/>
        <pt x="1436" y="620" on="1"/>
        <pt x="1474" y="471" on="0"/>
        <pt x="1524" y="161" on="0"/>
        <pt x="1536" y="0" on="1"/>
        <pt x="1298" y="0" on="1"/>
        <pt x="1281" y="172" on="0"/>
        <pt x="1213" y="508" on="0"/>
        <pt x="1166" y="662" on="1"/>
        <pt x="1071" y="670" on="0"/>
        <pt x="896" y="678" on="0"/>
        <pt x="834" y="678" on="1"/>
        <pt x="751" y="678" on="0"/>
        <pt x="587" y="672" on="0"/>
        <pt x="504" y="664" on="1"/>
        <pt x="457" y="510" on="0"/>
        <pt x="387" y="174" on="0"/>
        <pt x="372" y="0" on="1"/>
        <pt x="134" y="0" on="1"/>
        <pt x="146" y="161" on="0"/>
        <pt x="194" y="469" on="0"/>
        <pt x="232" y="618" on="1"/>
        <pt x="154" y="596" on="1"/>
        <pt x="154" y="852" on="1"/>
        <pt x="308" y="874" on="1"/>
        <pt x="419" y="1210" on="0"/>
        <pt x="596" y="1516" on="1"/>
        <pt x="647" y="1537" on="0"/>
        <pt x="772" y="1562" on="0"/>
      </contour>
      <contour>
        <pt x="834" y="904" on="1"/>
        <pt x="894" y="904" on="0"/>
        <pt x="1022" y="901" on="0"/>
        <pt x="1088" y="896" on="1"/>
        <pt x="1037" y="1035" on="0"/>
        <pt x="940" y="1240" on="0"/>
        <pt x="902" y="1296" on="1"/>
        <pt x="871" y="1310" on="0"/>
        <pt x="834" y="1310" on="1"/>
        <pt x="799" y="1310" on="0"/>
        <pt x="768" y="1296" on="1"/>
        <pt x="730" y="1240" on="0"/>
        <pt x="632" y="1035" on="0"/>
        <pt x="582" y="896" on="1"/>
        <pt x="647" y="901" on="0"/>
        <pt x="774" y="904" on="0"/>
      </contour>
      <contour>
        <pt x="1042" y="1780" on="1"/>
        <pt x="900" y="1640" on="1"/>
        <pt x="843" y="1703" on="0"/>
        <pt x="745" y="1820" on="0"/>
        <pt x="709" y="1867" on="1"/>
        <pt x="667" y="1922" on="0"/>
        <pt x="632" y="1970" on="1"/>
        <pt x="810" y="2146" on="1"/>
      </contour>
    </TTGlyph>
    <TTGlyph name="Aring" xMin="134" yMin="0" xMax="1536" yMax="2108">
      <contour>
        <pt x="834" y="1562" on="1"/>
        <pt x="896" y="1562" on="0"/>
        <pt x="1023" y="1537" on="0"/>
        <pt x="1074" y="1516" on="1"/>
        <pt x="1248" y="1210" on="0"/>
        <pt x="1362" y="874" on="1"/>
        <pt x="1403" y="869" on="0"/>
        <pt x="1482" y="858" on="0"/>
        <pt x="1524" y="852" on="1"/>
        <pt x="1524" y="596" on="1"/>
        <pt x="1436" y="620" on="1"/>
        <pt x="1474" y="471" on="0"/>
        <pt x="1524" y="161" on="0"/>
        <pt x="1536" y="0" on="1"/>
        <pt x="1298" y="0" on="1"/>
        <pt x="1281" y="172" on="0"/>
        <pt x="1213" y="508" on="0"/>
        <pt x="1166" y="662" on="1"/>
        <pt x="1071" y="670" on="0"/>
        <pt x="896" y="678" on="0"/>
        <pt x="834" y="678" on="1"/>
        <pt x="751" y="678" on="0"/>
        <pt x="587" y="672" on="0"/>
        <pt x="504" y="664" on="1"/>
        <pt x="457" y="510" on="0"/>
        <pt x="387" y="174" on="0"/>
        <pt x="372" y="0" on="1"/>
        <pt x="134" y="0" on="1"/>
        <pt x="146" y="161" on="0"/>
        <pt x="194" y="469" on="0"/>
        <pt x="232" y="618" on="1"/>
        <pt x="154" y="596" on="1"/>
        <pt x="154" y="852" on="1"/>
        <pt x="308" y="874" on="1"/>
        <pt x="419" y="1210" on="0"/>
        <pt x="596" y="1516" on="1"/>
        <pt x="647" y="1537" on="0"/>
        <pt x="772" y="1562" on="0"/>
      </contour>
      <contour>
        <pt x="834" y="904" on="1"/>
        <pt x="894" y="904" on="0"/>
        <pt x="1022" y="901" on="0"/>
        <pt x="1088" y="896" on="1"/>
        <pt x="1037" y="1035" on="0"/>
        <pt x="940" y="1240" on="0"/>
        <pt x="902" y="1296" on="1"/>
        <pt x="871" y="1310" on="0"/>
        <pt x="834" y="1310" on="1"/>
        <pt x="799" y="1310" on="0"/>
        <pt x="768" y="1296" on="1"/>
        <pt x="730" y="1240" on="0"/>
        <pt x="632" y="1035" on="0"/>
        <pt x="582" y="896" on="1"/>
        <pt x="647" y="901" on="0"/>
        <pt x="774" y="904" on="0"/>
      </contour>
      <contour>
        <pt x="834" y="2108" on="1"/>
        <pt x="884" y="2108" on="0"/>
        <pt x="979" y="2093" on="0"/>
        <pt x="1052" y="2060" on="0"/>
        <pt x="1096" y="2007" on="0"/>
        <pt x="1096" y="1970" on="1"/>
        <pt x="1096" y="1804" on="1"/>
        <pt x="1096" y="1772" on="0"/>
        <pt x="1052" y="1725" on="0"/>
        <pt x="979" y="1695" on="0"/>
        <pt x="884" y="1680" on="0"/>
        <pt x="834" y="1680" on="1"/>
        <pt x="784" y="1680" on="0"/>
        <pt x="691" y="1695" on="0"/>
        <pt x="619" y="1725" on="0"/>
        <pt x="576" y="1772" on="0"/>
        <pt x="576" y="1804" on="1"/>
        <pt x="576" y="1970" on="1"/>
        <pt x="576" y="2007" on="0"/>
        <pt x="619" y="2060" on="0"/>
        <pt x="691" y="2093" on="0"/>
        <pt x="784" y="2108" on="0"/>
      </contour>
      <contour>
        <pt x="834" y="1982" on="1"/>
        <pt x="813" y="1982" on="0"/>
        <pt x="772" y="1975" on="0"/>
        <pt x="740" y="1960" on="0"/>
        <pt x="720" y="1938" on="0"/>
        <pt x="720" y="1922" on="1"/>
        <pt x="720" y="1858" on="1"/>
        <pt x="720" y="1844" on="0"/>
        <pt x="740" y="1823" on="0"/>
        <pt x="772" y="1810" on="0"/>
        <pt x="813" y="1804" on="0"/>
        <pt x="834" y="1804" on="1"/>
        <pt x="856" y="1804" on="0"/>
        <pt x="897" y="1810" on="0"/>
        <pt x="930" y="1823" on="0"/>
        <pt x="950" y="1844" on="0"/>
        <pt x="950" y="1858" on="1"/>
        <pt x="950" y="1922" on="1"/>
        <pt x="950" y="1938" on="0"/>
        <pt x="930" y="1960" on="0"/>
        <pt x="897" y="1975" on="0"/>
        <pt x="856" y="1982" on="0"/>
      </contour>
    </TTGlyph>
    <TTGlyph name="Atilde" xMin="134" yMin="0" xMax="1536" yMax="2028">
      <contour>
        <pt x="834" y="1562" on="1"/>
        <pt x="896" y="1562" on="0"/>
        <pt x="1023" y="1537" on="0"/>
        <pt x="1074" y="1516" on="1"/>
        <pt x="1248" y="1210" on="0"/>
        <pt x="1362" y="874" on="1"/>
        <pt x="1403" y="869" on="0"/>
        <pt x="1482" y="858" on="0"/>
        <pt x="1524" y="852" on="1"/>
        <pt x="1524" y="596" on="1"/>
        <pt x="1436" y="620" on="1"/>
        <pt x="1474" y="471" on="0"/>
        <pt x="1524" y="161" on="0"/>
        <pt x="1536" y="0" on="1"/>
        <pt x="1298" y="0" on="1"/>
        <pt x="1281" y="172" on="0"/>
        <pt x="1213" y="508" on="0"/>
        <pt x="1166" y="662" on="1"/>
        <pt x="1071" y="670" on="0"/>
        <pt x="896" y="678" on="0"/>
        <pt x="834" y="678" on="1"/>
        <pt x="751" y="678" on="0"/>
        <pt x="587" y="672" on="0"/>
        <pt x="504" y="664" on="1"/>
        <pt x="457" y="510" on="0"/>
        <pt x="387" y="174" on="0"/>
        <pt x="372" y="0" on="1"/>
        <pt x="134" y="0" on="1"/>
        <pt x="146" y="161" on="0"/>
        <pt x="194" y="469" on="0"/>
        <pt x="232" y="618" on="1"/>
        <pt x="154" y="596" on="1"/>
        <pt x="154" y="852" on="1"/>
        <pt x="308" y="874" on="1"/>
        <pt x="419" y="1210" on="0"/>
        <pt x="596" y="1516" on="1"/>
        <pt x="647" y="1537" on="0"/>
        <pt x="772" y="1562" on="0"/>
      </contour>
      <contour>
        <pt x="834" y="904" on="1"/>
        <pt x="894" y="904" on="0"/>
        <pt x="1022" y="901" on="0"/>
        <pt x="1088" y="896" on="1"/>
        <pt x="1037" y="1035" on="0"/>
        <pt x="940" y="1240" on="0"/>
        <pt x="902" y="1296" on="1"/>
        <pt x="871" y="1310" on="0"/>
        <pt x="834" y="1310" on="1"/>
        <pt x="799" y="1310" on="0"/>
        <pt x="768" y="1296" on="1"/>
        <pt x="730" y="1240" on="0"/>
        <pt x="632" y="1035" on="0"/>
        <pt x="582" y="896" on="1"/>
        <pt x="647" y="901" on="0"/>
        <pt x="774" y="904" on="0"/>
      </contour>
      <contour>
        <pt x="674" y="2028" on="1"/>
        <pt x="721" y="2028" on="0"/>
        <pt x="805" y="1997" on="0"/>
        <pt x="886" y="1959" on="0"/>
        <pt x="966" y="1928" on="0"/>
        <pt x="1010" y="1928" on="1"/>
        <pt x="1056" y="1928" on="0"/>
        <pt x="1137" y="1949" on="0"/>
        <pt x="1167" y="1963" on="1"/>
        <pt x="1202" y="1978" on="0"/>
        <pt x="1232" y="1998" on="1"/>
        <pt x="1232" y="1780" on="1"/>
        <pt x="1204" y="1762" on="0"/>
        <pt x="1171" y="1749" on="1"/>
        <pt x="1142" y="1737" on="0"/>
        <pt x="1064" y="1718" on="0"/>
        <pt x="1016" y="1718" on="1"/>
        <pt x="966" y="1718" on="0"/>
        <pt x="887" y="1749" on="0"/>
        <pt x="815" y="1785" on="0"/>
        <pt x="743" y="1816" on="0"/>
        <pt x="702" y="1816" on="1"/>
        <pt x="656" y="1816" on="0"/>
        <pt x="563" y="1790" on="0"/>
        <pt x="525" y="1775" on="1"/>
        <pt x="481" y="1757" on="0"/>
        <pt x="440" y="1734" on="1"/>
        <pt x="440" y="1954" on="1"/>
        <pt x="470" y="1974" on="0"/>
        <pt x="507" y="1991" on="1"/>
        <pt x="539" y="2005" on="0"/>
        <pt x="623" y="2028" on="0"/>
      </contour>
    </TTGlyph>
    <TTGlyph name="B" xMin="178" yMin="-20" xMax="1562" yMax="1538">
      <contour>
        <pt x="814" y="1538" on="1"/>
        <pt x="968" y="1538" on="0"/>
        <pt x="1209" y="1484" on="0"/>
        <pt x="1376" y="1388" on="0"/>
        <pt x="1464" y="1253" on="0"/>
        <pt x="1464" y="1172" on="1"/>
        <pt x="1464" y="1026" on="1"/>
        <pt x="1464" y="940" on="0"/>
        <pt x="1397" y="834" on="0"/>
        <pt x="1338" y="802" on="1"/>
        <pt x="1387" y="788" on="0"/>
        <pt x="1470" y="744" on="0"/>
        <pt x="1529" y="681" on="0"/>
        <pt x="1562" y="598" on="0"/>
        <pt x="1562" y="544" on="1"/>
        <pt x="1562" y="348" on="1"/>
        <pt x="1562" y="267" on="0"/>
        <pt x="1444" y="132" on="0"/>
        <pt x="1240" y="34" on="0"/>
        <pt x="968" y="-20" on="0"/>
        <pt x="814" y="-20" on="1"/>
        <pt x="728" y="-20" on="0"/>
        <pt x="548" y="-7" on="0"/>
        <pt x="379" y="15" on="0"/>
        <pt x="231" y="43" on="0"/>
        <pt x="178" y="58" on="1"/>
        <pt x="178" y="1462" on="1"/>
        <pt x="231" y="1477" on="0"/>
        <pt x="379" y="1504" on="0"/>
        <pt x="548" y="1525" on="0"/>
        <pt x="728" y="1538" on="0"/>
      </contour>
      <contour>
        <pt x="806" y="664" on="1"/>
        <pt x="752" y="664" on="0"/>
        <pt x="644" y="663" on="0"/>
        <pt x="543" y="658" on="0"/>
        <pt x="451" y="648" on="0"/>
        <pt x="414" y="640" on="1"/>
        <pt x="414" y="260" on="1"/>
        <pt x="434" y="253" on="0"/>
        <pt x="497" y="235" on="0"/>
        <pt x="593" y="219" on="0"/>
        <pt x="727" y="208" on="0"/>
        <pt x="818" y="208" on="1"/>
        <pt x="930" y="208" on="0"/>
        <pt x="1109" y="244" on="0"/>
        <pt x="1232" y="304" on="0"/>
        <pt x="1298" y="383" on="0"/>
        <pt x="1298" y="426" on="1"/>
        <pt x="1298" y="512" on="1"/>
        <pt x="1298" y="559" on="0"/>
        <pt x="1214" y="619" on="0"/>
        <pt x="1076" y="652" on="0"/>
        <pt x="899" y="664" on="0"/>
      </contour>
      <contour>
        <pt x="414" y="912" on="1"/>
        <pt x="476" y="900" on="0"/>
        <pt x="635" y="892" on="0"/>
        <pt x="736" y="892" on="1"/>
        <pt x="823" y="892" on="0"/>
        <pt x="995" y="905" on="0"/>
        <pt x="1133" y="936" on="0"/>
        <pt x="1219" y="989" on="0"/>
        <pt x="1220" y="1030" on="1"/>
        <pt x="1220" y="1094" on="1"/>
        <pt x="1220" y="1137" on="0"/>
        <pt x="1179" y="1216" on="0"/>
        <pt x="1084" y="1276" on="0"/>
        <pt x="930" y="1312" on="0"/>
        <pt x="818" y="1312" on="1"/>
        <pt x="727" y="1312" on="0"/>
        <pt x="593" y="1301" on="0"/>
        <pt x="497" y="1285" on="0"/>
        <pt x="434" y="1267" on="0"/>
        <pt x="414" y="1260" on="1"/>
      </contour>
    </TTGlyph>
    <TTGlyph name="C" xMin="94" yMin="-32" xMax="1574" yMax="1550">
      <contour>
        <pt x="834" y="1550" on="1"/>
        <pt x="985" y="1550" on="0"/>
        <pt x="1255" y="1497" on="0"/>
        <pt x="1456" y="1401" on="0"/>
        <pt x="1574" y="1268" on="0"/>
        <pt x="1574" y="1188" on="1"/>
        <pt x="1574" y="1012" on="1"/>
        <pt x="1310" y="1012" on="1"/>
        <pt x="1310" y="1110" on="1"/>
        <pt x="1310" y="1153" on="0"/>
        <pt x="1244" y="1232" on="0"/>
        <pt x="1121" y="1291" on="0"/>
        <pt x="945" y="1326" on="0"/>
        <pt x="834" y="1326" on="1"/>
        <pt x="727" y="1326" on="0"/>
        <pt x="551" y="1293" on="0"/>
        <pt x="425" y="1235" on="0"/>
        <pt x="356" y="1156" on="0"/>
        <pt x="356" y="1110" on="1"/>
        <pt x="356" y="404" on="1"/>
        <pt x="356" y="360" on="0"/>
        <pt x="425" y="282" on="0"/>
        <pt x="551" y="225" on="0"/>
        <pt x="727" y="192" on="0"/>
        <pt x="834" y="192" on="1"/>
        <pt x="945" y="192" on="0"/>
        <pt x="1121" y="227" on="0"/>
        <pt x="1244" y="285" on="0"/>
        <pt x="1310" y="362" on="0"/>
        <pt x="1310" y="404" on="1"/>
        <pt x="1310" y="504" on="1"/>
        <pt x="1574" y="504" on="1"/>
        <pt x="1574" y="328" on="1"/>
        <pt x="1574" y="275" on="0"/>
        <pt x="1520" y="180" on="0"/>
        <pt x="1423" y="100" on="0"/>
        <pt x="1288" y="37" on="0"/>
        <pt x="1123" y="-8" on="0"/>
        <pt x="935" y="-32" on="0"/>
        <pt x="834" y="-32" on="1"/>
        <pt x="733" y="-32" on="0"/>
        <pt x="545" y="-8" on="0"/>
        <pt x="380" y="37" on="0"/>
        <pt x="245" y="100" on="0"/>
        <pt x="148" y="180" on="0"/>
        <pt x="94" y="275" on="0"/>
        <pt x="94" y="328" on="1"/>
        <pt x="94" y="1188" on="1"/>
        <pt x="94" y="1241" on="0"/>
        <pt x="148" y="1337" on="0"/>
        <pt x="245" y="1417" on="0"/>
        <pt x="380" y="1481" on="0"/>
        <pt x="545" y="1526" on="0"/>
        <pt x="733" y="1550" on="0"/>
      </contour>
    </TTGlyph>
    <TTGlyph name="Ccaron" xMin="60" yMin="-32" xMax="1538" yMax="2128">
      <contour>
        <pt x="800" y="1550" on="1"/>
        <pt x="901" y="1550" on="0"/>
        <pt x="1089" y="1526" on="0"/>
        <pt x="1253" y="1481" on="0"/>
        <pt x="1388" y="1417" on="0"/>
        <pt x="1485" y="1337" on="0"/>
        <pt x="1538" y="1241" on="0"/>
        <pt x="1538" y="1188" on="1"/>
        <pt x="1538" y="1012" on="1"/>
        <pt x="1276" y="1012" on="1"/>
        <pt x="1276" y="1110" on="1"/>
        <pt x="1276" y="1153" on="0"/>
        <pt x="1210" y="1232" on="0"/>
        <pt x="1087" y="1291" on="0"/>
        <pt x="911" y="1326" on="0"/>
        <pt x="800" y="1326" on="1"/>
        <pt x="692" y="1326" on="0"/>
        <pt x="516" y="1293" on="0"/>
        <pt x="390" y="1235" on="0"/>
        <pt x="322" y="1156" on="0"/>
        <pt x="322" y="1110" on="1"/>
        <pt x="322" y="404" on="1"/>
        <pt x="322" y="360" on="0"/>
        <pt x="390" y="282" on="0"/>
        <pt x="516" y="225" on="0"/>
        <pt x="692" y="192" on="0"/>
        <pt x="800" y="192" on="1"/>
        <pt x="911" y="192" on="0"/>
        <pt x="1087" y="227" on="0"/>
        <pt x="1210" y="285" on="0"/>
        <pt x="1276" y="362" on="0"/>
        <pt x="1276" y="404" on="1"/>
        <pt x="1276" y="504" on="1"/>
        <pt x="1538" y="504" on="1"/>
        <pt x="1538" y="328" on="1"/>
        <pt x="1538" y="275" on="0"/>
        <pt x="1485" y="180" on="0"/>
        <pt x="1388" y="100" on="0"/>
        <pt x="1253" y="37" on="0"/>
        <pt x="1089" y="-8" on="0"/>
        <pt x="901" y="-32" on="0"/>
        <pt x="800" y="-32" on="1"/>
        <pt x="699" y="-32" on="0"/>
        <pt x="511" y="-8" on="0"/>
        <pt x="346" y="37" on="0"/>
        <pt x="211" y="100" on="0"/>
        <pt x="114" y="180" on="0"/>
        <pt x="60" y="275" on="0"/>
        <pt x="60" y="328" on="1"/>
        <pt x="60" y="1188" on="1"/>
        <pt x="60" y="1241" on="0"/>
        <pt x="114" y="1337" on="0"/>
        <pt x="211" y="1417" on="0"/>
        <pt x="346" y="1481" on="0"/>
        <pt x="511" y="1526" on="0"/>
        <pt x="699" y="1550" on="0"/>
      </contour>
      <contour>
        <pt x="1162" y="1974" on="1"/>
        <pt x="800" y="1668" on="1"/>
        <pt x="438" y="1972" on="1"/>
        <pt x="594" y="2128" on="1"/>
        <pt x="800" y="1906" on="1"/>
        <pt x="1006" y="2128" on="1"/>
      </contour>
    </TTGlyph>
    <TTGlyph name="Ccedilla" xMin="60" yMin="-378" xMax="1538" yMax="1550">
      <contour>
        <pt x="800" y="1550" on="1"/>
        <pt x="901" y="1550" on="0"/>
        <pt x="1089" y="1526" on="0"/>
        <pt x="1253" y="1481" on="0"/>
        <pt x="1388" y="1417" on="0"/>
        <pt x="1485" y="1337" on="0"/>
        <pt x="1538" y="1241" on="0"/>
        <pt x="1538" y="1188" on="1"/>
        <pt x="1538" y="1012" on="1"/>
        <pt x="1276" y="1012" on="1"/>
        <pt x="1276" y="1110" on="1"/>
        <pt x="1276" y="1153" on="0"/>
        <pt x="1210" y="1232" on="0"/>
        <pt x="1087" y="1291" on="0"/>
        <pt x="911" y="1326" on="0"/>
        <pt x="800" y="1326" on="1"/>
        <pt x="692" y="1326" on="0"/>
        <pt x="516" y="1293" on="0"/>
        <pt x="390" y="1235" on="0"/>
        <pt x="322" y="1156" on="0"/>
        <pt x="322" y="1110" on="1"/>
        <pt x="322" y="404" on="1"/>
        <pt x="322" y="360" on="0"/>
        <pt x="390" y="282" on="0"/>
        <pt x="516" y="225" on="0"/>
        <pt x="692" y="192" on="0"/>
        <pt x="800" y="192" on="1"/>
        <pt x="911" y="192" on="0"/>
        <pt x="1087" y="227" on="0"/>
        <pt x="1210" y="285" on="0"/>
        <pt x="1276" y="362" on="0"/>
        <pt x="1276" y="404" on="1"/>
        <pt x="1276" y="504" on="1"/>
        <pt x="1538" y="504" on="1"/>
        <pt x="1538" y="328" on="1"/>
        <pt x="1538" y="259" on="0"/>
        <pt x="1449" y="141" on="0"/>
        <pt x="1292" y="49" on="0"/>
        <pt x="1078" y="-12" on="0"/>
        <pt x="954" y="-24" on="1"/>
        <pt x="1050" y="-144" on="1"/>
        <pt x="1050" y="-188" on="0"/>
        <pt x="1001" y="-272" on="0"/>
        <pt x="895" y="-338" on="0"/>
        <pt x="728" y="-378" on="0"/>
        <pt x="610" y="-378" on="1"/>
        <pt x="610" y="-186" on="1"/>
        <pt x="669" y="-186" on="0"/>
        <pt x="755" y="-177" on="0"/>
        <pt x="814" y="-162" on="0"/>
        <pt x="850" y="-140" on="0"/>
        <pt x="860" y="-126" on="1"/>
        <pt x="806" y="-32" on="1"/>
        <pt x="800" y="-32" on="1"/>
        <pt x="699" y="-32" on="0"/>
        <pt x="511" y="-8" on="0"/>
        <pt x="346" y="37" on="0"/>
        <pt x="211" y="100" on="0"/>
        <pt x="114" y="180" on="0"/>
        <pt x="60" y="275" on="0"/>
        <pt x="60" y="328" on="1"/>
        <pt x="60" y="1188" on="1"/>
        <pt x="60" y="1241" on="0"/>
        <pt x="114" y="1337" on="0"/>
        <pt x="211" y="1417" on="0"/>
        <pt x="346" y="1481" on="0"/>
        <pt x="511" y="1526" on="0"/>
        <pt x="699" y="1550" on="0"/>
      </contour>
    </TTGlyph>
    <TTGlyph name="D" xMin="140" yMin="-4" xMax="1524" yMax="1524">
      <contour>
        <pt x="776" y="1524" on="1"/>
        <pt x="930" y="1524" on="0"/>
        <pt x="1202" y="1470" on="0"/>
        <pt x="1406" y="1374" on="0"/>
        <pt x="1524" y="1239" on="0"/>
        <pt x="1524" y="1158" on="1"/>
        <pt x="1524" y="362" on="1"/>
        <pt x="1524" y="281" on="0"/>
        <pt x="1406" y="146" on="0"/>
        <pt x="1202" y="50" on="0"/>
        <pt x="930" y="-4" on="0"/>
        <pt x="776" y="-4" on="1"/>
        <pt x="690" y="-4" on="0"/>
        <pt x="510" y="9" on="0"/>
        <pt x="341" y="30" on="0"/>
        <pt x="193" y="58" on="0"/>
        <pt x="140" y="74" on="1"/>
        <pt x="140" y="1446" on="1"/>
        <pt x="193" y="1462" on="0"/>
        <pt x="341" y="1490" on="0"/>
        <pt x="510" y="1511" on="0"/>
        <pt x="690" y="1524" on="0"/>
      </contour>
      <contour>
        <pt x="780" y="1298" on="1"/>
        <pt x="689" y="1298" on="0"/>
        <pt x="555" y="1287" on="0"/>
        <pt x="459" y="1270" on="0"/>
        <pt x="396" y="1251" on="0"/>
        <pt x="376" y="1244" on="1"/>
        <pt x="376" y="276" on="1"/>
        <pt x="396" y="268" on="0"/>
        <pt x="459" y="250" on="0"/>
        <pt x="555" y="233" on="0"/>
        <pt x="689" y="222" on="0"/>
        <pt x="780" y="222" on="1"/>
        <pt x="892" y="222" on="0"/>
        <pt x="1071" y="258" on="0"/>
        <pt x="1194" y="318" on="0"/>
        <pt x="1260" y="397" on="0"/>
        <pt x="1260" y="440" on="1"/>
        <pt x="1260" y="1080" on="1"/>
        <pt x="1260" y="1123" on="0"/>
        <pt x="1194" y="1202" on="0"/>
        <pt x="1071" y="1262" on="0"/>
        <pt x="892" y="1298" on="0"/>
      </contour>
    </TTGlyph>
    <TTGlyph name="E" xMin="172" yMin="0" xMax="1542" yMax="1522">
      <contour>
        <pt x="856" y="1522" on="1"/>
        <pt x="1010" y="1522" on="0"/>
        <pt x="1355" y="1500" on="0"/>
        <pt x="1542" y="1468" on="1"/>
        <pt x="1542" y="1214" on="1"/>
        <pt x="1458" y="1238" on="0"/>
        <pt x="1286" y="1269" on="0"/>
        <pt x="1113" y="1287" on="0"/>
        <pt x="941" y="1295" on="0"/>
        <pt x="856" y="1296" on="1"/>
        <pt x="815" y="1296" on="0"/>
        <pt x="716" y="1293" on="0"/>
        <pt x="605" y="1287" on="0"/>
        <pt x="483" y="1275" on="0"/>
        <pt x="420" y="1266" on="1"/>
        <pt x="420" y="902" on="1"/>
        <pt x="1294" y="902" on="1"/>
        <pt x="1294" y="656" on="1"/>
        <pt x="420" y="656" on="1"/>
        <pt x="420" y="254" on="1"/>
        <pt x="517" y="240" on="0"/>
        <pt x="727" y="226" on="0"/>
        <pt x="856" y="226" on="1"/>
        <pt x="1030" y="226" on="0"/>
        <pt x="1374" y="260" on="0"/>
        <pt x="1542" y="308" on="1"/>
        <pt x="1542" y="54" on="1"/>
        <pt x="1355" y="22" on="0"/>
        <pt x="1011" y="0" on="0"/>
        <pt x="860" y="0" on="1"/>
        <pt x="706" y="0" on="0"/>
        <pt x="361" y="22" on="0"/>
        <pt x="172" y="54" on="1"/>
        <pt x="172" y="1468" on="1"/>
        <pt x="361" y="1500" on="0"/>
        <pt x="705" y="1522" on="0"/>
      </contour>
    </TTGlyph>
    <TTGlyph name="Eacute" xMin="166" yMin="0" xMax="1536" yMax="2146">
      <contour>
        <pt x="850" y="1522" on="1"/>
        <pt x="1002" y="1522" on="0"/>
        <pt x="1347" y="1500" on="0"/>
        <pt x="1536" y="1468" on="1"/>
        <pt x="1536" y="1214" on="1"/>
        <pt x="1451" y="1238" on="0"/>
        <pt x="1279" y="1269" on="0"/>
        <pt x="1107" y="1287" on="0"/>
        <pt x="935" y="1295" on="0"/>
        <pt x="850" y="1296" on="1"/>
        <pt x="767" y="1296" on="0"/>
        <pt x="539" y="1284" on="0"/>
        <pt x="412" y="1266" on="1"/>
        <pt x="412" y="902" on="1"/>
        <pt x="1286" y="902" on="1"/>
        <pt x="1286" y="656" on="1"/>
        <pt x="412" y="656" on="1"/>
        <pt x="412" y="254" on="1"/>
        <pt x="461" y="247" on="0"/>
        <pt x="562" y="237" on="0"/>
        <pt x="669" y="230" on="0"/>
        <pt x="785" y="226" on="0"/>
        <pt x="850" y="226" on="1"/>
        <pt x="1024" y="226" on="0"/>
        <pt x="1367" y="260" on="0"/>
        <pt x="1536" y="308" on="1"/>
        <pt x="1536" y="54" on="1"/>
        <pt x="1347" y="22" on="0"/>
        <pt x="1003" y="0" on="0"/>
        <pt x="854" y="0" on="1"/>
        <pt x="699" y="0" on="0"/>
        <pt x="353" y="22" on="0"/>
        <pt x="166" y="54" on="1"/>
        <pt x="166" y="1468" on="1"/>
        <pt x="353" y="1500" on="0"/>
        <pt x="698" y="1522" on="0"/>
      </contour>
      <contour>
        <pt x="870" y="2146" on="1"/>
        <pt x="1046" y="1970" on="1"/>
        <pt x="1011" y="1922" on="0"/>
        <pt x="969" y="1867" on="1"/>
        <pt x="933" y="1820" on="0"/>
        <pt x="835" y="1703" on="0"/>
        <pt x="778" y="1640" on="1"/>
        <pt x="638" y="1780" on="1"/>
      </contour>
    </TTGlyph>
    <TTGlyph name="Ecircumflex" xMin="166" yMin="0" xMax="1536" yMax="2128">
      <contour>
        <pt x="850" y="1522" on="1"/>
        <pt x="1002" y="1522" on="0"/>
        <pt x="1347" y="1500" on="0"/>
        <pt x="1536" y="1468" on="1"/>
        <pt x="1536" y="1214" on="1"/>
        <pt x="1451" y="1238" on="0"/>
        <pt x="1279" y="1269" on="0"/>
        <pt x="1107" y="1287" on="0"/>
        <pt x="935" y="1295" on="0"/>
        <pt x="850" y="1296" on="1"/>
        <pt x="767" y="1296" on="0"/>
        <pt x="539" y="1284" on="0"/>
        <pt x="412" y="1266" on="1"/>
        <pt x="412" y="902" on="1"/>
        <pt x="1286" y="902" on="1"/>
        <pt x="1286" y="656" on="1"/>
        <pt x="412" y="656" on="1"/>
        <pt x="412" y="254" on="1"/>
        <pt x="461" y="247" on="0"/>
        <pt x="562" y="237" on="0"/>
        <pt x="669" y="230" on="0"/>
        <pt x="785" y="226" on="0"/>
        <pt x="850" y="226" on="1"/>
        <pt x="1024" y="226" on="0"/>
        <pt x="1367" y="260" on="0"/>
        <pt x="1536" y="308" on="1"/>
        <pt x="1536" y="54" on="1"/>
        <pt x="1347" y="22" on="0"/>
        <pt x="1003" y="0" on="0"/>
        <pt x="854" y="0" on="1"/>
        <pt x="699" y="0" on="0"/>
        <pt x="353" y="22" on="0"/>
        <pt x="166" y="54" on="1"/>
        <pt x="166" y="1468" on="1"/>
        <pt x="353" y="1500" on="0"/>
        <pt x="698" y="1522" on="0"/>
      </contour>
      <contour>
        <pt x="1212" y="1822" on="1"/>
        <pt x="1056" y="1668" on="1"/>
        <pt x="850" y="1890" on="1"/>
        <pt x="644" y="1668" on="1"/>
        <pt x="488" y="1824" on="1"/>
        <pt x="850" y="2128" on="1"/>
      </contour>
    </TTGlyph>
    <TTGlyph name="Edieresis" xMin="166" yMin="0" xMax="1536" yMax="1976">
      <contour>
        <pt x="850" y="1522" on="1"/>
        <pt x="1002" y="1522" on="0"/>
        <pt x="1347" y="1500" on="0"/>
        <pt x="1536" y="1468" on="1"/>
        <pt x="1536" y="1214" on="1"/>
        <pt x="1451" y="1238" on="0"/>
        <pt x="1279" y="1269" on="0"/>
        <pt x="1107" y="1287" on="0"/>
        <pt x="935" y="1295" on="0"/>
        <pt x="850" y="1296" on="1"/>
        <pt x="767" y="1296" on="0"/>
        <pt x="539" y="1284" on="0"/>
        <pt x="412" y="1266" on="1"/>
        <pt x="412" y="902" on="1"/>
        <pt x="1286" y="902" on="1"/>
        <pt x="1286" y="656" on="1"/>
        <pt x="412" y="656" on="1"/>
        <pt x="412" y="254" on="1"/>
        <pt x="461" y="247" on="0"/>
        <pt x="562" y="237" on="0"/>
        <pt x="669" y="230" on="0"/>
        <pt x="785" y="226" on="0"/>
        <pt x="850" y="226" on="1"/>
        <pt x="1024" y="226" on="0"/>
        <pt x="1367" y="260" on="0"/>
        <pt x="1536" y="308" on="1"/>
        <pt x="1536" y="54" on="1"/>
        <pt x="1347" y="22" on="0"/>
        <pt x="1003" y="0" on="0"/>
        <pt x="854" y="0" on="1"/>
        <pt x="699" y="0" on="0"/>
        <pt x="353" y="22" on="0"/>
        <pt x="166" y="54" on="1"/>
        <pt x="166" y="1468" on="1"/>
        <pt x="353" y="1500" on="0"/>
        <pt x="698" y="1522" on="0"/>
      </contour>
      <contour>
        <pt x="600" y="1976" on="1"/>
        <pt x="674" y="1976" on="0"/>
        <pt x="760" y="1929" on="0"/>
        <pt x="760" y="1876" on="1"/>
        <pt x="760" y="1824" on="1"/>
        <pt x="760" y="1777" on="0"/>
        <pt x="674" y="1734" on="0"/>
        <pt x="600" y="1734" on="1"/>
        <pt x="529" y="1734" on="0"/>
        <pt x="442" y="1777" on="0"/>
        <pt x="442" y="1824" on="1"/>
        <pt x="442" y="1876" on="1"/>
        <pt x="442" y="1929" on="0"/>
        <pt x="529" y="1976" on="0"/>
      </contour>
      <contour>
        <pt x="1082" y="1974" on="1"/>
        <pt x="1156" y="1974" on="0"/>
        <pt x="1242" y="1927" on="0"/>
        <pt x="1242" y="1874" on="1"/>
        <pt x="1242" y="1822" on="1"/>
        <pt x="1242" y="1775" on="0"/>
        <pt x="1156" y="1732" on="0"/>
        <pt x="1082" y="1732" on="1"/>
        <pt x="1011" y="1732" on="0"/>
        <pt x="926" y="1775" on="0"/>
        <pt x="926" y="1822" on="1"/>
        <pt x="926" y="1874" on="1"/>
        <pt x="926" y="1927" on="0"/>
        <pt x="1011" y="1974" on="0"/>
      </contour>
    </TTGlyph>
    <TTGlyph name="Egrave" xMin="166" yMin="0" xMax="1536" yMax="2146">
      <contour>
        <pt x="850" y="1522" on="1"/>
        <pt x="1002" y="1522" on="0"/>
        <pt x="1347" y="1500" on="0"/>
        <pt x="1536" y="1468" on="1"/>
        <pt x="1536" y="1214" on="1"/>
        <pt x="1451" y="1238" on="0"/>
        <pt x="1279" y="1269" on="0"/>
        <pt x="1107" y="1287" on="0"/>
        <pt x="935" y="1295" on="0"/>
        <pt x="850" y="1296" on="1"/>
        <pt x="767" y="1296" on="0"/>
        <pt x="539" y="1284" on="0"/>
        <pt x="412" y="1266" on="1"/>
        <pt x="412" y="902" on="1"/>
        <pt x="1286" y="902" on="1"/>
        <pt x="1286" y="656" on="1"/>
        <pt x="412" y="656" on="1"/>
        <pt x="412" y="254" on="1"/>
        <pt x="461" y="247" on="0"/>
        <pt x="562" y="237" on="0"/>
        <pt x="669" y="230" on="0"/>
        <pt x="785" y="226" on="0"/>
        <pt x="850" y="226" on="1"/>
        <pt x="1024" y="226" on="0"/>
        <pt x="1367" y="260" on="0"/>
        <pt x="1536" y="308" on="1"/>
        <pt x="1536" y="54" on="1"/>
        <pt x="1347" y="22" on="0"/>
        <pt x="1003" y="0" on="0"/>
        <pt x="854" y="0" on="1"/>
        <pt x="699" y="0" on="0"/>
        <pt x="353" y="22" on="0"/>
        <pt x="166" y="54" on="1"/>
        <pt x="166" y="1468" on="1"/>
        <pt x="353" y="1500" on="0"/>
        <pt x="698" y="1522" on="0"/>
      </contour>
      <contour>
        <pt x="1008" y="1780" on="1"/>
        <pt x="868" y="1640" on="1"/>
        <pt x="811" y="1703" on="0"/>
        <pt x="713" y="1820" on="0"/>
        <pt x="677" y="1867" on="1"/>
        <pt x="635" y="1922" on="0"/>
        <pt x="600" y="1970" on="1"/>
        <pt x="778" y="2146" on="1"/>
      </contour>
    </TTGlyph>
    <TTGlyph name="Eth" xMin="50" yMin="-4" xMax="1608" yMax="1524">
      <contour>
        <pt x="858" y="1524" on="1"/>
        <pt x="961" y="1524" on="0"/>
        <pt x="1152" y="1500" on="0"/>
        <pt x="1319" y="1454" on="0"/>
        <pt x="1456" y="1390" on="0"/>
        <pt x="1554" y="1308" on="0"/>
        <pt x="1608" y="1212" on="0"/>
        <pt x="1608" y="1158" on="1"/>
        <pt x="1608" y="362" on="1"/>
        <pt x="1608" y="308" on="0"/>
        <pt x="1554" y="212" on="0"/>
        <pt x="1456" y="130" on="0"/>
        <pt x="1319" y="66" on="0"/>
        <pt x="1152" y="20" on="0"/>
        <pt x="961" y="-4" on="0"/>
        <pt x="858" y="-4" on="1"/>
        <pt x="772" y="-4" on="0"/>
        <pt x="592" y="9" on="0"/>
        <pt x="424" y="30" on="0"/>
        <pt x="276" y="58" on="0"/>
        <pt x="224" y="74" on="1"/>
        <pt x="224" y="638" on="1"/>
        <pt x="50" y="638" on="1"/>
        <pt x="50" y="842" on="1"/>
        <pt x="224" y="842" on="1"/>
        <pt x="224" y="1446" on="1"/>
        <pt x="276" y="1462" on="0"/>
        <pt x="424" y="1490" on="0"/>
        <pt x="592" y="1511" on="0"/>
        <pt x="772" y="1524" on="0"/>
      </contour>
      <contour>
        <pt x="864" y="1294" on="1"/>
        <pt x="773" y="1294" on="0"/>
        <pt x="639" y="1284" on="0"/>
        <pt x="543" y="1269" on="0"/>
        <pt x="479" y="1251" on="0"/>
        <pt x="460" y="1244" on="1"/>
        <pt x="460" y="842" on="1"/>
        <pt x="840" y="842" on="1"/>
        <pt x="840" y="638" on="1"/>
        <pt x="460" y="638" on="1"/>
        <pt x="460" y="276" on="1"/>
        <pt x="479" y="268" on="0"/>
        <pt x="543" y="251" on="0"/>
        <pt x="639" y="236" on="0"/>
        <pt x="773" y="226" on="0"/>
        <pt x="864" y="226" on="1"/>
        <pt x="872" y="226" on="1"/>
        <pt x="981" y="226" on="0"/>
        <pt x="1156" y="261" on="0"/>
        <pt x="1279" y="321" on="0"/>
        <pt x="1344" y="398" on="0"/>
        <pt x="1344" y="440" on="1"/>
        <pt x="1344" y="1080" on="1"/>
        <pt x="1344" y="1122" on="0"/>
        <pt x="1279" y="1199" on="0"/>
        <pt x="1156" y="1259" on="0"/>
        <pt x="981" y="1294" on="0"/>
        <pt x="872" y="1294" on="1"/>
      </contour>
    </TTGlyph>
    <TTGlyph name="F" xMin="154" yMin="0" xMax="1524" yMax="1522">
      <contour>
        <pt x="838" y="1522" on="1"/>
        <pt x="992" y="1522" on="0"/>
        <pt x="1335" y="1500" on="0"/>
        <pt x="1524" y="1468" on="1"/>
        <pt x="1524" y="1214" on="1"/>
        <pt x="1440" y="1238" on="0"/>
        <pt x="1268" y="1269" on="0"/>
        <pt x="1095" y="1287" on="0"/>
        <pt x="923" y="1295" on="0"/>
        <pt x="838" y="1296" on="1"/>
        <pt x="797" y="1296" on="0"/>
        <pt x="698" y="1293" on="0"/>
        <pt x="585" y="1287" on="0"/>
        <pt x="463" y="1275" on="0"/>
        <pt x="400" y="1266" on="1"/>
        <pt x="400" y="902" on="1"/>
        <pt x="1274" y="902" on="1"/>
        <pt x="1274" y="656" on="1"/>
        <pt x="400" y="656" on="1"/>
        <pt x="400" y="0" on="1"/>
        <pt x="154" y="0" on="1"/>
        <pt x="154" y="1468" on="1"/>
        <pt x="341" y="1500" on="0"/>
        <pt x="686" y="1522" on="0"/>
      </contour>
    </TTGlyph>
    <TTGlyph name="G" xMin="114" yMin="-2" xMax="1590" yMax="1524">
      <contour>
        <pt x="852" y="1524" on="1"/>
        <pt x="1003" y="1524" on="0"/>
        <pt x="1271" y="1470" on="0"/>
        <pt x="1472" y="1374" on="0"/>
        <pt x="1590" y="1240" on="0"/>
        <pt x="1590" y="1160" on="1"/>
        <pt x="1590" y="998" on="1"/>
        <pt x="1330" y="998" on="1"/>
        <pt x="1330" y="1084" on="1"/>
        <pt x="1330" y="1127" on="0"/>
        <pt x="1264" y="1205" on="0"/>
        <pt x="1141" y="1265" on="0"/>
        <pt x="964" y="1300" on="0"/>
        <pt x="852" y="1300" on="1"/>
        <pt x="744" y="1300" on="0"/>
        <pt x="568" y="1266" on="0"/>
        <pt x="442" y="1208" on="0"/>
        <pt x="374" y="1129" on="0"/>
        <pt x="374" y="1084" on="1"/>
        <pt x="374" y="436" on="1"/>
        <pt x="374" y="392" on="0"/>
        <pt x="442" y="313" on="0"/>
        <pt x="568" y="254" on="0"/>
        <pt x="744" y="220" on="0"/>
        <pt x="852" y="220" on="1"/>
        <pt x="964" y="220" on="0"/>
        <pt x="1141" y="255" on="0"/>
        <pt x="1264" y="315" on="0"/>
        <pt x="1330" y="393" on="0"/>
        <pt x="1330" y="436" on="1"/>
        <pt x="1330" y="580" on="1"/>
        <pt x="1237" y="580" on="0"/>
        <pt x="1090" y="570" on="0"/>
        <pt x="1038" y="565" on="1"/>
        <pt x="977" y="558" on="0"/>
        <pt x="930" y="550" on="1"/>
        <pt x="956" y="792" on="1"/>
        <pt x="1109" y="804" on="0"/>
        <pt x="1244" y="804" on="1"/>
        <pt x="1425" y="804" on="0"/>
        <pt x="1590" y="786" on="1"/>
        <pt x="1590" y="360" on="1"/>
        <pt x="1590" y="280" on="0"/>
        <pt x="1472" y="147" on="0"/>
        <pt x="1271" y="51" on="0"/>
        <pt x="1003" y="-2" on="0"/>
        <pt x="852" y="-2" on="1"/>
        <pt x="701" y="-2" on="0"/>
        <pt x="433" y="51" on="0"/>
        <pt x="232" y="147" on="0"/>
        <pt x="114" y="280" on="0"/>
        <pt x="114" y="360" on="1"/>
        <pt x="114" y="1160" on="1"/>
        <pt x="114" y="1240" on="0"/>
        <pt x="232" y="1374" on="0"/>
        <pt x="433" y="1470" on="0"/>
        <pt x="701" y="1524" on="0"/>
      </contour>
    </TTGlyph>
    <TTGlyph name="H" xMin="180" yMin="0" xMax="1700" yMax="1506">
      <contour>
        <pt x="604" y="878" on="1"/>
        <pt x="1276" y="878" on="1"/>
        <pt x="1276" y="1506" on="1"/>
        <pt x="1362" y="1503" on="0"/>
        <pt x="1514" y="1489" on="0"/>
        <pt x="1573" y="1481" on="1"/>
        <pt x="1641" y="1472" on="0"/>
        <pt x="1700" y="1462" on="1"/>
        <pt x="1700" y="1206" on="1"/>
        <pt x="1661" y="1218" on="0"/>
        <pt x="1567" y="1239" on="0"/>
        <pt x="1516" y="1248" on="1"/>
        <pt x="1516" y="258" on="1"/>
        <pt x="1626" y="276" on="0"/>
        <pt x="1700" y="300" on="1"/>
        <pt x="1700" y="46" on="1"/>
        <pt x="1628" y="34" on="0"/>
        <pt x="1508" y="18" on="0"/>
        <pt x="1406" y="8" on="0"/>
        <pt x="1317" y="2" on="0"/>
        <pt x="1276" y="0" on="1"/>
        <pt x="1276" y="636" on="1"/>
        <pt x="604" y="636" on="1"/>
        <pt x="604" y="0" on="1"/>
        <pt x="563" y="2" on="0"/>
        <pt x="474" y="8" on="0"/>
        <pt x="372" y="18" on="0"/>
        <pt x="252" y="34" on="0"/>
        <pt x="180" y="46" on="1"/>
        <pt x="180" y="300" on="1"/>
        <pt x="219" y="288" on="0"/>
        <pt x="310" y="267" on="0"/>
        <pt x="364" y="258" on="1"/>
        <pt x="364" y="1248" on="1"/>
        <pt x="260" y="1230" on="0"/>
        <pt x="180" y="1206" on="1"/>
        <pt x="180" y="1462" on="1"/>
        <pt x="237" y="1472" on="0"/>
        <pt x="306" y="1481" on="1"/>
        <pt x="364" y="1489" on="0"/>
        <pt x="518" y="1503" on="0"/>
        <pt x="604" y="1506" on="1"/>
      </contour>
    </TTGlyph>
    <TTGlyph name="I" xMin="148" yMin="0" xMax="1518" yMax="1522">
      <contour>
        <pt x="832" y="1522" on="1"/>
        <pt x="987" y="1522" on="0"/>
        <pt x="1331" y="1500" on="0"/>
        <pt x="1518" y="1468" on="1"/>
        <pt x="1518" y="1214" on="1"/>
        <pt x="1451" y="1233" on="0"/>
        <pt x="1365" y="1250" on="1"/>
        <pt x="1291" y="1264" on="0"/>
        <pt x="1083" y="1290" on="0"/>
        <pt x="952" y="1294" on="1"/>
        <pt x="952" y="228" on="1"/>
        <pt x="1083" y="232" on="0"/>
        <pt x="1291" y="258" on="0"/>
        <pt x="1365" y="272" on="1"/>
        <pt x="1451" y="289" on="0"/>
        <pt x="1518" y="308" on="1"/>
        <pt x="1518" y="54" on="1"/>
        <pt x="1331" y="22" on="0"/>
        <pt x="987" y="0" on="0"/>
        <pt x="832" y="0" on="1"/>
        <pt x="681" y="0" on="0"/>
        <pt x="337" y="22" on="0"/>
        <pt x="148" y="54" on="1"/>
        <pt x="148" y="308" on="1"/>
        <pt x="215" y="289" on="0"/>
        <pt x="301" y="272" on="1"/>
        <pt x="375" y="258" on="0"/>
        <pt x="583" y="232" on="0"/>
        <pt x="714" y="228" on="1"/>
        <pt x="714" y="1294" on="1"/>
        <pt x="583" y="1290" on="0"/>
        <pt x="375" y="1264" on="0"/>
        <pt x="301" y="1250" on="1"/>
        <pt x="215" y="1233" on="0"/>
        <pt x="148" y="1214" on="1"/>
        <pt x="148" y="1468" on="1"/>
        <pt x="337" y="1500" on="0"/>
        <pt x="681" y="1522" on="0"/>
      </contour>
    </TTGlyph>
    <TTGlyph name="Iacute" xMin="184" yMin="0" xMax="1554" yMax="2146">
      <contour>
        <pt x="868" y="1522" on="1"/>
        <pt x="1023" y="1522" on="0"/>
        <pt x="1367" y="1500" on="0"/>
        <pt x="1554" y="1468" on="1"/>
        <pt x="1554" y="1214" on="1"/>
        <pt x="1487" y="1233" on="0"/>
        <pt x="1401" y="1250" on="1"/>
        <pt x="1327" y="1264" on="0"/>
        <pt x="1119" y="1290" on="0"/>
        <pt x="988" y="1294" on="1"/>
        <pt x="988" y="228" on="1"/>
        <pt x="1119" y="232" on="0"/>
        <pt x="1327" y="258" on="0"/>
        <pt x="1401" y="272" on="1"/>
        <pt x="1487" y="289" on="0"/>
        <pt x="1554" y="308" on="1"/>
        <pt x="1554" y="54" on="1"/>
        <pt x="1367" y="22" on="0"/>
        <pt x="1023" y="0" on="0"/>
        <pt x="868" y="0" on="1"/>
        <pt x="717" y="0" on="0"/>
        <pt x="373" y="22" on="0"/>
        <pt x="184" y="54" on="1"/>
        <pt x="184" y="308" on="1"/>
        <pt x="251" y="289" on="0"/>
        <pt x="337" y="272" on="1"/>
        <pt x="411" y="258" on="0"/>
        <pt x="619" y="232" on="0"/>
        <pt x="750" y="228" on="1"/>
        <pt x="750" y="1294" on="1"/>
        <pt x="619" y="1290" on="0"/>
        <pt x="411" y="1264" on="0"/>
        <pt x="337" y="1250" on="1"/>
        <pt x="251" y="1233" on="0"/>
        <pt x="184" y="1214" on="1"/>
        <pt x="184" y="1468" on="1"/>
        <pt x="373" y="1500" on="0"/>
        <pt x="717" y="1522" on="0"/>
      </contour>
      <contour>
        <pt x="932" y="2146" on="1"/>
        <pt x="1110" y="1970" on="1"/>
        <pt x="1075" y="1922" on="0"/>
        <pt x="1033" y="1867" on="1"/>
        <pt x="997" y="1820" on="0"/>
        <pt x="899" y="1703" on="0"/>
        <pt x="842" y="1640" on="1"/>
        <pt x="702" y="1780" on="1"/>
      </contour>
    </TTGlyph>
    <TTGlyph name="Icircumflex" xMin="184" yMin="0" xMax="1554" yMax="2128">
      <contour>
        <pt x="868" y="1522" on="1"/>
        <pt x="1023" y="1522" on="0"/>
        <pt x="1367" y="1500" on="0"/>
        <pt x="1554" y="1468" on="1"/>
        <pt x="1554" y="1214" on="1"/>
        <pt x="1487" y="1233" on="0"/>
        <pt x="1401" y="1250" on="1"/>
        <pt x="1327" y="1264" on="0"/>
        <pt x="1119" y="1290" on="0"/>
        <pt x="988" y="1294" on="1"/>
        <pt x="988" y="228" on="1"/>
        <pt x="1119" y="232" on="0"/>
        <pt x="1327" y="258" on="0"/>
        <pt x="1401" y="272" on="1"/>
        <pt x="1487" y="289" on="0"/>
        <pt x="1554" y="308" on="1"/>
        <pt x="1554" y="54" on="1"/>
        <pt x="1367" y="22" on="0"/>
        <pt x="1023" y="0" on="0"/>
        <pt x="868" y="0" on="1"/>
        <pt x="717" y="0" on="0"/>
        <pt x="373" y="22" on="0"/>
        <pt x="184" y="54" on="1"/>
        <pt x="184" y="308" on="1"/>
        <pt x="251" y="289" on="0"/>
        <pt x="337" y="272" on="1"/>
        <pt x="411" y="258" on="0"/>
        <pt x="619" y="232" on="0"/>
        <pt x="750" y="228" on="1"/>
        <pt x="750" y="1294" on="1"/>
        <pt x="619" y="1290" on="0"/>
        <pt x="411" y="1264" on="0"/>
        <pt x="337" y="1250" on="1"/>
        <pt x="251" y="1233" on="0"/>
        <pt x="184" y="1214" on="1"/>
        <pt x="184" y="1468" on="1"/>
        <pt x="373" y="1500" on="0"/>
        <pt x="717" y="1522" on="0"/>
      </contour>
      <contour>
        <pt x="1232" y="1822" on="1"/>
        <pt x="1076" y="1668" on="1"/>
        <pt x="868" y="1890" on="1"/>
        <pt x="664" y="1668" on="1"/>
        <pt x="508" y="1824" on="1"/>
        <pt x="868" y="2128" on="1"/>
      </contour>
    </TTGlyph>
    <TTGlyph name="Idieresis" xMin="184" yMin="0" xMax="1554" yMax="1976">
      <contour>
        <pt x="868" y="1522" on="1"/>
        <pt x="1023" y="1522" on="0"/>
        <pt x="1367" y="1500" on="0"/>
        <pt x="1554" y="1468" on="1"/>
        <pt x="1554" y="1214" on="1"/>
        <pt x="1487" y="1233" on="0"/>
        <pt x="1401" y="1250" on="1"/>
        <pt x="1327" y="1264" on="0"/>
        <pt x="1119" y="1290" on="0"/>
        <pt x="988" y="1294" on="1"/>
        <pt x="988" y="228" on="1"/>
        <pt x="1119" y="232" on="0"/>
        <pt x="1327" y="258" on="0"/>
        <pt x="1401" y="272" on="1"/>
        <pt x="1487" y="289" on="0"/>
        <pt x="1554" y="308" on="1"/>
        <pt x="1554" y="54" on="1"/>
        <pt x="1367" y="22" on="0"/>
        <pt x="1023" y="0" on="0"/>
        <pt x="868" y="0" on="1"/>
        <pt x="717" y="0" on="0"/>
        <pt x="373" y="22" on="0"/>
        <pt x="184" y="54" on="1"/>
        <pt x="184" y="308" on="1"/>
        <pt x="251" y="289" on="0"/>
        <pt x="337" y="272" on="1"/>
        <pt x="411" y="258" on="0"/>
        <pt x="619" y="232" on="0"/>
        <pt x="750" y="228" on="1"/>
        <pt x="750" y="1294" on="1"/>
        <pt x="619" y="1290" on="0"/>
        <pt x="411" y="1264" on="0"/>
        <pt x="337" y="1250" on="1"/>
        <pt x="251" y="1233" on="0"/>
        <pt x="184" y="1214" on="1"/>
        <pt x="184" y="1468" on="1"/>
        <pt x="373" y="1500" on="0"/>
        <pt x="717" y="1522" on="0"/>
      </contour>
      <contour>
        <pt x="626" y="1976" on="1"/>
        <pt x="700" y="1976" on="0"/>
        <pt x="786" y="1929" on="0"/>
        <pt x="786" y="1876" on="1"/>
        <pt x="786" y="1824" on="1"/>
        <pt x="786" y="1777" on="0"/>
        <pt x="700" y="1734" on="0"/>
        <pt x="626" y="1734" on="1"/>
        <pt x="555" y="1734" on="0"/>
        <pt x="470" y="1777" on="0"/>
        <pt x="470" y="1824" on="1"/>
        <pt x="470" y="1876" on="1"/>
        <pt x="470" y="1929" on="0"/>
        <pt x="555" y="1976" on="0"/>
      </contour>
      <contour>
        <pt x="1110" y="1974" on="1"/>
        <pt x="1182" y="1974" on="0"/>
        <pt x="1270" y="1927" on="0"/>
        <pt x="1270" y="1874" on="1"/>
        <pt x="1270" y="1822" on="1"/>
        <pt x="1270" y="1775" on="0"/>
        <pt x="1182" y="1732" on="0"/>
        <pt x="1110" y="1732" on="1"/>
        <pt x="1038" y="1732" on="0"/>
        <pt x="952" y="1775" on="0"/>
        <pt x="952" y="1822" on="1"/>
        <pt x="952" y="1874" on="1"/>
        <pt x="952" y="1927" on="0"/>
        <pt x="1038" y="1974" on="0"/>
      </contour>
    </TTGlyph>
    <TTGlyph name="Igrave" xMin="184" yMin="0" xMax="1554" yMax="2146">
      <contour>
        <pt x="868" y="1522" on="1"/>
        <pt x="1023" y="1522" on="0"/>
        <pt x="1367" y="1500" on="0"/>
        <pt x="1554" y="1468" on="1"/>
        <pt x="1554" y="1214" on="1"/>
        <pt x="1487" y="1233" on="0"/>
        <pt x="1401" y="1250" on="1"/>
        <pt x="1327" y="1264" on="0"/>
        <pt x="1119" y="1290" on="0"/>
        <pt x="988" y="1294" on="1"/>
        <pt x="988" y="228" on="1"/>
        <pt x="1119" y="232" on="0"/>
        <pt x="1327" y="258" on="0"/>
        <pt x="1401" y="272" on="1"/>
        <pt x="1487" y="289" on="0"/>
        <pt x="1554" y="308" on="1"/>
        <pt x="1554" y="54" on="1"/>
        <pt x="1367" y="22" on="0"/>
        <pt x="1023" y="0" on="0"/>
        <pt x="868" y="0" on="1"/>
        <pt x="717" y="0" on="0"/>
        <pt x="373" y="22" on="0"/>
        <pt x="184" y="54" on="1"/>
        <pt x="184" y="308" on="1"/>
        <pt x="251" y="289" on="0"/>
        <pt x="337" y="272" on="1"/>
        <pt x="411" y="258" on="0"/>
        <pt x="619" y="232" on="0"/>
        <pt x="750" y="228" on="1"/>
        <pt x="750" y="1294" on="1"/>
        <pt x="619" y="1290" on="0"/>
        <pt x="411" y="1264" on="0"/>
        <pt x="337" y="1250" on="1"/>
        <pt x="251" y="1233" on="0"/>
        <pt x="184" y="1214" on="1"/>
        <pt x="184" y="1468" on="1"/>
        <pt x="373" y="1500" on="0"/>
        <pt x="717" y="1522" on="0"/>
      </contour>
      <contour>
        <pt x="1072" y="1780" on="1"/>
        <pt x="930" y="1640" on="1"/>
        <pt x="873" y="1703" on="0"/>
        <pt x="775" y="1820" on="0"/>
        <pt x="740" y="1867" on="1"/>
        <pt x="698" y="1922" on="0"/>
        <pt x="664" y="1970" on="1"/>
        <pt x="840" y="2146" on="1"/>
      </contour>
    </TTGlyph>
    <TTGlyph name="J" xMin="50" yMin="2" xMax="1528" yMax="1522">
      <contour>
        <pt x="790" y="1522" on="1"/>
        <pt x="953" y="1522" on="0"/>
        <pt x="1324" y="1499" on="0"/>
        <pt x="1528" y="1466" on="1"/>
        <pt x="1528" y="350" on="1"/>
        <pt x="1528" y="283" on="0"/>
        <pt x="1469" y="178" on="0"/>
        <pt x="1366" y="101" on="0"/>
        <pt x="1225" y="48" on="0"/>
        <pt x="1062" y="16" on="0"/>
        <pt x="882" y="2" on="0"/>
        <pt x="792" y="2" on="1"/>
        <pt x="700" y="2" on="0"/>
        <pt x="522" y="16" on="0"/>
        <pt x="362" y="48" on="0"/>
        <pt x="225" y="101" on="0"/>
        <pt x="121" y="178" on="0"/>
        <pt x="57" y="282" on="0"/>
        <pt x="50" y="350" on="1"/>
        <pt x="310" y="422" on="1"/>
        <pt x="310" y="360" on="0"/>
        <pt x="394" y="282" on="0"/>
        <pt x="531" y="238" on="0"/>
        <pt x="703" y="222" on="0"/>
        <pt x="792" y="222" on="1"/>
        <pt x="883" y="222" on="0"/>
        <pt x="1054" y="239" on="0"/>
        <pt x="1187" y="284" on="0"/>
        <pt x="1268" y="362" on="0"/>
        <pt x="1268" y="422" on="1"/>
        <pt x="1268" y="1260" on="1"/>
        <pt x="1168" y="1274" on="0"/>
        <pt x="939" y="1292" on="0"/>
        <pt x="820" y="1292" on="1"/>
        <pt x="786" y="1292" on="1"/>
        <pt x="617" y="1290" on="0"/>
        <pt x="276" y="1261" on="0"/>
        <pt x="98" y="1222" on="1"/>
        <pt x="98" y="1474" on="1"/>
        <pt x="288" y="1503" on="0"/>
        <pt x="635" y="1522" on="0"/>
      </contour>
    </TTGlyph>
    <TTGlyph name="K" xMin="118" yMin="4" xMax="1562" yMax="1518">
      <contour>
        <pt x="542" y="944" on="1"/>
        <pt x="581" y="936" on="0"/>
        <pt x="661" y="930" on="0"/>
        <pt x="702" y="930" on="1"/>
        <pt x="834" y="930" on="0"/>
        <pt x="1002" y="1020" on="0"/>
        <pt x="1098" y="1178" on="0"/>
        <pt x="1136" y="1393" on="0"/>
        <pt x="1138" y="1518" on="1"/>
        <pt x="1224" y="1514" on="0"/>
        <pt x="1376" y="1499" on="0"/>
        <pt x="1435" y="1491" on="1"/>
        <pt x="1503" y="1482" on="0"/>
        <pt x="1562" y="1472" on="1"/>
        <pt x="1562" y="1218" on="1"/>
        <pt x="1547" y="1223" on="0"/>
        <pt x="1500" y="1235" on="0"/>
        <pt x="1443" y="1248" on="0"/>
        <pt x="1378" y="1261" on="0"/>
        <pt x="1344" y="1268" on="1"/>
        <pt x="1337" y="1204" on="0"/>
        <pt x="1310" y="1079" on="0"/>
        <pt x="1262" y="965" on="0"/>
        <pt x="1189" y="870" on="0"/>
        <pt x="1136" y="836" on="1"/>
        <pt x="1206" y="813" on="0"/>
        <pt x="1314" y="723" on="0"/>
        <pt x="1393" y="606" on="0"/>
        <pt x="1446" y="468" on="0"/>
        <pt x="1478" y="326" on="0"/>
        <pt x="1492" y="185" on="0"/>
        <pt x="1492" y="124" on="1"/>
        <pt x="1492" y="91" on="0"/>
        <pt x="1489" y="30" on="0"/>
        <pt x="1486" y="4" on="1"/>
        <pt x="1250" y="4" on="1"/>
        <pt x="1255" y="40" on="0"/>
        <pt x="1258" y="107" on="0"/>
        <pt x="1258" y="140" on="1"/>
        <pt x="1258" y="270" on="0"/>
        <pt x="1196" y="478" on="0"/>
        <pt x="1084" y="623" on="0"/>
        <pt x="929" y="700" on="0"/>
        <pt x="836" y="700" on="1"/>
        <pt x="773" y="700" on="0"/>
        <pt x="685" y="694" on="0"/>
        <pt x="619" y="683" on="0"/>
        <pt x="568" y="669" on="0"/>
        <pt x="542" y="662" on="1"/>
        <pt x="542" y="4" on="1"/>
        <pt x="296" y="4" on="1"/>
        <pt x="296" y="1260" on="1"/>
        <pt x="239" y="1248" on="0"/>
        <pt x="142" y="1227" on="0"/>
        <pt x="118" y="1218" on="1"/>
        <pt x="118" y="1472" on="1"/>
        <pt x="175" y="1482" on="0"/>
        <pt x="244" y="1491" on="1"/>
        <pt x="302" y="1499" on="0"/>
        <pt x="456" y="1514" on="0"/>
        <pt x="542" y="1518" on="1"/>
      </contour>
    </TTGlyph>
    <TTGlyph name="L" xMin="152" yMin="2" xMax="1572" yMax="1518">
      <contour>
        <pt x="600" y="1290" on="1"/>
        <pt x="541" y="1285" on="0"/>
        <pt x="443" y="1274" on="0"/>
        <pt x="398" y="1268" on="1"/>
        <pt x="398" y="256" on="1"/>
        <pt x="464" y="247" on="0"/>
        <pt x="624" y="233" on="0"/>
        <pt x="718" y="230" on="1"/>
        <pt x="748" y="228" on="0"/>
        <pt x="806" y="228" on="0"/>
        <pt x="836" y="228" on="1"/>
        <pt x="866" y="228" on="0"/>
        <pt x="926" y="228" on="0"/>
        <pt x="956" y="230" on="1"/>
        <pt x="1068" y="233" on="0"/>
        <pt x="1243" y="250" on="0"/>
        <pt x="1314" y="264" on="1"/>
        <pt x="1332" y="363" on="0"/>
        <pt x="1344" y="504" on="1"/>
        <pt x="1572" y="504" on="1"/>
        <pt x="1566" y="397" on="0"/>
        <pt x="1544" y="174" on="0"/>
        <pt x="1524" y="56" on="1"/>
        <pt x="1334" y="24" on="0"/>
        <pt x="991" y="2" on="0"/>
        <pt x="840" y="2" on="1"/>
        <pt x="685" y="2" on="0"/>
        <pt x="339" y="24" on="0"/>
        <pt x="152" y="56" on="1"/>
        <pt x="152" y="1470" on="1"/>
        <pt x="271" y="1491" on="0"/>
        <pt x="494" y="1512" on="0"/>
        <pt x="600" y="1518" on="1"/>
      </contour>
    </TTGlyph>
    <TTGlyph name="M" xMin="170" yMin="-4" xMax="2058" yMax="1516">
      <contour>
        <pt x="1118" y="714" on="1"/>
        <pt x="1640" y="1514" on="1"/>
        <pt x="1725" y="1509" on="0"/>
        <pt x="1877" y="1494" on="0"/>
        <pt x="1934" y="1486" on="1"/>
        <pt x="2001" y="1477" on="0"/>
        <pt x="2058" y="1468" on="1"/>
        <pt x="2058" y="1238" on="1"/>
        <pt x="1872" y="1280" on="1"/>
        <pt x="1872" y="248" on="1"/>
        <pt x="2058" y="290" on="1"/>
        <pt x="2058" y="42" on="1"/>
        <pt x="1952" y="21" on="0"/>
        <pt x="1746" y="1" on="0"/>
        <pt x="1640" y="-4" on="1"/>
        <pt x="1640" y="1094" on="1"/>
        <pt x="1118" y="284" on="1"/>
        <pt x="588" y="1096" on="1"/>
        <pt x="588" y="-4" on="1"/>
        <pt x="503" y="1" on="0"/>
        <pt x="351" y="15" on="0"/>
        <pt x="294" y="23" on="1"/>
        <pt x="227" y="32" on="0"/>
        <pt x="170" y="42" on="1"/>
        <pt x="170" y="290" on="1"/>
        <pt x="356" y="248" on="1"/>
        <pt x="356" y="1282" on="1"/>
        <pt x="170" y="1240" on="1"/>
        <pt x="170" y="1470" on="1"/>
        <pt x="227" y="1479" on="0"/>
        <pt x="294" y="1488" on="1"/>
        <pt x="351" y="1496" on="0"/>
        <pt x="503" y="1511" on="0"/>
        <pt x="588" y="1516" on="1"/>
      </contour>
    </TTGlyph>
    <TTGlyph name="N" xMin="170" yMin="2" xMax="1678" yMax="1508">
      <contour>
        <pt x="1258" y="394" on="1"/>
        <pt x="1258" y="1508" on="1"/>
        <pt x="1344" y="1505" on="0"/>
        <pt x="1495" y="1490" on="0"/>
        <pt x="1553" y="1482" on="1"/>
        <pt x="1620" y="1472" on="0"/>
        <pt x="1678" y="1462" on="1"/>
        <pt x="1678" y="1208" on="1"/>
        <pt x="1598" y="1232" on="0"/>
        <pt x="1494" y="1250" on="1"/>
        <pt x="1494" y="242" on="1"/>
        <pt x="1548" y="250" on="0"/>
        <pt x="1639" y="272" on="0"/>
        <pt x="1678" y="284" on="1"/>
        <pt x="1678" y="48" on="1"/>
        <pt x="1606" y="36" on="0"/>
        <pt x="1488" y="20" on="0"/>
        <pt x="1387" y="10" on="0"/>
        <pt x="1299" y="4" on="0"/>
        <pt x="1258" y="2" on="1"/>
        <pt x="588" y="1114" on="1"/>
        <pt x="588" y="2" on="1"/>
        <pt x="547" y="4" on="0"/>
        <pt x="459" y="10" on="0"/>
        <pt x="359" y="20" on="0"/>
        <pt x="241" y="36" on="0"/>
        <pt x="170" y="48" on="1"/>
        <pt x="170" y="302" on="1"/>
        <pt x="244" y="278" on="0"/>
        <pt x="354" y="260" on="1"/>
        <pt x="354" y="1270" on="1"/>
        <pt x="301" y="1261" on="0"/>
        <pt x="209" y="1239" on="0"/>
        <pt x="170" y="1228" on="1"/>
        <pt x="170" y="1462" on="1"/>
        <pt x="226" y="1472" on="0"/>
        <pt x="293" y="1482" on="1"/>
        <pt x="350" y="1490" on="0"/>
        <pt x="502" y="1505" on="0"/>
        <pt x="588" y="1508" on="1"/>
      </contour>
    </TTGlyph>
    <TTGlyph name="Ntilde" xMin="156" yMin="2" xMax="1664" yMax="2028">
      <contour>
        <pt x="1244" y="394" on="1"/>
        <pt x="1244" y="1508" on="1"/>
        <pt x="1330" y="1505" on="0"/>
        <pt x="1481" y="1490" on="0"/>
        <pt x="1539" y="1482" on="1"/>
        <pt x="1606" y="1472" on="0"/>
        <pt x="1664" y="1462" on="1"/>
        <pt x="1664" y="1208" on="1"/>
        <pt x="1625" y="1220" on="0"/>
        <pt x="1531" y="1241" on="0"/>
        <pt x="1480" y="1250" on="1"/>
        <pt x="1480" y="242" on="1"/>
        <pt x="1534" y="250" on="0"/>
        <pt x="1626" y="272" on="0"/>
        <pt x="1664" y="284" on="1"/>
        <pt x="1664" y="48" on="1"/>
        <pt x="1592" y="36" on="0"/>
        <pt x="1474" y="20" on="0"/>
        <pt x="1373" y="10" on="0"/>
        <pt x="1285" y="4" on="0"/>
        <pt x="1244" y="2" on="1"/>
        <pt x="576" y="1114" on="1"/>
        <pt x="576" y="2" on="1"/>
        <pt x="535" y="4" on="0"/>
        <pt x="447" y="10" on="0"/>
        <pt x="346" y="20" on="0"/>
        <pt x="228" y="36" on="0"/>
        <pt x="156" y="48" on="1"/>
        <pt x="156" y="302" on="1"/>
        <pt x="195" y="290" on="0"/>
        <pt x="286" y="269" on="0"/>
        <pt x="340" y="260" on="1"/>
        <pt x="340" y="1270" on="1"/>
        <pt x="289" y="1261" on="0"/>
        <pt x="195" y="1239" on="0"/>
        <pt x="156" y="1228" on="1"/>
        <pt x="156" y="1462" on="1"/>
        <pt x="212" y="1472" on="0"/>
        <pt x="280" y="1482" on="1"/>
        <pt x="337" y="1490" on="0"/>
        <pt x="490" y="1505" on="0"/>
        <pt x="576" y="1508" on="1"/>
      </contour>
      <contour>
        <pt x="740" y="2028" on="1"/>
        <pt x="786" y="2028" on="0"/>
        <pt x="870" y="1997" on="0"/>
        <pt x="951" y="1959" on="0"/>
        <pt x="1032" y="1928" on="0"/>
        <pt x="1076" y="1928" on="1"/>
        <pt x="1121" y="1928" on="0"/>
        <pt x="1201" y="1949" on="0"/>
        <pt x="1231" y="1963" on="1"/>
        <pt x="1266" y="1978" on="0"/>
        <pt x="1296" y="1998" on="1"/>
        <pt x="1296" y="1780" on="1"/>
        <pt x="1268" y="1762" on="0"/>
        <pt x="1235" y="1749" on="1"/>
        <pt x="1206" y="1737" on="0"/>
        <pt x="1129" y="1718" on="0"/>
        <pt x="1082" y="1718" on="1"/>
        <pt x="1032" y="1718" on="0"/>
        <pt x="951" y="1749" on="0"/>
        <pt x="879" y="1785" on="0"/>
        <pt x="808" y="1816" on="0"/>
        <pt x="768" y="1816" on="1"/>
        <pt x="721" y="1816" on="0"/>
        <pt x="628" y="1790" on="0"/>
        <pt x="590" y="1775" on="1"/>
        <pt x="546" y="1757" on="0"/>
        <pt x="506" y="1734" on="1"/>
        <pt x="506" y="1954" on="1"/>
        <pt x="535" y="1974" on="0"/>
        <pt x="572" y="1991" on="1"/>
        <pt x="603" y="2005" on="0"/>
        <pt x="689" y="2028" on="0"/>
      </contour>
    </TTGlyph>
    <TTGlyph name="O" xMin="136" yMin="-30" xMax="1610" yMax="1548">
      <contour>
        <pt x="872" y="1548" on="1"/>
        <pt x="972" y="1548" on="0"/>
        <pt x="1160" y="1524" on="0"/>
        <pt x="1324" y="1479" on="0"/>
        <pt x="1460" y="1416" on="0"/>
        <pt x="1556" y="1336" on="0"/>
        <pt x="1610" y="1241" on="0"/>
        <pt x="1610" y="1188" on="1"/>
        <pt x="1610" y="330" on="1"/>
        <pt x="1610" y="277" on="0"/>
        <pt x="1556" y="182" on="0"/>
        <pt x="1460" y="102" on="0"/>
        <pt x="1324" y="39" on="0"/>
        <pt x="1160" y="-6" on="0"/>
        <pt x="972" y="-30" on="0"/>
        <pt x="872" y="-30" on="1"/>
        <pt x="772" y="-30" on="0"/>
        <pt x="585" y="-6" on="0"/>
        <pt x="422" y="39" on="0"/>
        <pt x="286" y="102" on="0"/>
        <pt x="189" y="182" on="0"/>
        <pt x="136" y="277" on="0"/>
        <pt x="136" y="330" on="1"/>
        <pt x="136" y="1188" on="1"/>
        <pt x="136" y="1241" on="0"/>
        <pt x="189" y="1336" on="0"/>
        <pt x="286" y="1416" on="0"/>
        <pt x="422" y="1479" on="0"/>
        <pt x="585" y="1524" on="0"/>
        <pt x="772" y="1548" on="0"/>
      </contour>
      <contour>
        <pt x="1348" y="1112" on="1"/>
        <pt x="1348" y="1155" on="0"/>
        <pt x="1282" y="1232" on="0"/>
        <pt x="1159" y="1291" on="0"/>
        <pt x="983" y="1326" on="0"/>
        <pt x="872" y="1326" on="1"/>
        <pt x="765" y="1326" on="0"/>
        <pt x="591" y="1293" on="0"/>
        <pt x="466" y="1235" on="0"/>
        <pt x="398" y="1157" on="0"/>
        <pt x="398" y="1112" on="1"/>
        <pt x="398" y="406" on="1"/>
        <pt x="398" y="362" on="0"/>
        <pt x="466" y="284" on="0"/>
        <pt x="591" y="226" on="0"/>
        <pt x="765" y="192" on="0"/>
        <pt x="872" y="192" on="1"/>
        <pt x="983" y="192" on="0"/>
        <pt x="1159" y="227" on="0"/>
        <pt x="1282" y="287" on="0"/>
        <pt x="1348" y="364" on="0"/>
        <pt x="1348" y="406" on="1"/>
      </contour>
    </TTGlyph>
    <TTGlyph name="Oacute" xMin="160" yMin="-30" xMax="1632" yMax="2146">
      <contour>
        <pt x="894" y="1548" on="1"/>
        <pt x="995" y="1548" on="0"/>
        <pt x="1183" y="1524" on="0"/>
        <pt x="1347" y="1479" on="0"/>
        <pt x="1482" y="1416" on="0"/>
        <pt x="1579" y="1336" on="0"/>
        <pt x="1632" y="1241" on="0"/>
        <pt x="1632" y="1188" on="1"/>
        <pt x="1632" y="330" on="1"/>
        <pt x="1632" y="277" on="0"/>
        <pt x="1579" y="182" on="0"/>
        <pt x="1482" y="102" on="0"/>
        <pt x="1347" y="39" on="0"/>
        <pt x="1183" y="-6" on="0"/>
        <pt x="995" y="-30" on="0"/>
        <pt x="894" y="-30" on="1"/>
        <pt x="744" y="-30" on="0"/>
        <pt x="477" y="23" on="0"/>
        <pt x="277" y="118" on="0"/>
        <pt x="160" y="250" on="0"/>
        <pt x="160" y="330" on="1"/>
        <pt x="160" y="1188" on="1"/>
        <pt x="160" y="1267" on="0"/>
        <pt x="277" y="1400" on="0"/>
        <pt x="477" y="1495" on="0"/>
        <pt x="744" y="1548" on="0"/>
      </contour>
      <contour>
        <pt x="1372" y="1112" on="1"/>
        <pt x="1372" y="1155" on="0"/>
        <pt x="1306" y="1232" on="0"/>
        <pt x="1183" y="1291" on="0"/>
        <pt x="1006" y="1326" on="0"/>
        <pt x="894" y="1326" on="1"/>
        <pt x="787" y="1326" on="0"/>
        <pt x="613" y="1293" on="0"/>
        <pt x="488" y="1235" on="0"/>
        <pt x="420" y="1157" on="0"/>
        <pt x="420" y="1112" on="1"/>
        <pt x="420" y="406" on="1"/>
        <pt x="420" y="362" on="0"/>
        <pt x="488" y="284" on="0"/>
        <pt x="613" y="226" on="0"/>
        <pt x="787" y="192" on="0"/>
        <pt x="894" y="192" on="1"/>
        <pt x="1006" y="192" on="0"/>
        <pt x="1183" y="227" on="0"/>
        <pt x="1306" y="287" on="0"/>
        <pt x="1372" y="364" on="0"/>
        <pt x="1372" y="406" on="1"/>
      </contour>
      <contour>
        <pt x="946" y="2146" on="1"/>
        <pt x="1122" y="1970" on="1"/>
        <pt x="1087" y="1922" on="0"/>
        <pt x="1045" y="1867" on="1"/>
        <pt x="1009" y="1820" on="0"/>
        <pt x="911" y="1703" on="0"/>
        <pt x="854" y="1640" on="1"/>
        <pt x="714" y="1780" on="1"/>
      </contour>
    </TTGlyph>
    <TTGlyph name="Ocircumflex" xMin="160" yMin="-30" xMax="1632" yMax="2128">
      <contour>
        <pt x="894" y="1548" on="1"/>
        <pt x="995" y="1548" on="0"/>
        <pt x="1183" y="1524" on="0"/>
        <pt x="1347" y="1479" on="0"/>
        <pt x="1482" y="1416" on="0"/>
        <pt x="1579" y="1336" on="0"/>
        <pt x="1632" y="1241" on="0"/>
        <pt x="1632" y="1188" on="1"/>
        <pt x="1632" y="330" on="1"/>
        <pt x="1632" y="277" on="0"/>
        <pt x="1579" y="182" on="0"/>
        <pt x="1482" y="102" on="0"/>
        <pt x="1347" y="39" on="0"/>
        <pt x="1183" y="-6" on="0"/>
        <pt x="995" y="-30" on="0"/>
        <pt x="894" y="-30" on="1"/>
        <pt x="744" y="-30" on="0"/>
        <pt x="477" y="23" on="0"/>
        <pt x="277" y="118" on="0"/>
        <pt x="160" y="250" on="0"/>
        <pt x="160" y="330" on="1"/>
        <pt x="160" y="1188" on="1"/>
        <pt x="160" y="1267" on="0"/>
        <pt x="277" y="1400" on="0"/>
        <pt x="477" y="1495" on="0"/>
        <pt x="744" y="1548" on="0"/>
      </contour>
      <contour>
        <pt x="1372" y="1112" on="1"/>
        <pt x="1372" y="1155" on="0"/>
        <pt x="1306" y="1232" on="0"/>
        <pt x="1183" y="1291" on="0"/>
        <pt x="1006" y="1326" on="0"/>
        <pt x="894" y="1326" on="1"/>
        <pt x="787" y="1326" on="0"/>
        <pt x="613" y="1293" on="0"/>
        <pt x="488" y="1235" on="0"/>
        <pt x="420" y="1157" on="0"/>
        <pt x="420" y="1112" on="1"/>
        <pt x="420" y="406" on="1"/>
        <pt x="420" y="362" on="0"/>
        <pt x="488" y="284" on="0"/>
        <pt x="613" y="226" on="0"/>
        <pt x="787" y="192" on="0"/>
        <pt x="894" y="192" on="1"/>
        <pt x="1006" y="192" on="0"/>
        <pt x="1183" y="227" on="0"/>
        <pt x="1306" y="287" on="0"/>
        <pt x="1372" y="364" on="0"/>
        <pt x="1372" y="406" on="1"/>
      </contour>
      <contour>
        <pt x="1258" y="1822" on="1"/>
        <pt x="1102" y="1668" on="1"/>
        <pt x="894" y="1890" on="1"/>
        <pt x="690" y="1668" on="1"/>
        <pt x="534" y="1824" on="1"/>
        <pt x="894" y="2128" on="1"/>
      </contour>
    </TTGlyph>
    <TTGlyph name="Odieresis" xMin="160" yMin="-30" xMax="1632" yMax="1976">
      <contour>
        <pt x="894" y="1548" on="1"/>
        <pt x="995" y="1548" on="0"/>
        <pt x="1183" y="1524" on="0"/>
        <pt x="1347" y="1479" on="0"/>
        <pt x="1482" y="1416" on="0"/>
        <pt x="1579" y="1336" on="0"/>
        <pt x="1632" y="1241" on="0"/>
        <pt x="1632" y="1188" on="1"/>
        <pt x="1632" y="330" on="1"/>
        <pt x="1632" y="277" on="0"/>
        <pt x="1579" y="182" on="0"/>
        <pt x="1482" y="102" on="0"/>
        <pt x="1347" y="39" on="0"/>
        <pt x="1183" y="-6" on="0"/>
        <pt x="995" y="-30" on="0"/>
        <pt x="894" y="-30" on="1"/>
        <pt x="744" y="-30" on="0"/>
        <pt x="477" y="23" on="0"/>
        <pt x="277" y="118" on="0"/>
        <pt x="160" y="250" on="0"/>
        <pt x="160" y="330" on="1"/>
        <pt x="160" y="1188" on="1"/>
        <pt x="160" y="1267" on="0"/>
        <pt x="277" y="1400" on="0"/>
        <pt x="477" y="1495" on="0"/>
        <pt x="744" y="1548" on="0"/>
      </contour>
      <contour>
        <pt x="1372" y="1112" on="1"/>
        <pt x="1372" y="1155" on="0"/>
        <pt x="1306" y="1232" on="0"/>
        <pt x="1183" y="1291" on="0"/>
        <pt x="1006" y="1326" on="0"/>
        <pt x="894" y="1326" on="1"/>
        <pt x="787" y="1326" on="0"/>
        <pt x="613" y="1293" on="0"/>
        <pt x="488" y="1235" on="0"/>
        <pt x="420" y="1157" on="0"/>
        <pt x="420" y="1112" on="1"/>
        <pt x="420" y="406" on="1"/>
        <pt x="420" y="362" on="0"/>
        <pt x="488" y="284" on="0"/>
        <pt x="613" y="226" on="0"/>
        <pt x="787" y="192" on="0"/>
        <pt x="894" y="192" on="1"/>
        <pt x="1006" y="192" on="0"/>
        <pt x="1183" y="227" on="0"/>
        <pt x="1306" y="287" on="0"/>
        <pt x="1372" y="364" on="0"/>
        <pt x="1372" y="406" on="1"/>
      </contour>
      <contour>
        <pt x="654" y="1976" on="1"/>
        <pt x="726" y="1976" on="0"/>
        <pt x="814" y="1929" on="0"/>
        <pt x="814" y="1876" on="1"/>
        <pt x="814" y="1824" on="1"/>
        <pt x="814" y="1777" on="0"/>
        <pt x="726" y="1734" on="0"/>
        <pt x="654" y="1734" on="1"/>
        <pt x="582" y="1734" on="0"/>
        <pt x="496" y="1777" on="0"/>
        <pt x="496" y="1824" on="1"/>
        <pt x="496" y="1876" on="1"/>
        <pt x="496" y="1929" on="0"/>
        <pt x="582" y="1976" on="0"/>
      </contour>
      <contour>
        <pt x="1136" y="1974" on="1"/>
        <pt x="1210" y="1974" on="0"/>
        <pt x="1296" y="1927" on="0"/>
        <pt x="1296" y="1874" on="1"/>
        <pt x="1296" y="1822" on="1"/>
        <pt x="1296" y="1775" on="0"/>
        <pt x="1210" y="1732" on="0"/>
        <pt x="1136" y="1732" on="1"/>
        <pt x="1065" y="1732" on="0"/>
        <pt x="978" y="1775" on="0"/>
        <pt x="978" y="1822" on="1"/>
        <pt x="978" y="1874" on="1"/>
        <pt x="978" y="1927" on="0"/>
        <pt x="1065" y="1974" on="0"/>
      </contour>
    </TTGlyph>
    <TTGlyph name="Ograve" xMin="160" yMin="-30" xMax="1632" yMax="2146">
      <contour>
        <pt x="894" y="1548" on="1"/>
        <pt x="995" y="1548" on="0"/>
        <pt x="1183" y="1524" on="0"/>
        <pt x="1347" y="1479" on="0"/>
        <pt x="1482" y="1416" on="0"/>
        <pt x="1579" y="1336" on="0"/>
        <pt x="1632" y="1241" on="0"/>
        <pt x="1632" y="1188" on="1"/>
        <pt x="1632" y="330" on="1"/>
        <pt x="1632" y="277" on="0"/>
        <pt x="1579" y="182" on="0"/>
        <pt x="1482" y="102" on="0"/>
        <pt x="1347" y="39" on="0"/>
        <pt x="1183" y="-6" on="0"/>
        <pt x="995" y="-30" on="0"/>
        <pt x="894" y="-30" on="1"/>
        <pt x="744" y="-30" on="0"/>
        <pt x="477" y="23" on="0"/>
        <pt x="277" y="118" on="0"/>
        <pt x="160" y="250" on="0"/>
        <pt x="160" y="330" on="1"/>
        <pt x="160" y="1188" on="1"/>
        <pt x="160" y="1267" on="0"/>
        <pt x="277" y="1400" on="0"/>
        <pt x="477" y="1495" on="0"/>
        <pt x="744" y="1548" on="0"/>
      </contour>
      <contour>
        <pt x="1372" y="1112" on="1"/>
        <pt x="1372" y="1155" on="0"/>
        <pt x="1306" y="1232" on="0"/>
        <pt x="1183" y="1291" on="0"/>
        <pt x="1006" y="1326" on="0"/>
        <pt x="894" y="1326" on="1"/>
        <pt x="787" y="1326" on="0"/>
        <pt x="613" y="1293" on="0"/>
        <pt x="488" y="1235" on="0"/>
        <pt x="420" y="1157" on="0"/>
        <pt x="420" y="1112" on="1"/>
        <pt x="420" y="406" on="1"/>
        <pt x="420" y="362" on="0"/>
        <pt x="488" y="284" on="0"/>
        <pt x="613" y="226" on="0"/>
        <pt x="787" y="192" on="0"/>
        <pt x="894" y="192" on="1"/>
        <pt x="1006" y="192" on="0"/>
        <pt x="1183" y="227" on="0"/>
        <pt x="1306" y="287" on="0"/>
        <pt x="1372" y="364" on="0"/>
        <pt x="1372" y="406" on="1"/>
      </contour>
      <contour>
        <pt x="1066" y="1780" on="1"/>
        <pt x="926" y="1640" on="1"/>
        <pt x="869" y="1703" on="0"/>
        <pt x="771" y="1820" on="0"/>
        <pt x="735" y="1867" on="1"/>
        <pt x="693" y="1922" on="0"/>
        <pt x="658" y="1970" on="1"/>
        <pt x="834" y="2146" on="1"/>
      </contour>
    </TTGlyph>
    <TTGlyph name="Oslash" xMin="236" yMin="-30" xMax="1708" yMax="1548">
      <contour>
        <pt x="970" y="1548" on="1"/>
        <pt x="1071" y="1548" on="0"/>
        <pt x="1259" y="1524" on="0"/>
        <pt x="1423" y="1479" on="0"/>
        <pt x="1558" y="1416" on="0"/>
        <pt x="1655" y="1336" on="0"/>
        <pt x="1708" y="1241" on="0"/>
        <pt x="1708" y="1188" on="1"/>
        <pt x="1708" y="330" on="1"/>
        <pt x="1708" y="277" on="0"/>
        <pt x="1655" y="182" on="0"/>
        <pt x="1558" y="102" on="0"/>
        <pt x="1423" y="39" on="0"/>
        <pt x="1259" y="-6" on="0"/>
        <pt x="1071" y="-30" on="0"/>
        <pt x="970" y="-30" on="1"/>
        <pt x="820" y="-30" on="0"/>
        <pt x="553" y="23" on="0"/>
        <pt x="353" y="118" on="0"/>
        <pt x="236" y="250" on="0"/>
        <pt x="236" y="330" on="1"/>
        <pt x="236" y="1188" on="1"/>
        <pt x="236" y="1267" on="0"/>
        <pt x="353" y="1400" on="0"/>
        <pt x="553" y="1495" on="0"/>
        <pt x="820" y="1548" on="0"/>
      </contour>
      <contour>
        <pt x="1448" y="1112" on="1"/>
        <pt x="1448" y="1154" on="0"/>
        <pt x="1381" y="1234" on="0"/>
        <pt x="1316" y="1264" on="1"/>
        <pt x="822" y="202" on="1"/>
        <pt x="857" y="196" on="0"/>
        <pt x="931" y="192" on="0"/>
        <pt x="970" y="192" on="1"/>
        <pt x="1082" y="192" on="0"/>
        <pt x="1259" y="227" on="0"/>
        <pt x="1382" y="287" on="0"/>
        <pt x="1448" y="364" on="0"/>
        <pt x="1448" y="406" on="1"/>
      </contour>
      <contour>
        <pt x="970" y="1326" on="1"/>
        <pt x="863" y="1326" on="0"/>
        <pt x="689" y="1293" on="0"/>
        <pt x="564" y="1235" on="0"/>
        <pt x="496" y="1157" on="0"/>
        <pt x="496" y="1112" on="1"/>
        <pt x="496" y="406" on="1"/>
        <pt x="496" y="362" on="0"/>
        <pt x="562" y="285" on="0"/>
        <pt x="624" y="256" on="1"/>
        <pt x="1118" y="1316" on="1"/>
        <pt x="1083" y="1321" on="0"/>
        <pt x="1011" y="1326" on="0"/>
      </contour>
    </TTGlyph>
    <TTGlyph name="Otilde" xMin="160" yMin="-30" xMax="1632" yMax="2028">
      <contour>
        <pt x="894" y="1548" on="1"/>
        <pt x="995" y="1548" on="0"/>
        <pt x="1183" y="1524" on="0"/>
        <pt x="1347" y="1479" on="0"/>
        <pt x="1482" y="1416" on="0"/>
        <pt x="1579" y="1336" on="0"/>
        <pt x="1632" y="1241" on="0"/>
        <pt x="1632" y="1188" on="1"/>
        <pt x="1632" y="330" on="1"/>
        <pt x="1632" y="277" on="0"/>
        <pt x="1579" y="182" on="0"/>
        <pt x="1482" y="102" on="0"/>
        <pt x="1347" y="39" on="0"/>
        <pt x="1183" y="-6" on="0"/>
        <pt x="995" y="-30" on="0"/>
        <pt x="894" y="-30" on="1"/>
        <pt x="744" y="-30" on="0"/>
        <pt x="477" y="23" on="0"/>
        <pt x="277" y="118" on="0"/>
        <pt x="160" y="250" on="0"/>
        <pt x="160" y="330" on="1"/>
        <pt x="160" y="1188" on="1"/>
        <pt x="160" y="1267" on="0"/>
        <pt x="277" y="1400" on="0"/>
        <pt x="477" y="1495" on="0"/>
        <pt x="744" y="1548" on="0"/>
      </contour>
      <contour>
        <pt x="1372" y="1112" on="1"/>
        <pt x="1372" y="1155" on="0"/>
        <pt x="1306" y="1232" on="0"/>
        <pt x="1183" y="1291" on="0"/>
        <pt x="1006" y="1326" on="0"/>
        <pt x="894" y="1326" on="1"/>
        <pt x="787" y="1326" on="0"/>
        <pt x="613" y="1293" on="0"/>
        <pt x="488" y="1235" on="0"/>
        <pt x="420" y="1157" on="0"/>
        <pt x="420" y="1112" on="1"/>
        <pt x="420" y="406" on="1"/>
        <pt x="420" y="362" on="0"/>
        <pt x="488" y="284" on="0"/>
        <pt x="613" y="226" on="0"/>
        <pt x="787" y="192" on="0"/>
        <pt x="894" y="192" on="1"/>
        <pt x="1006" y="192" on="0"/>
        <pt x="1183" y="227" on="0"/>
        <pt x="1306" y="287" on="0"/>
        <pt x="1372" y="364" on="0"/>
        <pt x="1372" y="406" on="1"/>
      </contour>
      <contour>
        <pt x="750" y="2028" on="1"/>
        <pt x="797" y="2028" on="0"/>
        <pt x="881" y="1997" on="0"/>
        <pt x="962" y="1959" on="0"/>
        <pt x="1042" y="1928" on="0"/>
        <pt x="1086" y="1928" on="1"/>
        <pt x="1132" y="1928" on="0"/>
        <pt x="1213" y="1949" on="0"/>
        <pt x="1243" y="1963" on="1"/>
        <pt x="1278" y="1978" on="0"/>
        <pt x="1308" y="1998" on="1"/>
        <pt x="1308" y="1780" on="1"/>
        <pt x="1280" y="1762" on="0"/>
        <pt x="1247" y="1749" on="1"/>
        <pt x="1218" y="1737" on="0"/>
        <pt x="1140" y="1718" on="0"/>
        <pt x="1092" y="1718" on="1"/>
        <pt x="1042" y="1718" on="0"/>
        <pt x="963" y="1749" on="0"/>
        <pt x="891" y="1785" on="0"/>
        <pt x="819" y="1816" on="0"/>
        <pt x="778" y="1816" on="1"/>
        <pt x="732" y="1816" on="0"/>
        <pt x="639" y="1790" on="0"/>
        <pt x="601" y="1775" on="1"/>
        <pt x="557" y="1757" on="0"/>
        <pt x="516" y="1734" on="1"/>
        <pt x="516" y="1954" on="1"/>
        <pt x="546" y="1974" on="0"/>
        <pt x="583" y="1991" on="1"/>
        <pt x="615" y="2005" on="0"/>
        <pt x="699" y="2028" on="0"/>
      </contour>
    </TTGlyph>
    <TTGlyph name="P" xMin="170" yMin="2" xMax="1564" yMax="1528">
      <contour>
        <pt x="676" y="1528" on="1"/>
        <pt x="776" y="1528" on="0"/>
        <pt x="985" y="1509" on="0"/>
        <pt x="1183" y="1462" on="0"/>
        <pt x="1357" y="1379" on="0"/>
        <pt x="1488" y="1252" on="0"/>
        <pt x="1564" y="1075" on="0"/>
        <pt x="1564" y="956" on="1"/>
        <pt x="1564" y="835" on="0"/>
        <pt x="1499" y="651" on="0"/>
        <pt x="1382" y="515" on="0"/>
        <pt x="1221" y="424" on="0"/>
        <pt x="1029" y="369" on="0"/>
        <pt x="813" y="346" on="0"/>
        <pt x="700" y="346" on="1"/>
        <pt x="629" y="346" on="0"/>
        <pt x="489" y="354" on="0"/>
        <pt x="418" y="360" on="1"/>
        <pt x="418" y="2" on="1"/>
        <pt x="170" y="2" on="1"/>
        <pt x="170" y="1470" on="1"/>
        <pt x="192" y="1477" on="0"/>
        <pt x="289" y="1497" on="0"/>
        <pt x="422" y="1515" on="0"/>
        <pt x="586" y="1528" on="0"/>
      </contour>
      <contour>
        <pt x="748" y="1308" on="1"/>
        <pt x="682" y="1308" on="0"/>
        <pt x="562" y="1297" on="0"/>
        <pt x="517" y="1290" on="1"/>
        <pt x="463" y="1282" on="0"/>
        <pt x="418" y="1272" on="1"/>
        <pt x="418" y="588" on="1"/>
        <pt x="450" y="581" on="0"/>
        <pt x="489" y="576" on="1"/>
        <pt x="522" y="571" on="0"/>
        <pt x="610" y="564" on="0"/>
        <pt x="660" y="564" on="1"/>
        <pt x="725" y="564" on="0"/>
        <pt x="870" y="571" on="0"/>
        <pt x="1013" y="597" on="0"/>
        <pt x="1142" y="648" on="0"/>
        <pt x="1241" y="733" on="0"/>
        <pt x="1300" y="859" on="0"/>
        <pt x="1300" y="948" on="1"/>
        <pt x="1300" y="1022" on="0"/>
        <pt x="1252" y="1134" on="0"/>
        <pt x="1170" y="1214" on="0"/>
        <pt x="1061" y="1266" on="0"/>
        <pt x="938" y="1296" on="0"/>
        <pt x="809" y="1308" on="0"/>
      </contour>
    </TTGlyph>
    <TTGlyph name="Q" xMin="134" yMin="-338" xMax="1612" yMax="1522">
      <contour>
        <pt x="872" y="1522" on="1"/>
        <pt x="972" y="1522" on="0"/>
        <pt x="1160" y="1498" on="0"/>
        <pt x="1325" y="1453" on="0"/>
        <pt x="1461" y="1390" on="0"/>
        <pt x="1558" y="1310" on="0"/>
        <pt x="1612" y="1215" on="0"/>
        <pt x="1612" y="1162" on="1"/>
        <pt x="1612" y="360" on="1"/>
        <pt x="1612" y="308" on="0"/>
        <pt x="1561" y="216" on="0"/>
        <pt x="1469" y="138" on="0"/>
        <pt x="1341" y="74" on="0"/>
        <pt x="1264" y="52" on="1"/>
        <pt x="1287" y="-23" on="0"/>
        <pt x="1324" y="-171" on="0"/>
        <pt x="1342" y="-248" on="1"/>
        <pt x="1118" y="-338" on="1"/>
        <pt x="1114" y="-296" on="0"/>
        <pt x="1104" y="-242" on="1"/>
        <pt x="1096" y="-196" on="0"/>
        <pt x="1068" y="-68" on="0"/>
        <pt x="1046" y="10" on="1"/>
        <pt x="1004" y="4" on="0"/>
        <pt x="916" y="0" on="0"/>
        <pt x="872" y="0" on="1"/>
        <pt x="771" y="0" on="0"/>
        <pt x="584" y="24" on="0"/>
        <pt x="420" y="69" on="0"/>
        <pt x="285" y="132" on="0"/>
        <pt x="188" y="212" on="0"/>
        <pt x="134" y="307" on="0"/>
        <pt x="134" y="360" on="1"/>
        <pt x="134" y="1162" on="1"/>
        <pt x="134" y="1215" on="0"/>
        <pt x="188" y="1310" on="0"/>
        <pt x="284" y="1390" on="0"/>
        <pt x="420" y="1453" on="0"/>
        <pt x="584" y="1498" on="0"/>
        <pt x="771" y="1522" on="0"/>
      </contour>
      <contour>
        <pt x="1348" y="1084" on="1"/>
        <pt x="1348" y="1127" on="0"/>
        <pt x="1283" y="1205" on="0"/>
        <pt x="1160" y="1265" on="0"/>
        <pt x="984" y="1300" on="0"/>
        <pt x="872" y="1300" on="1"/>
        <pt x="765" y="1300" on="0"/>
        <pt x="590" y="1266" on="0"/>
        <pt x="465" y="1208" on="0"/>
        <pt x="396" y="1129" on="0"/>
        <pt x="396" y="1084" on="1"/>
        <pt x="396" y="436" on="1"/>
        <pt x="396" y="392" on="0"/>
        <pt x="465" y="314" on="0"/>
        <pt x="590" y="256" on="0"/>
        <pt x="765" y="222" on="0"/>
        <pt x="872" y="222" on="1"/>
        <pt x="984" y="222" on="0"/>
        <pt x="1160" y="257" on="0"/>
        <pt x="1283" y="316" on="0"/>
        <pt x="1348" y="393" on="0"/>
        <pt x="1348" y="436" on="1"/>
      </contour>
    </TTGlyph>
    <TTGlyph name="R" xMin="212" yMin="-2" xMax="1606" yMax="1528">
      <contour>
        <pt x="718" y="1528" on="1"/>
        <pt x="818" y="1528" on="0"/>
        <pt x="1027" y="1509" on="0"/>
        <pt x="1225" y="1462" on="0"/>
        <pt x="1399" y="1379" on="0"/>
        <pt x="1530" y="1252" on="0"/>
        <pt x="1606" y="1075" on="0"/>
        <pt x="1606" y="956" on="1"/>
        <pt x="1606" y="792" on="0"/>
        <pt x="1488" y="567" on="0"/>
        <pt x="1386" y="498" on="1"/>
        <pt x="1429" y="432" on="0"/>
        <pt x="1491" y="288" on="0"/>
        <pt x="1530" y="153" on="0"/>
        <pt x="1548" y="37" on="0"/>
        <pt x="1548" y="-2" on="1"/>
        <pt x="1292" y="-2" on="1"/>
        <pt x="1292" y="59" on="0"/>
        <pt x="1272" y="168" on="0"/>
        <pt x="1236" y="267" on="0"/>
        <pt x="1189" y="355" on="0"/>
        <pt x="1162" y="396" on="1"/>
        <pt x="1067" y="369" on="0"/>
        <pt x="855" y="346" on="0"/>
        <pt x="740" y="346" on="1"/>
        <pt x="671" y="346" on="0"/>
        <pt x="529" y="354" on="0"/>
        <pt x="460" y="360" on="1"/>
        <pt x="460" y="2" on="1"/>
        <pt x="212" y="2" on="1"/>
        <pt x="212" y="1470" on="1"/>
        <pt x="234" y="1477" on="0"/>
        <pt x="331" y="1497" on="0"/>
        <pt x="464" y="1515" on="0"/>
        <pt x="628" y="1528" on="0"/>
      </contour>
      <contour>
        <pt x="790" y="1308" on="1"/>
        <pt x="724" y="1308" on="0"/>
        <pt x="604" y="1297" on="0"/>
        <pt x="559" y="1290" on="1"/>
        <pt x="505" y="1282" on="0"/>
        <pt x="460" y="1272" on="1"/>
        <pt x="460" y="588" on="1"/>
        <pt x="492" y="581" on="0"/>
        <pt x="531" y="576" on="1"/>
        <pt x="564" y="571" on="0"/>
        <pt x="652" y="564" on="0"/>
        <pt x="702" y="564" on="1"/>
        <pt x="767" y="564" on="0"/>
        <pt x="912" y="571" on="0"/>
        <pt x="1055" y="597" on="0"/>
        <pt x="1184" y="648" on="0"/>
        <pt x="1283" y="733" on="0"/>
        <pt x="1342" y="859" on="0"/>
        <pt x="1342" y="948" on="1"/>
        <pt x="1342" y="1022" on="0"/>
        <pt x="1294" y="1134" on="0"/>
        <pt x="1212" y="1214" on="0"/>
        <pt x="1103" y="1266" on="0"/>
        <pt x="980" y="1296" on="0"/>
        <pt x="851" y="1308" on="0"/>
      </contour>
    </TTGlyph>
    <TTGlyph name="S" xMin="90" yMin="2" xMax="1568" yMax="1524">
      <contour>
        <pt x="832" y="1524" on="1"/>
        <pt x="968" y="1524" on="0"/>
        <pt x="1223" y="1491" on="0"/>
        <pt x="1426" y="1412" on="0"/>
        <pt x="1557" y="1278" on="0"/>
        <pt x="1568" y="1178" on="1"/>
        <pt x="1308" y="1106" on="1"/>
        <pt x="1308" y="1166" on="0"/>
        <pt x="1227" y="1243" on="0"/>
        <pt x="1094" y="1288" on="0"/>
        <pt x="923" y="1306" on="0"/>
        <pt x="832" y="1306" on="1"/>
        <pt x="743" y="1306" on="0"/>
        <pt x="571" y="1290" on="0"/>
        <pt x="434" y="1246" on="0"/>
        <pt x="350" y="1168" on="0"/>
        <pt x="350" y="1106" on="1"/>
        <pt x="350" y="868" on="1"/>
        <pt x="1568" y="868" on="1"/>
        <pt x="1568" y="350" on="1"/>
        <pt x="1568" y="283" on="0"/>
        <pt x="1509" y="178" on="0"/>
        <pt x="1406" y="101" on="0"/>
        <pt x="1265" y="48" on="0"/>
        <pt x="1102" y="16" on="0"/>
        <pt x="922" y="2" on="0"/>
        <pt x="832" y="2" on="1"/>
        <pt x="740" y="2" on="0"/>
        <pt x="562" y="16" on="0"/>
        <pt x="402" y="48" on="0"/>
        <pt x="265" y="101" on="0"/>
        <pt x="161" y="178" on="0"/>
        <pt x="97" y="282" on="0"/>
        <pt x="90" y="350" on="1"/>
        <pt x="350" y="422" on="1"/>
        <pt x="350" y="360" on="0"/>
        <pt x="434" y="282" on="0"/>
        <pt x="571" y="238" on="0"/>
        <pt x="743" y="222" on="0"/>
        <pt x="832" y="222" on="1"/>
        <pt x="923" y="222" on="0"/>
        <pt x="1094" y="239" on="0"/>
        <pt x="1227" y="284" on="0"/>
        <pt x="1308" y="362" on="0"/>
        <pt x="1308" y="422" on="1"/>
        <pt x="1308" y="666" on="1"/>
        <pt x="90" y="666" on="1"/>
        <pt x="90" y="1178" on="1"/>
        <pt x="90" y="1245" on="0"/>
        <pt x="149" y="1348" on="0"/>
        <pt x="252" y="1425" on="0"/>
        <pt x="394" y="1478" on="0"/>
        <pt x="559" y="1510" on="0"/>
        <pt x="740" y="1524" on="0"/>
      </contour>
    </TTGlyph>
    <TTGlyph name="T" xMin="38" yMin="-2" xMax="1408" yMax="1520">
      <contour>
        <pt x="722" y="1520" on="1"/>
        <pt x="877" y="1520" on="0"/>
        <pt x="1219" y="1498" on="0"/>
        <pt x="1408" y="1466" on="1"/>
        <pt x="1408" y="1212" on="1"/>
        <pt x="1341" y="1231" on="0"/>
        <pt x="1255" y="1248" on="1"/>
        <pt x="1181" y="1262" on="0"/>
        <pt x="973" y="1288" on="0"/>
        <pt x="842" y="1292" on="1"/>
        <pt x="842" y="-2" on="1"/>
        <pt x="604" y="-2" on="1"/>
        <pt x="604" y="1292" on="1"/>
        <pt x="473" y="1288" on="0"/>
        <pt x="265" y="1262" on="0"/>
        <pt x="191" y="1248" on="1"/>
        <pt x="105" y="1231" on="0"/>
        <pt x="38" y="1212" on="1"/>
        <pt x="38" y="1466" on="1"/>
        <pt x="225" y="1498" on="0"/>
        <pt x="571" y="1520" on="0"/>
      </contour>
    </TTGlyph>
    <TTGlyph name="Thorn" xMin="170" yMin="0" xMax="1644" yMax="1506">
      <contour>
        <pt x="592" y="1348" on="1"/>
        <pt x="639" y="1351" on="0"/>
        <pt x="731" y="1356" on="0"/>
        <pt x="778" y="1356" on="1"/>
        <pt x="892" y="1356" on="0"/>
        <pt x="1108" y="1336" on="0"/>
        <pt x="1301" y="1285" on="0"/>
        <pt x="1462" y="1200" on="0"/>
        <pt x="1579" y="1069" on="0"/>
        <pt x="1644" y="887" on="0"/>
        <pt x="1644" y="766" on="1"/>
        <pt x="1644" y="645" on="0"/>
        <pt x="1579" y="463" on="0"/>
        <pt x="1462" y="332" on="0"/>
        <pt x="1301" y="245" on="0"/>
        <pt x="1108" y="194" on="0"/>
        <pt x="891" y="174" on="0"/>
        <pt x="778" y="174" on="1"/>
        <pt x="685" y="174" on="0"/>
        <pt x="592" y="180" on="1"/>
        <pt x="592" y="0" on="1"/>
        <pt x="551" y="2" on="0"/>
        <pt x="462" y="8" on="0"/>
        <pt x="360" y="18" on="0"/>
        <pt x="241" y="34" on="0"/>
        <pt x="170" y="46" on="1"/>
        <pt x="170" y="300" on="1"/>
        <pt x="244" y="276" on="0"/>
        <pt x="354" y="258" on="1"/>
        <pt x="354" y="1268" on="1"/>
        <pt x="301" y="1259" on="0"/>
        <pt x="209" y="1237" on="0"/>
        <pt x="170" y="1226" on="1"/>
        <pt x="170" y="1462" on="1"/>
        <pt x="227" y="1472" on="0"/>
        <pt x="295" y="1481" on="1"/>
        <pt x="353" y="1489" on="0"/>
        <pt x="506" y="1503" on="0"/>
        <pt x="592" y="1506" on="1"/>
      </contour>
      <contour>
        <pt x="740" y="1138" on="1"/>
        <pt x="698" y="1138" on="0"/>
        <pt x="622" y="1133" on="0"/>
        <pt x="592" y="1128" on="1"/>
        <pt x="592" y="402" on="1"/>
        <pt x="624" y="399" on="0"/>
        <pt x="696" y="394" on="0"/>
        <pt x="740" y="394" on="1"/>
        <pt x="805" y="394" on="0"/>
        <pt x="950" y="398" on="0"/>
        <pt x="1093" y="419" on="0"/>
        <pt x="1222" y="465" on="0"/>
        <pt x="1321" y="547" on="0"/>
        <pt x="1380" y="674" on="0"/>
        <pt x="1380" y="766" on="1"/>
        <pt x="1380" y="857" on="0"/>
        <pt x="1321" y="984" on="0"/>
        <pt x="1222" y="1066" on="0"/>
        <pt x="1093" y="1112" on="0"/>
        <pt x="950" y="1134" on="0"/>
        <pt x="805" y="1138" on="0"/>
      </contour>
    </TTGlyph>
    <TTGlyph name="U" xMin="108" yMin="-20" xMax="1894" yMax="1500">
      <contour>
        <pt x="532" y="408" on="1"/>
        <pt x="532" y="364" on="0"/>
        <pt x="599" y="288" on="0"/>
        <pt x="722" y="231" on="0"/>
        <pt x="895" y="198" on="0"/>
        <pt x="1002" y="198" on="1"/>
        <pt x="1111" y="198" on="0"/>
        <pt x="1285" y="233" on="0"/>
        <pt x="1406" y="291" on="0"/>
        <pt x="1470" y="367" on="0"/>
        <pt x="1470" y="408" on="1"/>
        <pt x="1470" y="1500" on="1"/>
        <pt x="1556" y="1496" on="0"/>
        <pt x="1708" y="1481" on="0"/>
        <pt x="1767" y="1473" on="1"/>
        <pt x="1835" y="1464" on="0"/>
        <pt x="1894" y="1454" on="1"/>
        <pt x="1894" y="1198" on="1"/>
        <pt x="1870" y="1206" on="0"/>
        <pt x="1780" y="1229" on="0"/>
        <pt x="1726" y="1238" on="1"/>
        <pt x="1726" y="334" on="1"/>
        <pt x="1726" y="255" on="0"/>
        <pt x="1611" y="125" on="0"/>
        <pt x="1414" y="32" on="0"/>
        <pt x="1150" y="-20" on="0"/>
        <pt x="1002" y="-20" on="1"/>
        <pt x="853" y="-20" on="0"/>
        <pt x="589" y="32" on="0"/>
        <pt x="391" y="125" on="0"/>
        <pt x="276" y="255" on="0"/>
        <pt x="276" y="334" on="1"/>
        <pt x="276" y="1238" on="1"/>
        <pt x="222" y="1227" on="0"/>
        <pt x="131" y="1206" on="0"/>
        <pt x="108" y="1198" on="1"/>
        <pt x="108" y="1454" on="1"/>
        <pt x="165" y="1464" on="0"/>
        <pt x="234" y="1473" on="1"/>
        <pt x="292" y="1481" on="0"/>
        <pt x="446" y="1496" on="0"/>
        <pt x="532" y="1500" on="1"/>
      </contour>
    </TTGlyph>
    <TTGlyph name="Uacute" xMin="142" yMin="-20" xMax="1928" yMax="2146">
      <contour>
        <pt x="566" y="408" on="1"/>
        <pt x="566" y="364" on="0"/>
        <pt x="633" y="288" on="0"/>
        <pt x="756" y="231" on="0"/>
        <pt x="929" y="198" on="0"/>
        <pt x="1036" y="198" on="1"/>
        <pt x="1145" y="198" on="0"/>
        <pt x="1319" y="233" on="0"/>
        <pt x="1440" y="291" on="0"/>
        <pt x="1504" y="367" on="0"/>
        <pt x="1504" y="408" on="1"/>
        <pt x="1504" y="1500" on="1"/>
        <pt x="1590" y="1496" on="0"/>
        <pt x="1742" y="1481" on="0"/>
        <pt x="1801" y="1473" on="1"/>
        <pt x="1869" y="1464" on="0"/>
        <pt x="1928" y="1454" on="1"/>
        <pt x="1928" y="1198" on="1"/>
        <pt x="1904" y="1206" on="0"/>
        <pt x="1814" y="1229" on="0"/>
        <pt x="1760" y="1238" on="1"/>
        <pt x="1760" y="334" on="1"/>
        <pt x="1760" y="255" on="0"/>
        <pt x="1645" y="125" on="0"/>
        <pt x="1448" y="32" on="0"/>
        <pt x="1184" y="-20" on="0"/>
        <pt x="1036" y="-20" on="1"/>
        <pt x="887" y="-20" on="0"/>
        <pt x="623" y="32" on="0"/>
        <pt x="425" y="125" on="0"/>
        <pt x="310" y="255" on="0"/>
        <pt x="310" y="334" on="1"/>
        <pt x="310" y="1238" on="1"/>
        <pt x="256" y="1227" on="0"/>
        <pt x="165" y="1206" on="0"/>
        <pt x="142" y="1198" on="1"/>
        <pt x="142" y="1454" on="1"/>
        <pt x="199" y="1464" on="0"/>
        <pt x="268" y="1473" on="1"/>
        <pt x="326" y="1481" on="0"/>
        <pt x="480" y="1496" on="0"/>
        <pt x="566" y="1500" on="1"/>
      </contour>
      <contour>
        <pt x="1104" y="2146" on="1"/>
        <pt x="1280" y="1970" on="1"/>
        <pt x="1245" y="1922" on="0"/>
        <pt x="1203" y="1867" on="1"/>
        <pt x="1167" y="1820" on="0"/>
        <pt x="1069" y="1703" on="0"/>
        <pt x="1012" y="1640" on="1"/>
        <pt x="872" y="1780" on="1"/>
      </contour>
    </TTGlyph>
    <TTGlyph name="Ucircumflex" xMin="142" yMin="-20" xMax="1928" yMax="2128">
      <contour>
        <pt x="566" y="408" on="1"/>
        <pt x="566" y="364" on="0"/>
        <pt x="633" y="288" on="0"/>
        <pt x="756" y="231" on="0"/>
        <pt x="929" y="198" on="0"/>
        <pt x="1036" y="198" on="1"/>
        <pt x="1145" y="198" on="0"/>
        <pt x="1319" y="233" on="0"/>
        <pt x="1440" y="291" on="0"/>
        <pt x="1504" y="367" on="0"/>
        <pt x="1504" y="408" on="1"/>
        <pt x="1504" y="1500" on="1"/>
        <pt x="1590" y="1496" on="0"/>
        <pt x="1742" y="1481" on="0"/>
        <pt x="1801" y="1473" on="1"/>
        <pt x="1869" y="1464" on="0"/>
        <pt x="1928" y="1454" on="1"/>
        <pt x="1928" y="1198" on="1"/>
        <pt x="1904" y="1206" on="0"/>
        <pt x="1814" y="1229" on="0"/>
        <pt x="1760" y="1238" on="1"/>
        <pt x="1760" y="334" on="1"/>
        <pt x="1760" y="255" on="0"/>
        <pt x="1645" y="125" on="0"/>
        <pt x="1448" y="32" on="0"/>
        <pt x="1184" y="-20" on="0"/>
        <pt x="1036" y="-20" on="1"/>
        <pt x="887" y="-20" on="0"/>
        <pt x="623" y="32" on="0"/>
        <pt x="425" y="125" on="0"/>
        <pt x="310" y="255" on="0"/>
        <pt x="310" y="334" on="1"/>
        <pt x="310" y="1238" on="1"/>
        <pt x="256" y="1227" on="0"/>
        <pt x="165" y="1206" on="0"/>
        <pt x="142" y="1198" on="1"/>
        <pt x="142" y="1454" on="1"/>
        <pt x="199" y="1464" on="0"/>
        <pt x="268" y="1473" on="1"/>
        <pt x="326" y="1481" on="0"/>
        <pt x="480" y="1496" on="0"/>
        <pt x="566" y="1500" on="1"/>
      </contour>
      <contour>
        <pt x="1398" y="1822" on="1"/>
        <pt x="1242" y="1668" on="1"/>
        <pt x="1036" y="1890" on="1"/>
        <pt x="830" y="1668" on="1"/>
        <pt x="674" y="1824" on="1"/>
        <pt x="1036" y="2128" on="1"/>
      </contour>
    </TTGlyph>
    <TTGlyph name="Udieresis" xMin="142" yMin="-20" xMax="1928" yMax="1976">
      <contour>
        <pt x="566" y="408" on="1"/>
        <pt x="566" y="364" on="0"/>
        <pt x="633" y="288" on="0"/>
        <pt x="756" y="231" on="0"/>
        <pt x="929" y="198" on="0"/>
        <pt x="1036" y="198" on="1"/>
        <pt x="1145" y="198" on="0"/>
        <pt x="1319" y="233" on="0"/>
        <pt x="1440" y="291" on="0"/>
        <pt x="1504" y="367" on="0"/>
        <pt x="1504" y="408" on="1"/>
        <pt x="1504" y="1500" on="1"/>
        <pt x="1590" y="1496" on="0"/>
        <pt x="1742" y="1481" on="0"/>
        <pt x="1801" y="1473" on="1"/>
        <pt x="1869" y="1464" on="0"/>
        <pt x="1928" y="1454" on="1"/>
        <pt x="1928" y="1198" on="1"/>
        <pt x="1904" y="1206" on="0"/>
        <pt x="1814" y="1229" on="0"/>
        <pt x="1760" y="1238" on="1"/>
        <pt x="1760" y="334" on="1"/>
        <pt x="1760" y="255" on="0"/>
        <pt x="1645" y="125" on="0"/>
        <pt x="1448" y="32" on="0"/>
        <pt x="1184" y="-20" on="0"/>
        <pt x="1036" y="-20" on="1"/>
        <pt x="887" y="-20" on="0"/>
        <pt x="623" y="32" on="0"/>
        <pt x="425" y="125" on="0"/>
        <pt x="310" y="255" on="0"/>
        <pt x="310" y="334" on="1"/>
        <pt x="310" y="1238" on="1"/>
        <pt x="256" y="1227" on="0"/>
        <pt x="165" y="1206" on="0"/>
        <pt x="142" y="1198" on="1"/>
        <pt x="142" y="1454" on="1"/>
        <pt x="199" y="1464" on="0"/>
        <pt x="268" y="1473" on="1"/>
        <pt x="326" y="1481" on="0"/>
        <pt x="480" y="1496" on="0"/>
        <pt x="566" y="1500" on="1"/>
      </contour>
      <contour>
        <pt x="794" y="1976" on="1"/>
        <pt x="868" y="1976" on="0"/>
        <pt x="954" y="1929" on="0"/>
        <pt x="954" y="1876" on="1"/>
        <pt x="954" y="1824" on="1"/>
        <pt x="954" y="1777" on="0"/>
        <pt x="868" y="1734" on="0"/>
        <pt x="794" y="1734" on="1"/>
        <pt x="723" y="1734" on="0"/>
        <pt x="636" y="1777" on="0"/>
        <pt x="636" y="1824" on="1"/>
        <pt x="636" y="1876" on="1"/>
        <pt x="636" y="1929" on="0"/>
        <pt x="723" y="1976" on="0"/>
      </contour>
      <contour>
        <pt x="1276" y="1974" on="1"/>
        <pt x="1350" y="1974" on="0"/>
        <pt x="1436" y="1927" on="0"/>
        <pt x="1436" y="1874" on="1"/>
        <pt x="1436" y="1822" on="1"/>
        <pt x="1436" y="1775" on="0"/>
        <pt x="1350" y="1732" on="0"/>
        <pt x="1276" y="1732" on="1"/>
        <pt x="1205" y="1732" on="0"/>
        <pt x="1120" y="1775" on="0"/>
        <pt x="1120" y="1822" on="1"/>
        <pt x="1120" y="1874" on="1"/>
        <pt x="1120" y="1927" on="0"/>
        <pt x="1205" y="1974" on="0"/>
      </contour>
    </TTGlyph>
    <TTGlyph name="Ugrave" xMin="142" yMin="-20" xMax="1928" yMax="2146">
      <contour>
        <pt x="566" y="408" on="1"/>
        <pt x="566" y="364" on="0"/>
        <pt x="633" y="288" on="0"/>
        <pt x="756" y="231" on="0"/>
        <pt x="929" y="198" on="0"/>
        <pt x="1036" y="198" on="1"/>
        <pt x="1145" y="198" on="0"/>
        <pt x="1319" y="233" on="0"/>
        <pt x="1440" y="291" on="0"/>
        <pt x="1504" y="367" on="0"/>
        <pt x="1504" y="408" on="1"/>
        <pt x="1504" y="1500" on="1"/>
        <pt x="1590" y="1496" on="0"/>
        <pt x="1742" y="1481" on="0"/>
        <pt x="1801" y="1473" on="1"/>
        <pt x="1869" y="1464" on="0"/>
        <pt x="1928" y="1454" on="1"/>
        <pt x="1928" y="1198" on="1"/>
        <pt x="1904" y="1206" on="0"/>
        <pt x="1814" y="1229" on="0"/>
        <pt x="1760" y="1238" on="1"/>
        <pt x="1760" y="334" on="1"/>
        <pt x="1760" y="255" on="0"/>
        <pt x="1645" y="125" on="0"/>
        <pt x="1448" y="32" on="0"/>
        <pt x="1184" y="-20" on="0"/>
        <pt x="1036" y="-20" on="1"/>
        <pt x="887" y="-20" on="0"/>
        <pt x="623" y="32" on="0"/>
        <pt x="425" y="125" on="0"/>
        <pt x="310" y="255" on="0"/>
        <pt x="310" y="334" on="1"/>
        <pt x="310" y="1238" on="1"/>
        <pt x="256" y="1227" on="0"/>
        <pt x="165" y="1206" on="0"/>
        <pt x="142" y="1198" on="1"/>
        <pt x="142" y="1454" on="1"/>
        <pt x="199" y="1464" on="0"/>
        <pt x="268" y="1473" on="1"/>
        <pt x="326" y="1481" on="0"/>
        <pt x="480" y="1496" on="0"/>
        <pt x="566" y="1500" on="1"/>
      </contour>
      <contour>
        <pt x="1224" y="1780" on="1"/>
        <pt x="1082" y="1640" on="1"/>
        <pt x="1025" y="1703" on="0"/>
        <pt x="927" y="1820" on="0"/>
        <pt x="892" y="1867" on="1"/>
        <pt x="850" y="1922" on="0"/>
        <pt x="816" y="1970" on="1"/>
        <pt x="992" y="2146" on="1"/>
      </contour>
    </TTGlyph>
    <TTGlyph name="V" xMin="94" yMin="-44" xMax="1462" yMax="1514">
      <contour>
        <pt x="474" y="1512" on="1"/>
        <pt x="462" y="1422" on="0"/>
        <pt x="462" y="1324" on="1"/>
        <pt x="462" y="1191" on="0"/>
        <pt x="500" y="911" on="0"/>
        <pt x="578" y="649" on="0"/>
        <pt x="697" y="421" on="0"/>
        <pt x="778" y="342" on="1"/>
        <pt x="861" y="433" on="0"/>
        <pt x="980" y="663" on="0"/>
        <pt x="1056" y="915" on="0"/>
        <pt x="1092" y="1180" on="0"/>
        <pt x="1092" y="1308" on="1"/>
        <pt x="1092" y="1362" on="0"/>
        <pt x="1087" y="1464" on="0"/>
        <pt x="1082" y="1514" on="1"/>
        <pt x="1169" y="1510" on="0"/>
        <pt x="1308" y="1494" on="0"/>
        <pt x="1358" y="1486" on="1"/>
        <pt x="1416" y="1476" on="0"/>
        <pt x="1462" y="1466" on="1"/>
        <pt x="1462" y="1214" on="1"/>
        <pt x="1430" y="1225" on="0"/>
        <pt x="1368" y="1238" on="0"/>
        <pt x="1336" y="1246" on="1"/>
        <pt x="1336" y="1031" on="0"/>
        <pt x="1253" y="664" on="0"/>
        <pt x="1105" y="346" on="0"/>
        <pt x="900" y="74" on="0"/>
        <pt x="778" y="-44" on="1"/>
        <pt x="655" y="74" on="0"/>
        <pt x="452" y="346" on="0"/>
        <pt x="308" y="664" on="0"/>
        <pt x="228" y="1031" on="0"/>
        <pt x="228" y="1246" on="1"/>
        <pt x="192" y="1238" on="0"/>
        <pt x="126" y="1225" on="0"/>
        <pt x="94" y="1214" on="1"/>
        <pt x="94" y="1468" on="1"/>
        <pt x="94" y="1467" on="0"/>
        <pt x="147" y="1477" on="0"/>
        <pt x="246" y="1492" on="0"/>
        <pt x="386" y="1507" on="0"/>
      </contour>
    </TTGlyph>
    <TTGlyph name="W" xMin="64" yMin="-44" xMax="2042" yMax="1516">
      <contour>
        <pt x="444" y="1512" on="1"/>
        <pt x="438" y="1467" on="0"/>
        <pt x="434" y="1374" on="0"/>
        <pt x="434" y="1324" on="1"/>
        <pt x="434" y="1235" on="0"/>
        <pt x="452" y="1050" on="0"/>
        <pt x="488" y="866" on="0"/>
        <pt x="542" y="689" on="0"/>
        <pt x="613" y="529" on="0"/>
        <pt x="702" y="391" on="0"/>
        <pt x="756" y="338" on="1"/>
        <pt x="815" y="399" on="0"/>
        <pt x="888" y="558" on="0"/>
        <pt x="929" y="731" on="0"/>
        <pt x="943" y="907" on="0"/>
        <pt x="944" y="986" on="1"/>
        <pt x="1164" y="986" on="1"/>
        <pt x="1164" y="907" on="0"/>
        <pt x="1178" y="733" on="0"/>
        <pt x="1218" y="562" on="0"/>
        <pt x="1290" y="403" on="0"/>
        <pt x="1348" y="340" on="1"/>
        <pt x="1432" y="431" on="0"/>
        <pt x="1554" y="662" on="0"/>
        <pt x="1634" y="916" on="0"/>
        <pt x="1672" y="1182" on="0"/>
        <pt x="1672" y="1310" on="1"/>
        <pt x="1672" y="1417" on="0"/>
        <pt x="1660" y="1516" on="1"/>
        <pt x="1748" y="1512" on="0"/>
        <pt x="1887" y="1496" on="0"/>
        <pt x="1938" y="1488" on="1"/>
        <pt x="1996" y="1478" on="0"/>
        <pt x="2042" y="1468" on="1"/>
        <pt x="2042" y="1216" on="1"/>
        <pt x="2009" y="1227" on="0"/>
        <pt x="1946" y="1240" on="0"/>
        <pt x="1916" y="1248" on="1"/>
        <pt x="1916" y="1033" on="0"/>
        <pt x="1833" y="666" on="0"/>
        <pt x="1685" y="348" on="0"/>
        <pt x="1479" y="76" on="0"/>
        <pt x="1356" y="-42" on="1"/>
        <pt x="1268" y="43" on="0"/>
        <pt x="1117" y="253" on="0"/>
        <pt x="1054" y="386" on="1"/>
        <pt x="989" y="253" on="0"/>
        <pt x="836" y="41" on="0"/>
        <pt x="748" y="-44" on="1"/>
        <pt x="626" y="74" on="0"/>
        <pt x="424" y="346" on="0"/>
        <pt x="280" y="664" on="0"/>
        <pt x="200" y="1031" on="0"/>
        <pt x="200" y="1246" on="1"/>
        <pt x="164" y="1238" on="0"/>
        <pt x="97" y="1225" on="0"/>
        <pt x="64" y="1214" on="1"/>
        <pt x="64" y="1468" on="1"/>
        <pt x="64" y="1467" on="0"/>
        <pt x="117" y="1477" on="0"/>
        <pt x="216" y="1492" on="0"/>
        <pt x="356" y="1507" on="0"/>
      </contour>
    </TTGlyph>
    <TTGlyph name="X" xMin="92" yMin="-4" xMax="1536" yMax="1512">
      <contour>
        <pt x="814" y="982" on="1"/>
        <pt x="1112" y="1512" on="1"/>
        <pt x="1198" y="1508" on="0"/>
        <pt x="1350" y="1493" on="0"/>
        <pt x="1409" y="1485" on="1"/>
        <pt x="1477" y="1476" on="0"/>
        <pt x="1536" y="1466" on="1"/>
        <pt x="1536" y="1212" on="1"/>
        <pt x="1516" y="1219" on="0"/>
        <pt x="1449" y="1235" on="0"/>
        <pt x="1367" y="1252" on="0"/>
        <pt x="1277" y="1268" on="0"/>
        <pt x="1234" y="1276" on="1"/>
        <pt x="940" y="754" on="1"/>
        <pt x="1234" y="232" on="1"/>
        <pt x="1277" y="239" on="0"/>
        <pt x="1367" y="256" on="0"/>
        <pt x="1449" y="274" on="0"/>
        <pt x="1516" y="290" on="0"/>
        <pt x="1536" y="296" on="1"/>
        <pt x="1536" y="42" on="1"/>
        <pt x="1477" y="32" on="0"/>
        <pt x="1409" y="23" on="1"/>
        <pt x="1350" y="15" on="0"/>
        <pt x="1198" y="0" on="0"/>
        <pt x="1112" y="-4" on="1"/>
        <pt x="814" y="526" on="1"/>
        <pt x="514" y="-4" on="1"/>
        <pt x="428" y="0" on="0"/>
        <pt x="275" y="15" on="0"/>
        <pt x="217" y="23" on="1"/>
        <pt x="149" y="32" on="0"/>
        <pt x="92" y="42" on="1"/>
        <pt x="92" y="296" on="1"/>
        <pt x="110" y="290" on="0"/>
        <pt x="176" y="274" on="0"/>
        <pt x="258" y="256" on="0"/>
        <pt x="349" y="239" on="0"/>
        <pt x="392" y="232" on="1"/>
        <pt x="684" y="754" on="1"/>
        <pt x="392" y="1276" on="1"/>
        <pt x="349" y="1268" on="0"/>
        <pt x="258" y="1252" on="0"/>
        <pt x="176" y="1235" on="0"/>
        <pt x="110" y="1219" on="0"/>
        <pt x="92" y="1212" on="1"/>
        <pt x="92" y="1466" on="1"/>
        <pt x="149" y="1476" on="0"/>
        <pt x="217" y="1485" on="1"/>
        <pt x="275" y="1493" on="0"/>
        <pt x="428" y="1508" on="0"/>
        <pt x="514" y="1512" on="1"/>
      </contour>
    </TTGlyph>
    <TTGlyph name="Y" xMin="142" yMin="-6" xMax="1512" yMax="1508">
      <contour>
        <pt x="554" y="1508" on="1"/>
        <pt x="549" y="1463" on="0"/>
        <pt x="542" y="1361" on="0"/>
        <pt x="542" y="1310" on="1"/>
        <pt x="542" y="1224" on="0"/>
        <pt x="587" y="1093" on="0"/>
        <pt x="665" y="990" on="0"/>
        <pt x="768" y="909" on="0"/>
        <pt x="826" y="874" on="1"/>
        <pt x="884" y="909" on="0"/>
        <pt x="988" y="990" on="0"/>
        <pt x="1067" y="1093" on="0"/>
        <pt x="1114" y="1224" on="0"/>
        <pt x="1114" y="1310" on="1"/>
        <pt x="1114" y="1361" on="0"/>
        <pt x="1106" y="1463" on="0"/>
        <pt x="1100" y="1508" on="1"/>
        <pt x="1182" y="1505" on="0"/>
        <pt x="1331" y="1490" on="0"/>
        <pt x="1388" y="1482" on="1"/>
        <pt x="1455" y="1472" on="0"/>
        <pt x="1512" y="1462" on="1"/>
        <pt x="1512" y="1208" on="1"/>
        <pt x="1498" y="1212" on="0"/>
        <pt x="1452" y="1224" on="0"/>
        <pt x="1402" y="1236" on="0"/>
        <pt x="1355" y="1246" on="0"/>
        <pt x="1340" y="1248" on="1"/>
        <pt x="1339" y="1150" on="0"/>
        <pt x="1291" y="998" on="0"/>
        <pt x="1208" y="878" on="0"/>
        <pt x="1098" y="786" on="0"/>
        <pt x="1036" y="748" on="1"/>
        <pt x="946" y="696" on="1"/>
        <pt x="946" y="222" on="1"/>
        <pt x="1077" y="226" on="0"/>
        <pt x="1285" y="252" on="0"/>
        <pt x="1359" y="266" on="1"/>
        <pt x="1445" y="283" on="0"/>
        <pt x="1512" y="302" on="1"/>
        <pt x="1512" y="48" on="1"/>
        <pt x="1325" y="16" on="0"/>
        <pt x="981" y="-6" on="0"/>
        <pt x="830" y="-6" on="1"/>
        <pt x="676" y="-6" on="0"/>
        <pt x="331" y="16" on="0"/>
        <pt x="142" y="48" on="1"/>
        <pt x="142" y="302" on="1"/>
        <pt x="209" y="283" on="0"/>
        <pt x="295" y="266" on="1"/>
        <pt x="369" y="252" on="0"/>
        <pt x="577" y="226" on="0"/>
        <pt x="708" y="222" on="1"/>
        <pt x="708" y="696" on="1"/>
        <pt x="620" y="748" on="1"/>
        <pt x="557" y="786" on="0"/>
        <pt x="447" y="878" on="0"/>
        <pt x="365" y="998" on="0"/>
        <pt x="317" y="1150" on="0"/>
        <pt x="316" y="1248" on="1"/>
        <pt x="301" y="1246" on="0"/>
        <pt x="254" y="1236" on="0"/>
        <pt x="203" y="1224" on="0"/>
        <pt x="156" y="1212" on="0"/>
        <pt x="142" y="1208" on="1"/>
        <pt x="142" y="1462" on="1"/>
        <pt x="199" y="1472" on="0"/>
        <pt x="266" y="1482" on="1"/>
        <pt x="323" y="1490" on="0"/>
        <pt x="472" y="1505" on="0"/>
      </contour>
    </TTGlyph>
    <TTGlyph name="Yacute" xMin="132" yMin="-6" xMax="1500" yMax="2146">
      <contour>
        <pt x="544" y="1508" on="1"/>
        <pt x="538" y="1463" on="0"/>
        <pt x="530" y="1361" on="0"/>
        <pt x="530" y="1310" on="1"/>
        <pt x="530" y="1224" on="0"/>
        <pt x="576" y="1093" on="0"/>
        <pt x="654" y="990" on="0"/>
        <pt x="758" y="909" on="0"/>
        <pt x="816" y="874" on="1"/>
        <pt x="873" y="909" on="0"/>
        <pt x="977" y="990" on="0"/>
        <pt x="1055" y="1093" on="0"/>
        <pt x="1102" y="1224" on="0"/>
        <pt x="1102" y="1310" on="1"/>
        <pt x="1102" y="1361" on="0"/>
        <pt x="1094" y="1463" on="0"/>
        <pt x="1088" y="1508" on="1"/>
        <pt x="1171" y="1505" on="0"/>
        <pt x="1319" y="1490" on="0"/>
        <pt x="1376" y="1482" on="1"/>
        <pt x="1442" y="1472" on="0"/>
        <pt x="1500" y="1462" on="1"/>
        <pt x="1500" y="1208" on="1"/>
        <pt x="1486" y="1212" on="0"/>
        <pt x="1440" y="1224" on="0"/>
        <pt x="1390" y="1236" on="0"/>
        <pt x="1343" y="1246" on="0"/>
        <pt x="1328" y="1248" on="1"/>
        <pt x="1327" y="1150" on="0"/>
        <pt x="1279" y="998" on="0"/>
        <pt x="1197" y="878" on="0"/>
        <pt x="1087" y="786" on="0"/>
        <pt x="1024" y="748" on="1"/>
        <pt x="934" y="696" on="1"/>
        <pt x="934" y="222" on="1"/>
        <pt x="1065" y="226" on="0"/>
        <pt x="1273" y="252" on="0"/>
        <pt x="1347" y="266" on="1"/>
        <pt x="1433" y="283" on="0"/>
        <pt x="1500" y="302" on="1"/>
        <pt x="1500" y="48" on="1"/>
        <pt x="1313" y="16" on="0"/>
        <pt x="969" y="-6" on="0"/>
        <pt x="818" y="-6" on="1"/>
        <pt x="664" y="-6" on="0"/>
        <pt x="319" y="16" on="0"/>
        <pt x="132" y="48" on="1"/>
        <pt x="132" y="302" on="1"/>
        <pt x="199" y="283" on="0"/>
        <pt x="285" y="266" on="1"/>
        <pt x="359" y="252" on="0"/>
        <pt x="567" y="226" on="0"/>
        <pt x="698" y="222" on="1"/>
        <pt x="698" y="696" on="1"/>
        <pt x="608" y="748" on="1"/>
        <pt x="545" y="786" on="0"/>
        <pt x="435" y="878" on="0"/>
        <pt x="353" y="998" on="0"/>
        <pt x="305" y="1150" on="0"/>
        <pt x="304" y="1248" on="1"/>
        <pt x="289" y="1246" on="0"/>
        <pt x="242" y="1236" on="0"/>
        <pt x="192" y="1224" on="0"/>
        <pt x="146" y="1212" on="0"/>
        <pt x="132" y="1208" on="1"/>
        <pt x="132" y="1462" on="1"/>
        <pt x="188" y="1472" on="0"/>
        <pt x="255" y="1482" on="1"/>
        <pt x="312" y="1490" on="0"/>
        <pt x="461" y="1505" on="0"/>
      </contour>
      <contour>
        <pt x="856" y="2146" on="1"/>
        <pt x="1034" y="1970" on="1"/>
        <pt x="999" y="1922" on="0"/>
        <pt x="957" y="1867" on="1"/>
        <pt x="921" y="1820" on="0"/>
        <pt x="823" y="1703" on="0"/>
        <pt x="766" y="1640" on="1"/>
        <pt x="626" y="1780" on="1"/>
      </contour>
    </TTGlyph>
    <TTGlyph name="Ydieresis" xMin="132" yMin="-6" xMax="1500" yMax="1976">
      <contour>
        <pt x="544" y="1508" on="1"/>
        <pt x="538" y="1463" on="0"/>
        <pt x="530" y="1361" on="0"/>
        <pt x="530" y="1310" on="1"/>
        <pt x="530" y="1224" on="0"/>
        <pt x="576" y="1093" on="0"/>
        <pt x="654" y="990" on="0"/>
        <pt x="758" y="909" on="0"/>
        <pt x="816" y="874" on="1"/>
        <pt x="873" y="909" on="0"/>
        <pt x="977" y="990" on="0"/>
        <pt x="1055" y="1093" on="0"/>
        <pt x="1102" y="1224" on="0"/>
        <pt x="1102" y="1310" on="1"/>
        <pt x="1102" y="1361" on="0"/>
        <pt x="1094" y="1463" on="0"/>
        <pt x="1088" y="1508" on="1"/>
        <pt x="1171" y="1505" on="0"/>
        <pt x="1319" y="1490" on="0"/>
        <pt x="1376" y="1482" on="1"/>
        <pt x="1442" y="1472" on="0"/>
        <pt x="1500" y="1462" on="1"/>
        <pt x="1500" y="1208" on="1"/>
        <pt x="1486" y="1212" on="0"/>
        <pt x="1440" y="1224" on="0"/>
        <pt x="1390" y="1236" on="0"/>
        <pt x="1343" y="1246" on="0"/>
        <pt x="1328" y="1248" on="1"/>
        <pt x="1327" y="1150" on="0"/>
        <pt x="1279" y="998" on="0"/>
        <pt x="1197" y="878" on="0"/>
        <pt x="1087" y="786" on="0"/>
        <pt x="1024" y="748" on="1"/>
        <pt x="934" y="696" on="1"/>
        <pt x="934" y="222" on="1"/>
        <pt x="1065" y="226" on="0"/>
        <pt x="1273" y="252" on="0"/>
        <pt x="1347" y="266" on="1"/>
        <pt x="1433" y="283" on="0"/>
        <pt x="1500" y="302" on="1"/>
        <pt x="1500" y="48" on="1"/>
        <pt x="1313" y="16" on="0"/>
        <pt x="969" y="-6" on="0"/>
        <pt x="818" y="-6" on="1"/>
        <pt x="664" y="-6" on="0"/>
        <pt x="319" y="16" on="0"/>
        <pt x="132" y="48" on="1"/>
        <pt x="132" y="302" on="1"/>
        <pt x="199" y="283" on="0"/>
        <pt x="285" y="266" on="1"/>
        <pt x="359" y="252" on="0"/>
        <pt x="567" y="226" on="0"/>
        <pt x="698" y="222" on="1"/>
        <pt x="698" y="696" on="1"/>
        <pt x="608" y="748" on="1"/>
        <pt x="545" y="786" on="0"/>
        <pt x="435" y="878" on="0"/>
        <pt x="353" y="998" on="0"/>
        <pt x="305" y="1150" on="0"/>
        <pt x="304" y="1248" on="1"/>
        <pt x="289" y="1246" on="0"/>
        <pt x="242" y="1236" on="0"/>
        <pt x="192" y="1224" on="0"/>
        <pt x="146" y="1212" on="0"/>
        <pt x="132" y="1208" on="1"/>
        <pt x="132" y="1462" on="1"/>
        <pt x="188" y="1472" on="0"/>
        <pt x="255" y="1482" on="1"/>
        <pt x="312" y="1490" on="0"/>
        <pt x="461" y="1505" on="0"/>
      </contour>
      <contour>
        <pt x="550" y="1976" on="1"/>
        <pt x="622" y="1976" on="0"/>
        <pt x="708" y="1929" on="0"/>
        <pt x="708" y="1876" on="1"/>
        <pt x="708" y="1824" on="1"/>
        <pt x="708" y="1777" on="0"/>
        <pt x="622" y="1734" on="0"/>
        <pt x="550" y="1734" on="1"/>
        <pt x="478" y="1734" on="0"/>
        <pt x="392" y="1777" on="0"/>
        <pt x="392" y="1824" on="1"/>
        <pt x="392" y="1876" on="1"/>
        <pt x="392" y="1929" on="0"/>
        <pt x="478" y="1976" on="0"/>
      </contour>
      <contour>
        <pt x="1032" y="1974" on="1"/>
        <pt x="1104" y="1974" on="0"/>
        <pt x="1192" y="1927" on="0"/>
        <pt x="1192" y="1874" on="1"/>
        <pt x="1192" y="1822" on="1"/>
        <pt x="1192" y="1775" on="0"/>
        <pt x="1104" y="1732" on="0"/>
        <pt x="1032" y="1732" on="1"/>
        <pt x="960" y="1732" on="0"/>
        <pt x="874" y="1775" on="0"/>
        <pt x="874" y="1822" on="1"/>
        <pt x="874" y="1874" on="1"/>
        <pt x="874" y="1927" on="0"/>
        <pt x="960" y="1974" on="0"/>
      </contour>
    </TTGlyph>
    <TTGlyph name="Z" xMin="76" yMin="0" xMax="1540" yMax="1522">
      <contour>
        <pt x="806" y="1522" on="1"/>
        <pt x="960" y="1522" on="0"/>
        <pt x="1305" y="1500" on="0"/>
        <pt x="1494" y="1468" on="1"/>
        <pt x="1494" y="1214" on="1"/>
        <pt x="1445" y="1139" on="0"/>
        <pt x="1311" y="974" on="0"/>
        <pt x="1153" y="803" on="0"/>
        <pt x="975" y="629" on="0"/>
        <pt x="785" y="462" on="0"/>
        <pt x="590" y="307" on="0"/>
        <pt x="494" y="240" on="1"/>
        <pt x="581" y="231" on="0"/>
        <pt x="690" y="228" on="1"/>
        <pt x="719" y="226" on="0"/>
        <pt x="778" y="226" on="0"/>
        <pt x="808" y="226" on="1"/>
        <pt x="838" y="226" on="0"/>
        <pt x="896" y="226" on="0"/>
        <pt x="928" y="228" on="1"/>
        <pt x="1038" y="231" on="0"/>
        <pt x="1215" y="250" on="0"/>
        <pt x="1284" y="262" on="1"/>
        <pt x="1293" y="312" on="0"/>
        <pt x="1307" y="431" on="0"/>
        <pt x="1312" y="502" on="1"/>
        <pt x="1540" y="502" on="1"/>
        <pt x="1535" y="395" on="0"/>
        <pt x="1514" y="172" on="0"/>
        <pt x="1494" y="54" on="1"/>
        <pt x="1305" y="22" on="0"/>
        <pt x="961" y="0" on="0"/>
        <pt x="812" y="0" on="1"/>
        <pt x="657" y="0" on="0"/>
        <pt x="311" y="22" on="0"/>
        <pt x="124" y="54" on="1"/>
        <pt x="124" y="308" on="1"/>
        <pt x="269" y="391" on="0"/>
        <pt x="564" y="606" on="0"/>
        <pt x="846" y="854" on="0"/>
        <pt x="1109" y="1129" on="0"/>
        <pt x="1222" y="1272" on="1"/>
        <pt x="1191" y="1276" on="0"/>
        <pt x="1120" y="1284" on="0"/>
        <pt x="1024" y="1291" on="0"/>
        <pt x="897" y="1296" on="0"/>
        <pt x="812" y="1296" on="1"/>
        <pt x="713" y="1296" on="0"/>
        <pt x="569" y="1290" on="0"/>
        <pt x="459" y="1280" on="0"/>
        <pt x="372" y="1267" on="0"/>
        <pt x="330" y="1260" on="1"/>
        <pt x="322" y="1210" on="0"/>
        <pt x="309" y="1089" on="0"/>
        <pt x="304" y="1020" on="1"/>
        <pt x="76" y="1020" on="1"/>
        <pt x="82" y="1126" on="0"/>
        <pt x="103" y="1349" on="0"/>
        <pt x="124" y="1468" on="1"/>
        <pt x="311" y="1500" on="0"/>
        <pt x="655" y="1522" on="0"/>
      </contour>
    </TTGlyph>
    <TTGlyph name="a" xMin="162" yMin="0" xMax="1542" yMax="1140">
      <contour>
        <pt x="1300" y="408" on="1"/>
        <pt x="1275" y="430" on="0"/>
        <pt x="1201" y="472" on="0"/>
        <pt x="1093" y="505" on="0"/>
        <pt x="944" y="526" on="0"/>
        <pt x="844" y="526" on="1"/>
        <pt x="755" y="526" on="0"/>
        <pt x="596" y="519" on="0"/>
        <pt x="476" y="486" on="0"/>
        <pt x="406" y="414" on="0"/>
        <pt x="406" y="350" on="1"/>
        <pt x="406" y="222" on="1"/>
        <pt x="494" y="208" on="0"/>
        <pt x="706" y="190" on="0"/>
        <pt x="836" y="190" on="1"/>
        <pt x="940" y="190" on="0"/>
        <pt x="1175" y="205" on="0"/>
        <pt x="1300" y="228" on="1"/>
      </contour>
      <contour>
        <pt x="850" y="1140" on="1"/>
        <pt x="900" y="1140" on="0"/>
        <pt x="1042" y="1130" on="0"/>
        <pt x="1196" y="1105" on="0"/>
        <pt x="1347" y="1062" on="0"/>
        <pt x="1468" y="993" on="0"/>
        <pt x="1542" y="897" on="0"/>
        <pt x="1542" y="832" on="1"/>
        <pt x="1542" y="58" on="1"/>
        <pt x="1458" y="41" on="0"/>
        <pt x="1352" y="29" on="1"/>
        <pt x="1261" y="18" on="0"/>
        <pt x="1009" y="0" on="0"/>
        <pt x="854" y="0" on="1"/>
        <pt x="700" y="0" on="0"/>
        <pt x="353" y="26" on="0"/>
        <pt x="164" y="58" on="1"/>
        <pt x="164" y="418" on="1"/>
        <pt x="164" y="476" on="0"/>
        <pt x="219" y="563" on="0"/>
        <pt x="315" y="625" on="0"/>
        <pt x="445" y="665" on="0"/>
        <pt x="595" y="689" on="0"/>
        <pt x="757" y="698" on="0"/>
        <pt x="838" y="698" on="1"/>
        <pt x="961" y="698" on="0"/>
        <pt x="1134" y="667" on="0"/>
        <pt x="1191" y="649" on="1"/>
        <pt x="1257" y="627" on="0"/>
        <pt x="1300" y="600" on="1"/>
        <pt x="1300" y="762" on="1"/>
        <pt x="1300" y="803" on="0"/>
        <pt x="1260" y="862" on="0"/>
        <pt x="1192" y="903" on="0"/>
        <pt x="1104" y="928" on="0"/>
        <pt x="1008" y="942" on="0"/>
        <pt x="909" y="946" on="0"/>
        <pt x="866" y="946" on="1"/>
        <pt x="821" y="946" on="0"/>
        <pt x="719" y="941" on="0"/>
        <pt x="618" y="927" on="0"/>
        <pt x="525" y="902" on="0"/>
        <pt x="453" y="860" on="0"/>
        <pt x="410" y="801" on="0"/>
        <pt x="410" y="760" on="1"/>
        <pt x="162" y="824" on="1"/>
        <pt x="162" y="891" on="0"/>
        <pt x="228" y="990" on="0"/>
        <pt x="337" y="1060" on="0"/>
        <pt x="479" y="1105" on="0"/>
        <pt x="632" y="1130" on="0"/>
        <pt x="784" y="1140" on="0"/>
      </contour>
    </TTGlyph>
    <TTGlyph name="aacute" xMin="148" yMin="0" xMax="1530" yMax="1766">
      <contour>
        <pt x="1286" y="408" on="1"/>
        <pt x="1262" y="430" on="0"/>
        <pt x="1188" y="472" on="0"/>
        <pt x="1079" y="505" on="0"/>
        <pt x="930" y="526" on="0"/>
        <pt x="830" y="526" on="1"/>
        <pt x="741" y="526" on="0"/>
        <pt x="583" y="519" on="0"/>
        <pt x="464" y="486" on="0"/>
        <pt x="394" y="414" on="0"/>
        <pt x="394" y="350" on="1"/>
        <pt x="394" y="222" on="1"/>
        <pt x="482" y="208" on="0"/>
        <pt x="694" y="190" on="0"/>
        <pt x="822" y="190" on="1"/>
        <pt x="928" y="190" on="0"/>
        <pt x="1161" y="205" on="0"/>
        <pt x="1286" y="228" on="1"/>
      </contour>
      <contour>
        <pt x="836" y="1140" on="1"/>
        <pt x="887" y="1140" on="0"/>
        <pt x="1029" y="1130" on="0"/>
        <pt x="1184" y="1105" on="0"/>
        <pt x="1335" y="1062" on="0"/>
        <pt x="1456" y="993" on="0"/>
        <pt x="1530" y="897" on="0"/>
        <pt x="1530" y="832" on="1"/>
        <pt x="1530" y="58" on="1"/>
        <pt x="1445" y="41" on="0"/>
        <pt x="1339" y="29" on="1"/>
        <pt x="1248" y="18" on="0"/>
        <pt x="995" y="0" on="0"/>
        <pt x="840" y="0" on="1"/>
        <pt x="686" y="0" on="0"/>
        <pt x="339" y="26" on="0"/>
        <pt x="150" y="58" on="1"/>
        <pt x="150" y="418" on="1"/>
        <pt x="150" y="476" on="0"/>
        <pt x="205" y="563" on="0"/>
        <pt x="302" y="625" on="0"/>
        <pt x="432" y="665" on="0"/>
        <pt x="582" y="689" on="0"/>
        <pt x="744" y="698" on="0"/>
        <pt x="824" y="698" on="1"/>
        <pt x="948" y="698" on="0"/>
        <pt x="1121" y="667" on="0"/>
        <pt x="1178" y="649" on="1"/>
        <pt x="1243" y="627" on="0"/>
        <pt x="1286" y="600" on="1"/>
        <pt x="1286" y="762" on="1"/>
        <pt x="1286" y="803" on="0"/>
        <pt x="1246" y="862" on="0"/>
        <pt x="1179" y="903" on="0"/>
        <pt x="1090" y="928" on="0"/>
        <pt x="994" y="942" on="0"/>
        <pt x="897" y="946" on="0"/>
        <pt x="854" y="946" on="1"/>
        <pt x="809" y="946" on="0"/>
        <pt x="706" y="941" on="0"/>
        <pt x="605" y="927" on="0"/>
        <pt x="512" y="902" on="0"/>
        <pt x="441" y="860" on="0"/>
        <pt x="398" y="801" on="0"/>
        <pt x="398" y="760" on="1"/>
        <pt x="148" y="824" on="1"/>
        <pt x="148" y="891" on="0"/>
        <pt x="214" y="990" on="0"/>
        <pt x="323" y="1060" on="0"/>
        <pt x="465" y="1105" on="0"/>
        <pt x="618" y="1130" on="0"/>
        <pt x="770" y="1140" on="0"/>
      </contour>
      <contour>
        <pt x="866" y="1766" on="1"/>
        <pt x="1044" y="1588" on="1"/>
        <pt x="1009" y="1540" on="0"/>
        <pt x="967" y="1485" on="1"/>
        <pt x="931" y="1438" on="0"/>
        <pt x="833" y="1321" on="0"/>
        <pt x="776" y="1258" on="1"/>
        <pt x="634" y="1398" on="1"/>
      </contour>
    </TTGlyph>
    <TTGlyph name="acircumflex" xMin="148" yMin="0" xMax="1530" yMax="1746">
      <contour>
        <pt x="1286" y="408" on="1"/>
        <pt x="1262" y="430" on="0"/>
        <pt x="1188" y="472" on="0"/>
        <pt x="1079" y="505" on="0"/>
        <pt x="930" y="526" on="0"/>
        <pt x="830" y="526" on="1"/>
        <pt x="741" y="526" on="0"/>
        <pt x="583" y="519" on="0"/>
        <pt x="464" y="486" on="0"/>
        <pt x="394" y="414" on="0"/>
        <pt x="394" y="350" on="1"/>
        <pt x="394" y="222" on="1"/>
        <pt x="482" y="208" on="0"/>
        <pt x="694" y="190" on="0"/>
        <pt x="822" y="190" on="1"/>
        <pt x="928" y="190" on="0"/>
        <pt x="1161" y="205" on="0"/>
        <pt x="1286" y="228" on="1"/>
      </contour>
      <contour>
        <pt x="836" y="1140" on="1"/>
        <pt x="887" y="1140" on="0"/>
        <pt x="1029" y="1130" on="0"/>
        <pt x="1184" y="1105" on="0"/>
        <pt x="1335" y="1062" on="0"/>
        <pt x="1456" y="993" on="0"/>
        <pt x="1530" y="897" on="0"/>
        <pt x="1530" y="832" on="1"/>
        <pt x="1530" y="58" on="1"/>
        <pt x="1445" y="41" on="0"/>
        <pt x="1339" y="29" on="1"/>
        <pt x="1248" y="18" on="0"/>
        <pt x="995" y="0" on="0"/>
        <pt x="840" y="0" on="1"/>
        <pt x="686" y="0" on="0"/>
        <pt x="339" y="26" on="0"/>
        <pt x="150" y="58" on="1"/>
        <pt x="150" y="418" on="1"/>
        <pt x="150" y="476" on="0"/>
        <pt x="205" y="563" on="0"/>
        <pt x="302" y="625" on="0"/>
        <pt x="432" y="665" on="0"/>
        <pt x="582" y="689" on="0"/>
        <pt x="744" y="698" on="0"/>
        <pt x="824" y="698" on="1"/>
        <pt x="948" y="698" on="0"/>
        <pt x="1121" y="667" on="0"/>
        <pt x="1178" y="649" on="1"/>
        <pt x="1243" y="627" on="0"/>
        <pt x="1286" y="600" on="1"/>
        <pt x="1286" y="762" on="1"/>
        <pt x="1286" y="803" on="0"/>
        <pt x="1246" y="862" on="0"/>
        <pt x="1179" y="903" on="0"/>
        <pt x="1090" y="928" on="0"/>
        <pt x="994" y="942" on="0"/>
        <pt x="897" y="946" on="0"/>
        <pt x="854" y="946" on="1"/>
        <pt x="809" y="946" on="0"/>
        <pt x="706" y="941" on="0"/>
        <pt x="605" y="927" on="0"/>
        <pt x="512" y="902" on="0"/>
        <pt x="441" y="860" on="0"/>
        <pt x="398" y="801" on="0"/>
        <pt x="398" y="760" on="1"/>
        <pt x="148" y="824" on="1"/>
        <pt x="148" y="891" on="0"/>
        <pt x="214" y="990" on="0"/>
        <pt x="323" y="1060" on="0"/>
        <pt x="465" y="1105" on="0"/>
        <pt x="618" y="1130" on="0"/>
        <pt x="770" y="1140" on="0"/>
      </contour>
      <contour>
        <pt x="1200" y="1440" on="1"/>
        <pt x="1044" y="1286" on="1"/>
        <pt x="838" y="1508" on="1"/>
        <pt x="632" y="1286" on="1"/>
        <pt x="476" y="1442" on="1"/>
        <pt x="838" y="1746" on="1"/>
      </contour>
    </TTGlyph>
    <TTGlyph name="acute" xMin="588" yMin="1258" xMax="996" yMax="1766">
      <contour>
        <pt x="818" y="1766" on="1"/>
        <pt x="996" y="1588" on="1"/>
        <pt x="961" y="1540" on="0"/>
        <pt x="919" y="1485" on="1"/>
        <pt x="883" y="1438" on="0"/>
        <pt x="785" y="1321" on="0"/>
        <pt x="728" y="1258" on="1"/>
        <pt x="588" y="1398" on="1"/>
      </contour>
    </TTGlyph>
    <TTGlyph name="adieresis" xMin="148" yMin="0" xMax="1530" yMax="1594">
      <contour>
        <pt x="1286" y="408" on="1"/>
        <pt x="1262" y="430" on="0"/>
        <pt x="1188" y="472" on="0"/>
        <pt x="1079" y="505" on="0"/>
        <pt x="930" y="526" on="0"/>
        <pt x="830" y="526" on="1"/>
        <pt x="741" y="526" on="0"/>
        <pt x="583" y="519" on="0"/>
        <pt x="464" y="486" on="0"/>
        <pt x="394" y="414" on="0"/>
        <pt x="394" y="350" on="1"/>
        <pt x="394" y="222" on="1"/>
        <pt x="482" y="208" on="0"/>
        <pt x="694" y="190" on="0"/>
        <pt x="822" y="190" on="1"/>
        <pt x="928" y="190" on="0"/>
        <pt x="1161" y="205" on="0"/>
        <pt x="1286" y="228" on="1"/>
      </contour>
      <contour>
        <pt x="836" y="1140" on="1"/>
        <pt x="887" y="1140" on="0"/>
        <pt x="1029" y="1130" on="0"/>
        <pt x="1184" y="1105" on="0"/>
        <pt x="1335" y="1062" on="0"/>
        <pt x="1456" y="993" on="0"/>
        <pt x="1530" y="897" on="0"/>
        <pt x="1530" y="832" on="1"/>
        <pt x="1530" y="58" on="1"/>
        <pt x="1445" y="41" on="0"/>
        <pt x="1339" y="29" on="1"/>
        <pt x="1248" y="18" on="0"/>
        <pt x="995" y="0" on="0"/>
        <pt x="840" y="0" on="1"/>
        <pt x="686" y="0" on="0"/>
        <pt x="339" y="26" on="0"/>
        <pt x="150" y="58" on="1"/>
        <pt x="150" y="418" on="1"/>
        <pt x="150" y="476" on="0"/>
        <pt x="205" y="563" on="0"/>
        <pt x="302" y="625" on="0"/>
        <pt x="432" y="665" on="0"/>
        <pt x="582" y="689" on="0"/>
        <pt x="744" y="698" on="0"/>
        <pt x="824" y="698" on="1"/>
        <pt x="948" y="698" on="0"/>
        <pt x="1121" y="667" on="0"/>
        <pt x="1178" y="649" on="1"/>
        <pt x="1243" y="627" on="0"/>
        <pt x="1286" y="600" on="1"/>
        <pt x="1286" y="762" on="1"/>
        <pt x="1286" y="803" on="0"/>
        <pt x="1246" y="862" on="0"/>
        <pt x="1179" y="903" on="0"/>
        <pt x="1090" y="928" on="0"/>
        <pt x="994" y="942" on="0"/>
        <pt x="897" y="946" on="0"/>
        <pt x="854" y="946" on="1"/>
        <pt x="809" y="946" on="0"/>
        <pt x="706" y="941" on="0"/>
        <pt x="605" y="927" on="0"/>
        <pt x="512" y="902" on="0"/>
        <pt x="441" y="860" on="0"/>
        <pt x="398" y="801" on="0"/>
        <pt x="398" y="760" on="1"/>
        <pt x="148" y="824" on="1"/>
        <pt x="148" y="891" on="0"/>
        <pt x="214" y="990" on="0"/>
        <pt x="323" y="1060" on="0"/>
        <pt x="465" y="1105" on="0"/>
        <pt x="618" y="1130" on="0"/>
        <pt x="770" y="1140" on="0"/>
      </contour>
      <contour>
        <pt x="596" y="1594" on="1"/>
        <pt x="670" y="1594" on="0"/>
        <pt x="756" y="1547" on="0"/>
        <pt x="756" y="1494" on="1"/>
        <pt x="756" y="1442" on="1"/>
        <pt x="756" y="1395" on="0"/>
        <pt x="670" y="1352" on="0"/>
        <pt x="596" y="1352" on="1"/>
        <pt x="525" y="1352" on="0"/>
        <pt x="438" y="1395" on="0"/>
        <pt x="438" y="1442" on="1"/>
        <pt x="438" y="1494" on="1"/>
        <pt x="438" y="1547" on="0"/>
        <pt x="525" y="1594" on="0"/>
      </contour>
      <contour>
        <pt x="1080" y="1592" on="1"/>
        <pt x="1152" y="1592" on="0"/>
        <pt x="1238" y="1545" on="0"/>
        <pt x="1238" y="1492" on="1"/>
        <pt x="1238" y="1440" on="1"/>
        <pt x="1238" y="1393" on="0"/>
        <pt x="1152" y="1350" on="0"/>
        <pt x="1080" y="1350" on="1"/>
        <pt x="1008" y="1350" on="0"/>
        <pt x="922" y="1393" on="0"/>
        <pt x="922" y="1440" on="1"/>
        <pt x="922" y="1492" on="1"/>
        <pt x="922" y="1545" on="0"/>
        <pt x="1008" y="1592" on="0"/>
      </contour>
    </TTGlyph>
    <TTGlyph name="ae" xMin="132" yMin="0" xMax="1834" yMax="1140">
      <contour>
        <pt x="1132" y="1140" on="1"/>
        <pt x="1183" y="1140" on="0"/>
        <pt x="1328" y="1136" on="0"/>
        <pt x="1484" y="1119" on="0"/>
        <pt x="1637" y="1084" on="0"/>
        <pt x="1759" y="1022" on="0"/>
        <pt x="1834" y="929" on="0"/>
        <pt x="1834" y="862" on="1"/>
        <pt x="1834" y="504" on="1"/>
        <pt x="1796" y="505" on="0"/>
        <pt x="1640" y="506" on="0"/>
        <pt x="1438" y="506" on="0"/>
        <pt x="1207" y="506" on="0"/>
        <pt x="1094" y="506" on="1"/>
        <pt x="1094" y="190" on="1"/>
        <pt x="1251" y="190" on="0"/>
        <pt x="1520" y="220" on="0"/>
        <pt x="1620" y="238" on="1"/>
        <pt x="1737" y="259" on="0"/>
        <pt x="1834" y="286" on="1"/>
        <pt x="1834" y="56" on="1"/>
        <pt x="1739" y="41" on="0"/>
        <pt x="1542" y="20" on="0"/>
        <pt x="1350" y="6" on="0"/>
        <pt x="1171" y="0" on="0"/>
        <pt x="1094" y="0" on="1"/>
        <pt x="876" y="0" on="1"/>
        <pt x="799" y="0" on="0"/>
        <pt x="619" y="6" on="0"/>
        <pt x="427" y="20" on="0"/>
        <pt x="228" y="42" on="0"/>
        <pt x="134" y="58" on="1"/>
        <pt x="134" y="392" on="1"/>
        <pt x="134" y="448" on="0"/>
        <pt x="188" y="532" on="0"/>
        <pt x="283" y="594" on="0"/>
        <pt x="413" y="634" on="0"/>
        <pt x="565" y="658" on="0"/>
        <pt x="731" y="668" on="0"/>
        <pt x="816" y="668" on="1"/>
        <pt x="876" y="668" on="1"/>
        <pt x="876" y="964" on="1"/>
        <pt x="826" y="963" on="0"/>
        <pt x="714" y="954" on="0"/>
        <pt x="604" y="935" on="0"/>
        <pt x="504" y="905" on="0"/>
        <pt x="427" y="860" on="0"/>
        <pt x="382" y="799" on="0"/>
        <pt x="382" y="760" on="1"/>
        <pt x="132" y="824" on="1"/>
        <pt x="132" y="891" on="0"/>
        <pt x="200" y="990" on="0"/>
        <pt x="313" y="1060" on="0"/>
        <pt x="460" y="1105" on="0"/>
        <pt x="617" y="1130" on="0"/>
        <pt x="772" y="1140" on="0"/>
        <pt x="838" y="1140" on="1"/>
      </contour>
      <contour>
        <pt x="378" y="222" on="1"/>
        <pt x="421" y="215" on="0"/>
        <pt x="540" y="204" on="0"/>
        <pt x="672" y="195" on="0"/>
        <pt x="811" y="190" on="0"/>
        <pt x="876" y="190" on="1"/>
        <pt x="876" y="506" on="1"/>
        <pt x="834" y="506" on="1"/>
        <pt x="729" y="506" on="0"/>
        <pt x="560" y="493" on="0"/>
        <pt x="442" y="454" on="0"/>
        <pt x="378" y="381" on="0"/>
        <pt x="378" y="322" on="1"/>
      </contour>
      <contour>
        <pt x="1596" y="800" on="1"/>
        <pt x="1596" y="853" on="0"/>
        <pt x="1507" y="917" on="0"/>
        <pt x="1364" y="951" on="0"/>
        <pt x="1185" y="962" on="0"/>
        <pt x="1094" y="964" on="1"/>
        <pt x="1094" y="668" on="1"/>
        <pt x="1596" y="668" on="1"/>
      </contour>
    </TTGlyph>
    <TTGlyph name="agrave" xMin="148" yMin="0" xMax="1530" yMax="1766">
      <contour>
        <pt x="1286" y="408" on="1"/>
        <pt x="1262" y="430" on="0"/>
        <pt x="1188" y="472" on="0"/>
        <pt x="1079" y="505" on="0"/>
        <pt x="930" y="526" on="0"/>
        <pt x="830" y="526" on="1"/>
        <pt x="741" y="526" on="0"/>
        <pt x="583" y="519" on="0"/>
        <pt x="464" y="486" on="0"/>
        <pt x="394" y="414" on="0"/>
        <pt x="394" y="350" on="1"/>
        <pt x="394" y="222" on="1"/>
        <pt x="482" y="208" on="0"/>
        <pt x="694" y="190" on="0"/>
        <pt x="822" y="190" on="1"/>
        <pt x="928" y="190" on="0"/>
        <pt x="1161" y="205" on="0"/>
        <pt x="1286" y="228" on="1"/>
      </contour>
      <contour>
        <pt x="836" y="1140" on="1"/>
        <pt x="887" y="1140" on="0"/>
        <pt x="1029" y="1130" on="0"/>
        <pt x="1184" y="1105" on="0"/>
        <pt x="1335" y="1062" on="0"/>
        <pt x="1456" y="993" on="0"/>
        <pt x="1530" y="897" on="0"/>
        <pt x="1530" y="832" on="1"/>
        <pt x="1530" y="58" on="1"/>
        <pt x="1445" y="41" on="0"/>
        <pt x="1339" y="29" on="1"/>
        <pt x="1248" y="18" on="0"/>
        <pt x="995" y="0" on="0"/>
        <pt x="840" y="0" on="1"/>
        <pt x="686" y="0" on="0"/>
        <pt x="339" y="26" on="0"/>
        <pt x="150" y="58" on="1"/>
        <pt x="150" y="418" on="1"/>
        <pt x="150" y="476" on="0"/>
        <pt x="205" y="563" on="0"/>
        <pt x="302" y="625" on="0"/>
        <pt x="432" y="665" on="0"/>
        <pt x="582" y="689" on="0"/>
        <pt x="744" y="698" on="0"/>
        <pt x="824" y="698" on="1"/>
        <pt x="948" y="698" on="0"/>
        <pt x="1121" y="667" on="0"/>
        <pt x="1178" y="649" on="1"/>
        <pt x="1243" y="627" on="0"/>
        <pt x="1286" y="600" on="1"/>
        <pt x="1286" y="762" on="1"/>
        <pt x="1286" y="803" on="0"/>
        <pt x="1246" y="862" on="0"/>
        <pt x="1179" y="903" on="0"/>
        <pt x="1090" y="928" on="0"/>
        <pt x="994" y="942" on="0"/>
        <pt x="897" y="946" on="0"/>
        <pt x="854" y="946" on="1"/>
        <pt x="809" y="946" on="0"/>
        <pt x="706" y="941" on="0"/>
        <pt x="605" y="927" on="0"/>
        <pt x="512" y="902" on="0"/>
        <pt x="441" y="860" on="0"/>
        <pt x="398" y="801" on="0"/>
        <pt x="398" y="760" on="1"/>
        <pt x="148" y="824" on="1"/>
        <pt x="148" y="891" on="0"/>
        <pt x="214" y="990" on="0"/>
        <pt x="323" y="1060" on="0"/>
        <pt x="465" y="1105" on="0"/>
        <pt x="618" y="1130" on="0"/>
        <pt x="770" y="1140" on="0"/>
      </contour>
      <contour>
        <pt x="1044" y="1398" on="1"/>
        <pt x="902" y="1258" on="1"/>
        <pt x="845" y="1321" on="0"/>
        <pt x="747" y="1438" on="0"/>
        <pt x="711" y="1485" on="1"/>
        <pt x="669" y="1540" on="0"/>
        <pt x="634" y="1588" on="1"/>
        <pt x="812" y="1766" on="1"/>
      </contour>
    </TTGlyph>
    <TTGlyph name="ampersand" xMin="210" yMin="0" xMax="1590" yMax="1528">
      <contour>
        <pt x="936" y="1528" on="1"/>
        <pt x="936" y="1318" on="1"/>
        <pt x="898" y="1318" on="0"/>
        <pt x="813" y="1318" on="0"/>
        <pt x="778" y="1316" on="1"/>
        <pt x="674" y="1311" on="0"/>
        <pt x="510" y="1296" on="0"/>
        <pt x="442" y="1284" on="1"/>
        <pt x="442" y="898" on="1"/>
        <pt x="1082" y="898" on="1"/>
        <pt x="1082" y="1524" on="1"/>
        <pt x="1120" y="1522" on="0"/>
        <pt x="1181" y="1519" on="0"/>
        <pt x="1235" y="1516" on="0"/>
        <pt x="1286" y="1511" on="0"/>
        <pt x="1314" y="1508" on="1"/>
        <pt x="1314" y="898" on="1"/>
        <pt x="1584" y="898" on="1"/>
        <pt x="1584" y="666" on="1"/>
        <pt x="1314" y="666" on="1"/>
        <pt x="1314" y="236" on="1"/>
        <pt x="1380" y="245" on="0"/>
        <pt x="1482" y="266" on="0"/>
        <pt x="1517" y="276" on="1"/>
        <pt x="1558" y="287" on="0"/>
        <pt x="1590" y="298" on="1"/>
        <pt x="1590" y="56" on="1"/>
        <pt x="1456" y="33" on="0"/>
        <pt x="1198" y="9" on="0"/>
        <pt x="1082" y="4" on="1"/>
        <pt x="1082" y="666" on="1"/>
        <pt x="442" y="666" on="1"/>
        <pt x="442" y="244" on="1"/>
        <pt x="514" y="233" on="0"/>
        <pt x="686" y="215" on="0"/>
        <pt x="778" y="212" on="1"/>
        <pt x="814" y="210" on="0"/>
        <pt x="892" y="210" on="0"/>
        <pt x="930" y="210" on="1"/>
        <pt x="930" y="0" on="1"/>
        <pt x="900" y="0" on="1"/>
        <pt x="746" y="0" on="0"/>
        <pt x="400" y="20" on="0"/>
        <pt x="210" y="52" on="1"/>
        <pt x="210" y="1476" on="1"/>
        <pt x="400" y="1508" on="0"/>
        <pt x="745" y="1528" on="0"/>
        <pt x="894" y="1528" on="1"/>
      </contour>
    </TTGlyph>
    <TTGlyph name="aring" xMin="148" yMin="0" xMax="1530" yMax="1728">
      <contour>
        <pt x="1286" y="408" on="1"/>
        <pt x="1262" y="430" on="0"/>
        <pt x="1188" y="472" on="0"/>
        <pt x="1079" y="505" on="0"/>
        <pt x="930" y="526" on="0"/>
        <pt x="830" y="526" on="1"/>
        <pt x="741" y="526" on="0"/>
        <pt x="583" y="519" on="0"/>
        <pt x="464" y="486" on="0"/>
        <pt x="394" y="414" on="0"/>
        <pt x="394" y="350" on="1"/>
        <pt x="394" y="222" on="1"/>
        <pt x="482" y="208" on="0"/>
        <pt x="694" y="190" on="0"/>
        <pt x="822" y="190" on="1"/>
        <pt x="928" y="190" on="0"/>
        <pt x="1161" y="205" on="0"/>
        <pt x="1286" y="228" on="1"/>
      </contour>
      <contour>
        <pt x="836" y="1140" on="1"/>
        <pt x="887" y="1140" on="0"/>
        <pt x="1029" y="1130" on="0"/>
        <pt x="1184" y="1105" on="0"/>
        <pt x="1335" y="1062" on="0"/>
        <pt x="1456" y="993" on="0"/>
        <pt x="1530" y="897" on="0"/>
        <pt x="1530" y="832" on="1"/>
        <pt x="1530" y="58" on="1"/>
        <pt x="1445" y="41" on="0"/>
        <pt x="1339" y="29" on="1"/>
        <pt x="1248" y="18" on="0"/>
        <pt x="995" y="0" on="0"/>
        <pt x="840" y="0" on="1"/>
        <pt x="686" y="0" on="0"/>
        <pt x="339" y="26" on="0"/>
        <pt x="150" y="58" on="1"/>
        <pt x="150" y="418" on="1"/>
        <pt x="150" y="476" on="0"/>
        <pt x="205" y="563" on="0"/>
        <pt x="302" y="625" on="0"/>
        <pt x="432" y="665" on="0"/>
        <pt x="582" y="689" on="0"/>
        <pt x="744" y="698" on="0"/>
        <pt x="824" y="698" on="1"/>
        <pt x="948" y="698" on="0"/>
        <pt x="1121" y="667" on="0"/>
        <pt x="1178" y="649" on="1"/>
        <pt x="1243" y="627" on="0"/>
        <pt x="1286" y="600" on="1"/>
        <pt x="1286" y="762" on="1"/>
        <pt x="1286" y="803" on="0"/>
        <pt x="1246" y="862" on="0"/>
        <pt x="1179" y="903" on="0"/>
        <pt x="1090" y="928" on="0"/>
        <pt x="994" y="942" on="0"/>
        <pt x="897" y="946" on="0"/>
        <pt x="854" y="946" on="1"/>
        <pt x="809" y="946" on="0"/>
        <pt x="706" y="941" on="0"/>
        <pt x="605" y="927" on="0"/>
        <pt x="512" y="902" on="0"/>
        <pt x="441" y="860" on="0"/>
        <pt x="398" y="801" on="0"/>
        <pt x="398" y="760" on="1"/>
        <pt x="148" y="824" on="1"/>
        <pt x="148" y="891" on="0"/>
        <pt x="214" y="990" on="0"/>
        <pt x="323" y="1060" on="0"/>
        <pt x="465" y="1105" on="0"/>
        <pt x="618" y="1130" on="0"/>
        <pt x="770" y="1140" on="0"/>
      </contour>
      <contour>
        <pt x="836" y="1728" on="1"/>
        <pt x="886" y="1728" on="0"/>
        <pt x="981" y="1712" on="0"/>
        <pt x="1054" y="1679" on="0"/>
        <pt x="1098" y="1625" on="0"/>
        <pt x="1098" y="1588" on="1"/>
        <pt x="1098" y="1424" on="1"/>
        <pt x="1098" y="1391" on="0"/>
        <pt x="1054" y="1343" on="0"/>
        <pt x="981" y="1313" on="0"/>
        <pt x="886" y="1298" on="0"/>
        <pt x="836" y="1298" on="1"/>
        <pt x="786" y="1298" on="0"/>
        <pt x="693" y="1313" on="0"/>
        <pt x="621" y="1343" on="0"/>
        <pt x="578" y="1391" on="0"/>
        <pt x="578" y="1424" on="1"/>
        <pt x="578" y="1588" on="1"/>
        <pt x="578" y="1625" on="0"/>
        <pt x="621" y="1679" on="0"/>
        <pt x="693" y="1712" on="0"/>
        <pt x="786" y="1728" on="0"/>
      </contour>
      <contour>
        <pt x="836" y="1600" on="1"/>
        <pt x="815" y="1600" on="0"/>
        <pt x="774" y="1593" on="0"/>
        <pt x="742" y="1578" on="0"/>
        <pt x="722" y="1556" on="0"/>
        <pt x="722" y="1540" on="1"/>
        <pt x="722" y="1476" on="1"/>
        <pt x="722" y="1462" on="0"/>
        <pt x="742" y="1442" on="0"/>
        <pt x="774" y="1430" on="0"/>
        <pt x="815" y="1424" on="0"/>
        <pt x="836" y="1424" on="1"/>
        <pt x="857" y="1424" on="0"/>
        <pt x="898" y="1430" on="0"/>
        <pt x="931" y="1442" on="0"/>
        <pt x="952" y="1462" on="0"/>
        <pt x="952" y="1476" on="1"/>
        <pt x="952" y="1540" on="1"/>
        <pt x="952" y="1556" on="0"/>
        <pt x="931" y="1578" on="0"/>
        <pt x="898" y="1593" on="0"/>
        <pt x="857" y="1600" on="0"/>
      </contour>
    </TTGlyph>
    <TTGlyph name="asciicircum" xMin="386" yMin="1114" xMax="1196" yMax="1692">
      <contour>
        <pt x="1196" y="1288" on="1"/>
        <pt x="1020" y="1114" on="1"/>
        <pt x="788" y="1344" on="1"/>
        <pt x="560" y="1116" on="1"/>
        <pt x="386" y="1290" on="1"/>
        <pt x="788" y="1692" on="1"/>
      </contour>
    </TTGlyph>
    <TTGlyph name="asciitilde" xMin="304" yMin="450" xMax="1094" yMax="790">
      <contour>
        <pt x="538" y="790" on="1"/>
        <pt x="585" y="790" on="0"/>
        <pt x="669" y="759" on="0"/>
        <pt x="750" y="723" on="0"/>
        <pt x="830" y="692" on="0"/>
        <pt x="874" y="692" on="1"/>
        <pt x="920" y="692" on="0"/>
        <pt x="1000" y="713" on="0"/>
        <pt x="1030" y="727" on="1"/>
        <pt x="1065" y="742" on="0"/>
        <pt x="1094" y="762" on="1"/>
        <pt x="1094" y="512" on="1"/>
        <pt x="1067" y="494" on="0"/>
        <pt x="1034" y="481" on="1"/>
        <pt x="1005" y="469" on="0"/>
        <pt x="928" y="450" on="0"/>
        <pt x="880" y="450" on="1"/>
        <pt x="830" y="450" on="0"/>
        <pt x="749" y="481" on="0"/>
        <pt x="677" y="519" on="0"/>
        <pt x="606" y="550" on="0"/>
        <pt x="566" y="550" on="1"/>
        <pt x="519" y="550" on="0"/>
        <pt x="426" y="524" on="0"/>
        <pt x="388" y="509" on="1"/>
        <pt x="344" y="491" on="0"/>
        <pt x="304" y="468" on="1"/>
        <pt x="304" y="716" on="1"/>
        <pt x="333" y="736" on="0"/>
        <pt x="370" y="753" on="1"/>
        <pt x="401" y="767" on="0"/>
        <pt x="487" y="790" on="0"/>
      </contour>
    </TTGlyph>
    <TTGlyph name="asterisk" xMin="228" yMin="134" xMax="1238" yMax="1128">
      <contour>
        <pt x="862" y="1128" on="1"/>
        <pt x="856" y="1094" on="0"/>
        <pt x="847" y="1007" on="0"/>
        <pt x="841" y="911" on="0"/>
        <pt x="838" y="813" on="0"/>
        <pt x="838" y="770" on="1"/>
        <pt x="848" y="770" on="0"/>
        <pt x="896" y="785" on="0"/>
        <pt x="958" y="810" on="0"/>
        <pt x="1028" y="840" on="0"/>
        <pt x="1092" y="869" on="0"/>
        <pt x="1145" y="894" on="0"/>
        <pt x="1160" y="902" on="1"/>
        <pt x="1238" y="658" on="1"/>
        <pt x="1206" y="653" on="0"/>
        <pt x="1123" y="639" on="0"/>
        <pt x="1031" y="621" on="0"/>
        <pt x="938" y="599" on="0"/>
        <pt x="898" y="586" on="1"/>
        <pt x="960" y="501" on="0"/>
        <pt x="1093" y="342" on="0"/>
        <pt x="1152" y="286" on="1"/>
        <pt x="942" y="134" on="1"/>
        <pt x="927" y="165" on="0"/>
        <pt x="882" y="246" on="0"/>
        <pt x="827" y="336" on="0"/>
        <pt x="765" y="428" on="0"/>
        <pt x="734" y="472" on="1"/>
        <pt x="665" y="372" on="0"/>
        <pt x="564" y="203" on="0"/>
        <pt x="528" y="134" on="1"/>
        <pt x="320" y="286" on="1"/>
        <pt x="345" y="311" on="0"/>
        <pt x="408" y="380" on="0"/>
        <pt x="474" y="461" on="0"/>
        <pt x="541" y="547" on="0"/>
        <pt x="570" y="588" on="1"/>
        <pt x="487" y="614" on="0"/>
        <pt x="316" y="641" on="0"/>
        <pt x="228" y="656" on="1"/>
        <pt x="310" y="902" on="1"/>
        <pt x="339" y="885" on="0"/>
        <pt x="416" y="850" on="0"/>
        <pt x="500" y="815" on="0"/>
        <pt x="589" y="783" on="0"/>
        <pt x="630" y="770" on="1"/>
        <pt x="630" y="860" on="0"/>
        <pt x="619" y="1050" on="0"/>
        <pt x="604" y="1128" on="1"/>
      </contour>
    </TTGlyph>
    <TTGlyph name="at" xMin="284" yMin="42" xMax="2250" yMax="1306">
      <contour>
        <pt x="1260" y="1306" on="1"/>
        <pt x="1381" y="1306" on="0"/>
        <pt x="1622" y="1281" on="0"/>
        <pt x="1842" y="1228" on="0"/>
        <pt x="2031" y="1146" on="0"/>
        <pt x="2171" y="1033" on="0"/>
        <pt x="2250" y="888" on="0"/>
        <pt x="2250" y="798" on="1"/>
        <pt x="2250" y="76" on="1"/>
        <pt x="2089" y="53" on="0"/>
        <pt x="1776" y="42" on="0"/>
        <pt x="1616" y="42" on="1"/>
        <pt x="1258" y="42" on="1"/>
        <pt x="1139" y="42" on="0"/>
        <pt x="863" y="63" on="0"/>
        <pt x="708" y="90" on="1"/>
        <pt x="708" y="384" on="1"/>
        <pt x="708" y="456" on="0"/>
        <pt x="803" y="547" on="0"/>
        <pt x="956" y="599" on="0"/>
        <pt x="1148" y="618" on="0"/>
        <pt x="1246" y="618" on="1"/>
        <pt x="1317" y="618" on="0"/>
        <pt x="1438" y="597" on="0"/>
        <pt x="1484" y="584" on="1"/>
        <pt x="1537" y="569" on="0"/>
        <pt x="1582" y="550" on="1"/>
        <pt x="1582" y="644" on="1"/>
        <pt x="1582" y="672" on="0"/>
        <pt x="1552" y="711" on="0"/>
        <pt x="1501" y="739" on="0"/>
        <pt x="1434" y="756" on="0"/>
        <pt x="1363" y="765" on="0"/>
        <pt x="1291" y="768" on="0"/>
        <pt x="1260" y="768" on="1"/>
        <pt x="1212" y="768" on="0"/>
        <pt x="1099" y="759" on="0"/>
        <pt x="1001" y="728" on="0"/>
        <pt x="936" y="669" on="0"/>
        <pt x="936" y="620" on="1"/>
        <pt x="708" y="680" on="1"/>
        <pt x="708" y="737" on="0"/>
        <pt x="760" y="823" on="0"/>
        <pt x="846" y="883" on="0"/>
        <pt x="959" y="922" on="0"/>
        <pt x="1081" y="944" on="0"/>
        <pt x="1204" y="952" on="0"/>
        <pt x="1258" y="952" on="1"/>
        <pt x="1297" y="952" on="0"/>
        <pt x="1409" y="944" on="0"/>
        <pt x="1530" y="923" on="0"/>
        <pt x="1650" y="888" on="0"/>
        <pt x="1745" y="832" on="0"/>
        <pt x="1804" y="753" on="0"/>
        <pt x="1804" y="700" on="1"/>
        <pt x="1804" y="222" on="1"/>
        <pt x="1861" y="224" on="0"/>
        <pt x="1977" y="229" on="0"/>
        <pt x="2034" y="234" on="1"/>
        <pt x="2034" y="728" on="1"/>
        <pt x="2034" y="796" on="0"/>
        <pt x="1973" y="907" on="0"/>
        <pt x="1865" y="992" on="0"/>
        <pt x="1717" y="1054" on="0"/>
        <pt x="1545" y="1093" on="0"/>
        <pt x="1356" y="1112" on="0"/>
        <pt x="1260" y="1112" on="1"/>
        <pt x="1174" y="1112" on="0"/>
        <pt x="1001" y="1094" on="0"/>
        <pt x="841" y="1057" on="0"/>
        <pt x="699" y="1000" on="0"/>
        <pt x="588" y="921" on="0"/>
        <pt x="514" y="819" on="0"/>
        <pt x="502" y="756" on="1"/>
        <pt x="284" y="814" on="1"/>
        <pt x="292" y="901" on="0"/>
        <pt x="379" y="1042" on="0"/>
        <pt x="520" y="1151" on="0"/>
        <pt x="706" y="1230" on="0"/>
        <pt x="918" y="1281" on="0"/>
        <pt x="1146" y="1306" on="0"/>
      </contour>
      <contour>
        <pt x="1582" y="368" on="1"/>
        <pt x="1564" y="383" on="0"/>
        <pt x="1508" y="412" on="0"/>
        <pt x="1427" y="434" on="0"/>
        <pt x="1321" y="448" on="0"/>
        <pt x="1254" y="448" on="1"/>
        <pt x="1189" y="448" on="0"/>
        <pt x="1071" y="443" on="0"/>
        <pt x="982" y="419" on="0"/>
        <pt x="930" y="368" on="0"/>
        <pt x="930" y="322" on="1"/>
        <pt x="930" y="246" on="1"/>
        <pt x="933" y="246" on="0"/>
        <pt x="984" y="238" on="0"/>
        <pt x="1068" y="229" on="0"/>
        <pt x="1178" y="222" on="0"/>
        <pt x="1240" y="222" on="1"/>
        <pt x="1582" y="222" on="1"/>
      </contour>
    </TTGlyph>
    <TTGlyph name="atilde" xMin="148" yMin="0" xMax="1530" yMax="1644">
      <contour>
        <pt x="1286" y="408" on="1"/>
        <pt x="1262" y="430" on="0"/>
        <pt x="1188" y="472" on="0"/>
        <pt x="1079" y="505" on="0"/>
        <pt x="930" y="526" on="0"/>
        <pt x="830" y="526" on="1"/>
        <pt x="741" y="526" on="0"/>
        <pt x="583" y="519" on="0"/>
        <pt x="464" y="486" on="0"/>
        <pt x="394" y="414" on="0"/>
        <pt x="394" y="350" on="1"/>
        <pt x="394" y="222" on="1"/>
        <pt x="482" y="208" on="0"/>
        <pt x="694" y="190" on="0"/>
        <pt x="822" y="190" on="1"/>
        <pt x="928" y="190" on="0"/>
        <pt x="1161" y="205" on="0"/>
        <pt x="1286" y="228" on="1"/>
      </contour>
      <contour>
        <pt x="836" y="1140" on="1"/>
        <pt x="887" y="1140" on="0"/>
        <pt x="1029" y="1130" on="0"/>
        <pt x="1184" y="1105" on="0"/>
        <pt x="1335" y="1062" on="0"/>
        <pt x="1456" y="993" on="0"/>
        <pt x="1530" y="897" on="0"/>
        <pt x="1530" y="832" on="1"/>
        <pt x="1530" y="58" on="1"/>
        <pt x="1445" y="41" on="0"/>
        <pt x="1339" y="29" on="1"/>
        <pt x="1248" y="18" on="0"/>
        <pt x="995" y="0" on="0"/>
        <pt x="840" y="0" on="1"/>
        <pt x="686" y="0" on="0"/>
        <pt x="339" y="26" on="0"/>
        <pt x="150" y="58" on="1"/>
        <pt x="150" y="418" on="1"/>
        <pt x="150" y="476" on="0"/>
        <pt x="205" y="563" on="0"/>
        <pt x="302" y="625" on="0"/>
        <pt x="432" y="665" on="0"/>
        <pt x="582" y="689" on="0"/>
        <pt x="744" y="698" on="0"/>
        <pt x="824" y="698" on="1"/>
        <pt x="948" y="698" on="0"/>
        <pt x="1121" y="667" on="0"/>
        <pt x="1178" y="649" on="1"/>
        <pt x="1243" y="627" on="0"/>
        <pt x="1286" y="600" on="1"/>
        <pt x="1286" y="762" on="1"/>
        <pt x="1286" y="803" on="0"/>
        <pt x="1246" y="862" on="0"/>
        <pt x="1179" y="903" on="0"/>
        <pt x="1090" y="928" on="0"/>
        <pt x="994" y="942" on="0"/>
        <pt x="897" y="946" on="0"/>
        <pt x="854" y="946" on="1"/>
        <pt x="809" y="946" on="0"/>
        <pt x="706" y="941" on="0"/>
        <pt x="605" y="927" on="0"/>
        <pt x="512" y="902" on="0"/>
        <pt x="441" y="860" on="0"/>
        <pt x="398" y="801" on="0"/>
        <pt x="398" y="760" on="1"/>
        <pt x="148" y="824" on="1"/>
        <pt x="148" y="891" on="0"/>
        <pt x="214" y="990" on="0"/>
        <pt x="323" y="1060" on="0"/>
        <pt x="465" y="1105" on="0"/>
        <pt x="618" y="1130" on="0"/>
        <pt x="770" y="1140" on="0"/>
      </contour>
      <contour>
        <pt x="678" y="1644" on="1"/>
        <pt x="725" y="1644" on="0"/>
        <pt x="809" y="1613" on="0"/>
        <pt x="890" y="1575" on="0"/>
        <pt x="970" y="1544" on="0"/>
        <pt x="1014" y="1544" on="1"/>
        <pt x="1060" y="1544" on="0"/>
        <pt x="1140" y="1565" on="0"/>
        <pt x="1170" y="1579" on="1"/>
        <pt x="1205" y="1594" on="0"/>
        <pt x="1234" y="1614" on="1"/>
        <pt x="1234" y="1396" on="1"/>
        <pt x="1207" y="1378" on="0"/>
        <pt x="1174" y="1365" on="1"/>
        <pt x="1145" y="1353" on="0"/>
        <pt x="1068" y="1334" on="0"/>
        <pt x="1020" y="1334" on="1"/>
        <pt x="970" y="1334" on="0"/>
        <pt x="891" y="1365" on="0"/>
        <pt x="819" y="1401" on="0"/>
        <pt x="747" y="1432" on="0"/>
        <pt x="706" y="1432" on="1"/>
        <pt x="660" y="1432" on="0"/>
        <pt x="567" y="1406" on="0"/>
        <pt x="529" y="1391" on="1"/>
        <pt x="485" y="1373" on="0"/>
        <pt x="444" y="1350" on="1"/>
        <pt x="444" y="1570" on="1"/>
        <pt x="474" y="1590" on="0"/>
        <pt x="511" y="1607" on="1"/>
        <pt x="543" y="1621" on="0"/>
        <pt x="627" y="1644" on="0"/>
      </contour>
    </TTGlyph>
    <TTGlyph name="b" xMin="182" yMin="0" xMax="1468" yMax="1522">
      <contour>
        <pt x="816" y="1140" on="1"/>
        <pt x="970" y="1140" on="0"/>
        <pt x="1213" y="1097" on="0"/>
        <pt x="1380" y="1007" on="0"/>
        <pt x="1468" y="869" on="0"/>
        <pt x="1468" y="774" on="1"/>
        <pt x="1468" y="366" on="1"/>
        <pt x="1468" y="271" on="0"/>
        <pt x="1380" y="133" on="0"/>
        <pt x="1213" y="43" on="0"/>
        <pt x="970" y="0" on="0"/>
        <pt x="816" y="0" on="1"/>
        <pt x="730" y="0" on="0"/>
        <pt x="550" y="13" on="0"/>
        <pt x="382" y="34" on="0"/>
        <pt x="234" y="62" on="0"/>
        <pt x="182" y="78" on="1"/>
        <pt x="182" y="1522" on="1"/>
        <pt x="444" y="1522" on="1"/>
        <pt x="444" y="1068" on="1"/>
        <pt x="533" y="1100" on="0"/>
        <pt x="728" y="1140" on="0"/>
      </contour>
      <contour>
        <pt x="744" y="954" on="1"/>
        <pt x="692" y="954" on="0"/>
        <pt x="606" y="940" on="0"/>
        <pt x="533" y="918" on="0"/>
        <pt x="471" y="891" on="0"/>
        <pt x="444" y="878" on="1"/>
        <pt x="444" y="248" on="1"/>
        <pt x="471" y="239" on="0"/>
        <pt x="541" y="222" on="0"/>
        <pt x="620" y="208" on="0"/>
        <pt x="703" y="200" on="0"/>
        <pt x="744" y="200" on="1"/>
        <pt x="806" y="200" on="0"/>
        <pt x="924" y="203" on="0"/>
        <pt x="1026" y="217" on="0"/>
        <pt x="1111" y="245" on="0"/>
        <pt x="1172" y="296" on="0"/>
        <pt x="1206" y="371" on="0"/>
        <pt x="1206" y="426" on="1"/>
        <pt x="1206" y="720" on="1"/>
        <pt x="1206" y="799" on="0"/>
        <pt x="1132" y="892" on="0"/>
        <pt x="1006" y="940" on="0"/>
        <pt x="838" y="954" on="0"/>
      </contour>
    </TTGlyph>
    <TTGlyph name="backslash" xMin="234" yMin="68" xMax="1088" yMax="1534">
      <contour>
        <pt x="1088" y="170" on="1"/>
        <pt x="868" y="68" on="1"/>
        <pt x="234" y="1430" on="1"/>
        <pt x="454" y="1534" on="1"/>
      </contour>
    </TTGlyph>
    <TTGlyph name="bar" xMin="418" yMin="-114" xMax="664" yMax="1636">
      <contour>
        <pt x="664" y="1636" on="1"/>
        <pt x="664" y="-114" on="1"/>
        <pt x="418" y="-114" on="1"/>
        <pt x="418" y="1636" on="1"/>
      </contour>
    </TTGlyph>
    <TTGlyph name="braceleft" xMin="380" yMin="-152" xMax="1050" yMax="1638">
      <contour>
        <pt x="1050" y="1442" on="1"/>
        <pt x="1026" y="1431" on="0"/>
        <pt x="1008" y="1414" on="1"/>
        <pt x="991" y="1400" on="0"/>
        <pt x="963" y="1356" on="0"/>
        <pt x="960" y="1324" on="1"/>
        <pt x="960" y="972" on="1"/>
        <pt x="730" y="740" on="1"/>
        <pt x="958" y="512" on="1"/>
        <pt x="958" y="162" on="1"/>
        <pt x="962" y="130" on="0"/>
        <pt x="991" y="85" on="0"/>
        <pt x="1007" y="71" on="1"/>
        <pt x="1025" y="54" on="0"/>
        <pt x="1048" y="44" on="1"/>
        <pt x="936" y="-152" on="1"/>
        <pt x="869" y="-129" on="0"/>
        <pt x="816" y="-87" on="1"/>
        <pt x="793" y="-69" on="0"/>
        <pt x="750" y="-21" on="0"/>
        <pt x="717" y="40" on="0"/>
        <pt x="696" y="115" on="0"/>
        <pt x="696" y="160" on="1"/>
        <pt x="696" y="426" on="1"/>
        <pt x="380" y="740" on="1"/>
        <pt x="698" y="1058" on="1"/>
        <pt x="698" y="1326" on="1"/>
        <pt x="698" y="1371" on="0"/>
        <pt x="719" y="1446" on="0"/>
        <pt x="752" y="1507" on="0"/>
        <pt x="795" y="1555" on="0"/>
        <pt x="818" y="1573" on="1"/>
        <pt x="871" y="1615" on="0"/>
        <pt x="938" y="1638" on="1"/>
      </contour>
    </TTGlyph>
    <TTGlyph name="braceright" xMin="380" yMin="-162" xMax="1050" yMax="1628">
      <contour>
        <pt x="492" y="1628" on="1"/>
        <pt x="559" y="1605" on="0"/>
        <pt x="613" y="1563" on="1"/>
        <pt x="635" y="1545" on="0"/>
        <pt x="679" y="1497" on="0"/>
        <pt x="713" y="1436" on="0"/>
        <pt x="734" y="1361" on="0"/>
        <pt x="734" y="1316" on="1"/>
        <pt x="734" y="1048" on="1"/>
        <pt x="1050" y="732" on="1"/>
        <pt x="736" y="416" on="1"/>
        <pt x="736" y="150" on="1"/>
        <pt x="736" y="105" on="0"/>
        <pt x="715" y="30" on="0"/>
        <pt x="681" y="-31" on="0"/>
        <pt x="637" y="-79" on="0"/>
        <pt x="615" y="-97" on="1"/>
        <pt x="561" y="-139" on="0"/>
        <pt x="494" y="-162" on="1"/>
        <pt x="382" y="34" on="1"/>
        <pt x="405" y="44" on="0"/>
        <pt x="424" y="61" on="1"/>
        <pt x="441" y="75" on="0"/>
        <pt x="470" y="120" on="0"/>
        <pt x="474" y="152" on="1"/>
        <pt x="474" y="504" on="1"/>
        <pt x="702" y="732" on="1"/>
        <pt x="472" y="964" on="1"/>
        <pt x="472" y="1314" on="1"/>
        <pt x="468" y="1346" on="0"/>
        <pt x="439" y="1390" on="0"/>
        <pt x="422" y="1404" on="1"/>
        <pt x="403" y="1421" on="0"/>
        <pt x="380" y="1432" on="1"/>
      </contour>
    </TTGlyph>
    <TTGlyph name="bracketleft" xMin="380" yMin="-2" xMax="892" yMax="1514">
      <contour>
        <pt x="380" y="1514" on="1"/>
        <pt x="499" y="1509" on="0"/>
        <pt x="755" y="1488" on="0"/>
        <pt x="892" y="1464" on="1"/>
        <pt x="892" y="1210" on="1"/>
        <pt x="862" y="1218" on="0"/>
        <pt x="822" y="1228" on="1"/>
        <pt x="787" y="1236" on="0"/>
        <pt x="689" y="1256" on="0"/>
        <pt x="626" y="1266" on="1"/>
        <pt x="626" y="246" on="1"/>
        <pt x="688" y="255" on="0"/>
        <pt x="785" y="275" on="0"/>
        <pt x="820" y="283" on="1"/>
        <pt x="860" y="293" on="0"/>
        <pt x="892" y="302" on="1"/>
        <pt x="892" y="48" on="1"/>
        <pt x="755" y="25" on="0"/>
        <pt x="499" y="3" on="0"/>
        <pt x="380" y="-2" on="1"/>
      </contour>
    </TTGlyph>
    <TTGlyph name="bracketright" xMin="380" yMin="-2" xMax="892" yMax="1514">
      <contour>
        <pt x="380" y="1464" on="1"/>
        <pt x="516" y="1488" on="0"/>
        <pt x="773" y="1509" on="0"/>
        <pt x="892" y="1514" on="1"/>
        <pt x="892" y="-2" on="1"/>
        <pt x="773" y="3" on="0"/>
        <pt x="516" y="25" on="0"/>
        <pt x="380" y="48" on="1"/>
        <pt x="380" y="302" on="1"/>
        <pt x="410" y="293" on="0"/>
        <pt x="450" y="283" on="1"/>
        <pt x="484" y="275" on="0"/>
        <pt x="582" y="255" on="0"/>
        <pt x="644" y="246" on="1"/>
        <pt x="644" y="1266" on="1"/>
        <pt x="581" y="1256" on="0"/>
        <pt x="483" y="1236" on="0"/>
        <pt x="449" y="1228" on="1"/>
        <pt x="409" y="1218" on="0"/>
        <pt x="380" y="1210" on="1"/>
      </contour>
    </TTGlyph>
    <TTGlyph name="breve" xMin="398" yMin="1360" xMax="1186" yMax="1672">
      <contour>
        <pt x="790" y="1554" on="1"/>
        <pt x="841" y="1554" on="0"/>
        <pt x="926" y="1573" on="0"/>
        <pt x="999" y="1606" on="0"/>
        <pt x="1061" y="1649" on="0"/>
        <pt x="1090" y="1672" on="1"/>
        <pt x="1186" y="1522" on="1"/>
        <pt x="1157" y="1488" on="0"/>
        <pt x="1076" y="1429" on="0"/>
        <pt x="975" y="1385" on="0"/>
        <pt x="857" y="1360" on="0"/>
        <pt x="790" y="1360" on="1"/>
        <pt x="724" y="1360" on="0"/>
        <pt x="606" y="1385" on="0"/>
        <pt x="507" y="1429" on="0"/>
        <pt x="426" y="1488" on="0"/>
        <pt x="398" y="1522" on="1"/>
        <pt x="492" y="1672" on="1"/>
        <pt x="520" y="1649" on="0"/>
        <pt x="583" y="1606" on="0"/>
        <pt x="655" y="1573" on="0"/>
        <pt x="740" y="1554" on="0"/>
      </contour>
    </TTGlyph>
    <TTGlyph name="brokenbar" xMin="418" yMin="-114" xMax="664" yMax="1636">
      <contour>
        <pt x="664" y="598" on="1"/>
        <pt x="664" y="-114" on="1"/>
        <pt x="418" y="-114" on="1"/>
        <pt x="418" y="598" on="1"/>
      </contour>
      <contour>
        <pt x="664" y="1636" on="1"/>
        <pt x="664" y="920" on="1"/>
        <pt x="418" y="920" on="1"/>
        <pt x="418" y="1636" on="1"/>
      </contour>
    </TTGlyph>
    <TTGlyph name="bullet" xMin="380" yMin="340" xMax="928" yMax="808">
      <contour>
        <pt x="652" y="808" on="1"/>
        <pt x="702" y="808" on="0"/>
        <pt x="801" y="792" on="0"/>
        <pt x="879" y="759" on="0"/>
        <pt x="928" y="705" on="0"/>
        <pt x="928" y="668" on="1"/>
        <pt x="928" y="466" on="1"/>
        <pt x="928" y="433" on="0"/>
        <pt x="879" y="385" on="0"/>
        <pt x="801" y="355" on="0"/>
        <pt x="702" y="340" on="0"/>
        <pt x="652" y="340" on="1"/>
        <pt x="602" y="340" on="0"/>
        <pt x="505" y="355" on="0"/>
        <pt x="428" y="385" on="0"/>
        <pt x="380" y="433" on="0"/>
        <pt x="380" y="466" on="1"/>
        <pt x="380" y="668" on="1"/>
        <pt x="380" y="705" on="0"/>
        <pt x="428" y="759" on="0"/>
        <pt x="505" y="792" on="0"/>
        <pt x="602" y="808" on="0"/>
      </contour>
    </TTGlyph>
    <TTGlyph name="c" xMin="140" yMin="-20" xMax="1526" yMax="1158">
      <contour>
        <pt x="832" y="1158" on="1"/>
        <pt x="915" y="1158" on="0"/>
        <pt x="1083" y="1142" on="0"/>
        <pt x="1237" y="1106" on="0"/>
        <pt x="1371" y="1052" on="0"/>
        <pt x="1470" y="976" on="0"/>
        <pt x="1526" y="877" on="0"/>
        <pt x="1526" y="816" on="1"/>
        <pt x="1270" y="778" on="1"/>
        <pt x="1270" y="821" on="0"/>
        <pt x="1196" y="890" on="0"/>
        <pt x="1074" y="937" on="0"/>
        <pt x="916" y="962" on="0"/>
        <pt x="832" y="962" on="1"/>
        <pt x="752" y="962" on="0"/>
        <pt x="596" y="939" on="0"/>
        <pt x="473" y="893" on="0"/>
        <pt x="396" y="824" on="0"/>
        <pt x="396" y="778" on="1"/>
        <pt x="396" y="362" on="1"/>
        <pt x="396" y="316" on="0"/>
        <pt x="473" y="249" on="0"/>
        <pt x="596" y="204" on="0"/>
        <pt x="752" y="182" on="0"/>
        <pt x="832" y="182" on="1"/>
        <pt x="916" y="182" on="0"/>
        <pt x="1074" y="206" on="0"/>
        <pt x="1196" y="251" on="0"/>
        <pt x="1270" y="318" on="0"/>
        <pt x="1270" y="362" on="1"/>
        <pt x="1526" y="298" on="1"/>
        <pt x="1526" y="244" on="0"/>
        <pt x="1470" y="154" on="0"/>
        <pt x="1371" y="83" on="0"/>
        <pt x="1237" y="31" on="0"/>
        <pt x="1083" y="-3" on="0"/>
        <pt x="915" y="-20" on="0"/>
        <pt x="832" y="-20" on="1"/>
        <pt x="749" y="-20" on="0"/>
        <pt x="582" y="-3" on="0"/>
        <pt x="428" y="31" on="0"/>
        <pt x="295" y="83" on="0"/>
        <pt x="196" y="154" on="0"/>
        <pt x="140" y="243" on="0"/>
        <pt x="140" y="298" on="1"/>
        <pt x="140" y="816" on="1"/>
        <pt x="140" y="877" on="0"/>
        <pt x="196" y="976" on="0"/>
        <pt x="295" y="1052" on="0"/>
        <pt x="428" y="1106" on="0"/>
        <pt x="582" y="1142" on="0"/>
        <pt x="749" y="1158" on="0"/>
      </contour>
    </TTGlyph>
    <TTGlyph name="caron" xMin="430" yMin="1286" xMax="1154" yMax="1746">
      <contour>
        <pt x="1154" y="1592" on="1"/>
        <pt x="790" y="1286" on="1"/>
        <pt x="430" y="1590" on="1"/>
        <pt x="586" y="1746" on="1"/>
        <pt x="790" y="1524" on="1"/>
        <pt x="998" y="1746" on="1"/>
      </contour>
    </TTGlyph>
    <TTGlyph name="ccaron" xMin="92" yMin="-20" xMax="1476" yMax="1746">
      <contour>
        <pt x="782" y="1158" on="1"/>
        <pt x="866" y="1158" on="0"/>
        <pt x="1034" y="1142" on="0"/>
        <pt x="1188" y="1106" on="0"/>
        <pt x="1322" y="1052" on="0"/>
        <pt x="1420" y="976" on="0"/>
        <pt x="1476" y="877" on="0"/>
        <pt x="1476" y="816" on="1"/>
        <pt x="1220" y="778" on="1"/>
        <pt x="1220" y="821" on="0"/>
        <pt x="1146" y="890" on="0"/>
        <pt x="1024" y="937" on="0"/>
        <pt x="866" y="962" on="0"/>
        <pt x="782" y="962" on="1"/>
        <pt x="702" y="962" on="0"/>
        <pt x="546" y="939" on="0"/>
        <pt x="423" y="893" on="0"/>
        <pt x="346" y="824" on="0"/>
        <pt x="346" y="778" on="1"/>
        <pt x="346" y="362" on="1"/>
        <pt x="346" y="316" on="0"/>
        <pt x="423" y="249" on="0"/>
        <pt x="546" y="204" on="0"/>
        <pt x="702" y="182" on="0"/>
        <pt x="782" y="182" on="1"/>
        <pt x="866" y="182" on="0"/>
        <pt x="1024" y="206" on="0"/>
        <pt x="1146" y="251" on="0"/>
        <pt x="1220" y="318" on="0"/>
        <pt x="1220" y="362" on="1"/>
        <pt x="1476" y="298" on="1"/>
        <pt x="1476" y="244" on="0"/>
        <pt x="1420" y="154" on="0"/>
        <pt x="1322" y="83" on="0"/>
        <pt x="1188" y="31" on="0"/>
        <pt x="1034" y="-3" on="0"/>
        <pt x="866" y="-20" on="0"/>
        <pt x="782" y="-20" on="1"/>
        <pt x="699" y="-20" on="0"/>
        <pt x="532" y="-3" on="0"/>
        <pt x="379" y="31" on="0"/>
        <pt x="246" y="83" on="0"/>
        <pt x="148" y="154" on="0"/>
        <pt x="92" y="243" on="0"/>
        <pt x="92" y="298" on="1"/>
        <pt x="92" y="816" on="1"/>
        <pt x="92" y="877" on="0"/>
        <pt x="148" y="976" on="0"/>
        <pt x="246" y="1052" on="0"/>
        <pt x="379" y="1106" on="0"/>
        <pt x="532" y="1142" on="0"/>
        <pt x="699" y="1158" on="0"/>
      </contour>
      <contour>
        <pt x="1124" y="1592" on="1"/>
        <pt x="762" y="1286" on="1"/>
        <pt x="400" y="1590" on="1"/>
        <pt x="556" y="1746" on="1"/>
        <pt x="762" y="1524" on="1"/>
        <pt x="968" y="1746" on="1"/>
      </contour>
    </TTGlyph>
    <TTGlyph name="ccedilla" xMin="92" yMin="-378" xMax="1476" yMax="1158">
      <contour>
        <pt x="782" y="1158" on="1"/>
        <pt x="866" y="1158" on="0"/>
        <pt x="1034" y="1142" on="0"/>
        <pt x="1188" y="1106" on="0"/>
        <pt x="1322" y="1052" on="0"/>
        <pt x="1420" y="976" on="0"/>
        <pt x="1476" y="877" on="0"/>
        <pt x="1476" y="816" on="1"/>
        <pt x="1220" y="778" on="1"/>
        <pt x="1220" y="821" on="0"/>
        <pt x="1146" y="890" on="0"/>
        <pt x="1024" y="937" on="0"/>
        <pt x="866" y="962" on="0"/>
        <pt x="782" y="962" on="1"/>
        <pt x="702" y="962" on="0"/>
        <pt x="546" y="939" on="0"/>
        <pt x="423" y="893" on="0"/>
        <pt x="346" y="824" on="0"/>
        <pt x="346" y="778" on="1"/>
        <pt x="346" y="362" on="1"/>
        <pt x="346" y="316" on="0"/>
        <pt x="423" y="249" on="0"/>
        <pt x="546" y="204" on="0"/>
        <pt x="702" y="182" on="0"/>
        <pt x="782" y="182" on="1"/>
        <pt x="866" y="182" on="0"/>
        <pt x="1024" y="206" on="0"/>
        <pt x="1146" y="251" on="0"/>
        <pt x="1220" y="318" on="0"/>
        <pt x="1220" y="362" on="1"/>
        <pt x="1476" y="298" on="1"/>
        <pt x="1476" y="249" on="0"/>
        <pt x="1430" y="167" on="0"/>
        <pt x="1348" y="99" on="0"/>
        <pt x="1236" y="48" on="0"/>
        <pt x="1104" y="10" on="0"/>
        <pt x="957" y="-12" on="0"/>
        <pt x="882" y="-16" on="1"/>
        <pt x="982" y="-144" on="1"/>
        <pt x="982" y="-188" on="0"/>
        <pt x="932" y="-272" on="0"/>
        <pt x="826" y="-338" on="0"/>
        <pt x="659" y="-378" on="0"/>
        <pt x="542" y="-378" on="1"/>
        <pt x="542" y="-186" on="1"/>
        <pt x="601" y="-186" on="0"/>
        <pt x="687" y="-177" on="0"/>
        <pt x="746" y="-162" on="0"/>
        <pt x="782" y="-140" on="0"/>
        <pt x="792" y="-126" on="1"/>
        <pt x="732" y="-18" on="1"/>
        <pt x="653" y="-16" on="0"/>
        <pt x="496" y="4" on="0"/>
        <pt x="354" y="40" on="0"/>
        <pt x="232" y="92" on="0"/>
        <pt x="143" y="160" on="0"/>
        <pt x="92" y="246" on="0"/>
        <pt x="92" y="298" on="1"/>
        <pt x="92" y="816" on="1"/>
        <pt x="92" y="877" on="0"/>
        <pt x="148" y="976" on="0"/>
        <pt x="246" y="1052" on="0"/>
        <pt x="379" y="1106" on="0"/>
        <pt x="532" y="1142" on="0"/>
        <pt x="699" y="1158" on="0"/>
      </contour>
    </TTGlyph>
    <TTGlyph name="cedilla" xMin="498" yMin="-378" xMax="938" yMax="38">
      <contour>
        <pt x="796" y="36" on="1"/>
        <pt x="938" y="-144" on="1"/>
        <pt x="938" y="-188" on="0"/>
        <pt x="889" y="-272" on="0"/>
        <pt x="783" y="-338" on="0"/>
        <pt x="616" y="-378" on="0"/>
        <pt x="498" y="-378" on="1"/>
        <pt x="498" y="-186" on="1"/>
        <pt x="557" y="-186" on="0"/>
        <pt x="643" y="-177" on="0"/>
        <pt x="702" y="-162" on="0"/>
        <pt x="738" y="-140" on="0"/>
        <pt x="748" y="-126" on="1"/>
        <pt x="656" y="38" on="1"/>
      </contour>
    </TTGlyph>
    <TTGlyph name="cent" xMin="146" yMin="-152" xMax="1532" yMax="1290">
      <contour>
        <pt x="944" y="1290" on="1"/>
        <pt x="944" y="1156" on="1"/>
        <pt x="1019" y="1151" on="0"/>
        <pt x="1164" y="1127" on="0"/>
        <pt x="1295" y="1088" on="0"/>
        <pt x="1406" y="1034" on="0"/>
        <pt x="1487" y="961" on="0"/>
        <pt x="1532" y="871" on="0"/>
        <pt x="1532" y="816" on="1"/>
        <pt x="1274" y="778" on="1"/>
        <pt x="1274" y="815" on="0"/>
        <pt x="1221" y="874" on="0"/>
        <pt x="1131" y="919" on="0"/>
        <pt x="1011" y="949" on="0"/>
        <pt x="944" y="956" on="1"/>
        <pt x="944" y="186" on="1"/>
        <pt x="1011" y="193" on="0"/>
        <pt x="1131" y="222" on="0"/>
        <pt x="1221" y="266" on="0"/>
        <pt x="1274" y="325" on="0"/>
        <pt x="1274" y="362" on="1"/>
        <pt x="1532" y="298" on="1"/>
        <pt x="1532" y="249" on="0"/>
        <pt x="1487" y="167" on="0"/>
        <pt x="1406" y="100" on="0"/>
        <pt x="1295" y="48" on="0"/>
        <pt x="1164" y="11" on="0"/>
        <pt x="1019" y="-12" on="0"/>
        <pt x="944" y="-16" on="1"/>
        <pt x="944" y="-152" on="1"/>
        <pt x="698" y="-152" on="1"/>
        <pt x="698" y="-14" on="1"/>
        <pt x="590" y="-5" on="0"/>
        <pt x="390" y="42" on="0"/>
        <pt x="237" y="119" on="0"/>
        <pt x="146" y="227" on="0"/>
        <pt x="146" y="298" on="1"/>
        <pt x="146" y="816" on="1"/>
        <pt x="146" y="895" on="0"/>
        <pt x="237" y="1014" on="0"/>
        <pt x="390" y="1096" on="0"/>
        <pt x="590" y="1144" on="0"/>
        <pt x="698" y="1154" on="1"/>
        <pt x="698" y="1290" on="1"/>
      </contour>
      <contour>
        <pt x="400" y="362" on="1"/>
        <pt x="400" y="326" on="0"/>
        <pt x="448" y="269" on="0"/>
        <pt x="529" y="226" on="0"/>
        <pt x="637" y="197" on="0"/>
        <pt x="698" y="190" on="1"/>
        <pt x="698" y="952" on="1"/>
        <pt x="637" y="944" on="0"/>
        <pt x="529" y="914" on="0"/>
        <pt x="448" y="870" on="0"/>
        <pt x="400" y="813" on="0"/>
        <pt x="400" y="778" on="1"/>
      </contour>
    </TTGlyph>
    <TTGlyph name="circumflex" xMin="430" yMin="1286" xMax="1154" yMax="1746">
      <contour>
        <pt x="1154" y="1440" on="1"/>
        <pt x="998" y="1286" on="1"/>
        <pt x="790" y="1508" on="1"/>
        <pt x="586" y="1286" on="1"/>
        <pt x="430" y="1442" on="1"/>
        <pt x="790" y="1746" on="1"/>
      </contour>
    </TTGlyph>
    <TTGlyph name="colon" xMin="348" yMin="130" xMax="740" yMax="990">
      <contour>
        <pt x="544" y="466" on="1"/>
        <pt x="580" y="466" on="0"/>
        <pt x="650" y="454" on="0"/>
        <pt x="706" y="430" on="0"/>
        <pt x="740" y="391" on="0"/>
        <pt x="740" y="364" on="1"/>
        <pt x="740" y="218" on="1"/>
        <pt x="740" y="195" on="0"/>
        <pt x="706" y="161" on="0"/>
        <pt x="650" y="140" on="0"/>
        <pt x="580" y="130" on="0"/>
        <pt x="544" y="130" on="1"/>
        <pt x="508" y="130" on="0"/>
        <pt x="438" y="140" on="0"/>
        <pt x="382" y="161" on="0"/>
        <pt x="348" y="195" on="0"/>
        <pt x="348" y="218" on="1"/>
        <pt x="348" y="364" on="1"/>
        <pt x="348" y="391" on="0"/>
        <pt x="382" y="430" on="0"/>
        <pt x="438" y="454" on="0"/>
        <pt x="508" y="466" on="0"/>
      </contour>
      <contour>
        <pt x="544" y="990" on="1"/>
        <pt x="580" y="990" on="0"/>
        <pt x="650" y="978" on="0"/>
        <pt x="706" y="954" on="0"/>
        <pt x="740" y="916" on="0"/>
        <pt x="740" y="890" on="1"/>
        <pt x="740" y="742" on="1"/>
        <pt x="740" y="719" on="0"/>
        <pt x="706" y="685" on="0"/>
        <pt x="650" y="664" on="0"/>
        <pt x="580" y="654" on="0"/>
        <pt x="544" y="654" on="1"/>
        <pt x="508" y="654" on="0"/>
        <pt x="438" y="664" on="0"/>
        <pt x="382" y="685" on="0"/>
        <pt x="348" y="719" on="0"/>
        <pt x="348" y="742" on="1"/>
        <pt x="348" y="890" on="1"/>
        <pt x="348" y="916" on="0"/>
        <pt x="382" y="954" on="0"/>
        <pt x="438" y="978" on="0"/>
        <pt x="508" y="990" on="0"/>
      </contour>
    </TTGlyph>
    <TTGlyph name="comma" xMin="122" yMin="-236" xMax="514" yMax="336">
      <contour>
        <pt x="318" y="336" on="1"/>
        <pt x="354" y="336" on="0"/>
        <pt x="424" y="324" on="0"/>
        <pt x="480" y="300" on="0"/>
        <pt x="514" y="262" on="0"/>
        <pt x="514" y="236" on="1"/>
        <pt x="514" y="148" on="1"/>
        <pt x="514" y="130" on="0"/>
        <pt x="511" y="74" on="0"/>
        <pt x="502" y="6" on="0"/>
        <pt x="485" y="-70" on="0"/>
        <pt x="457" y="-143" on="0"/>
        <pt x="416" y="-210" on="0"/>
        <pt x="388" y="-236" on="1"/>
        <pt x="224" y="-236" on="1"/>
        <pt x="274" y="-174" on="0"/>
        <pt x="316" y="-54" on="0"/>
        <pt x="316" y="0" on="1"/>
        <pt x="280" y="0" on="0"/>
        <pt x="210" y="10" on="0"/>
        <pt x="156" y="32" on="0"/>
        <pt x="122" y="66" on="0"/>
        <pt x="122" y="90" on="1"/>
        <pt x="122" y="236" on="1"/>
        <pt x="122" y="262" on="0"/>
        <pt x="156" y="300" on="0"/>
        <pt x="212" y="324" on="0"/>
        <pt x="282" y="336" on="0"/>
      </contour>
    </TTGlyph>
    <TTGlyph name="copyright" xMin="156" yMin="134" xMax="1516" yMax="1298">
      <contour>
        <pt x="830" y="1298" on="1"/>
        <pt x="914" y="1298" on="0"/>
        <pt x="1081" y="1281" on="0"/>
        <pt x="1233" y="1244" on="0"/>
        <pt x="1365" y="1189" on="0"/>
        <pt x="1461" y="1112" on="0"/>
        <pt x="1516" y="1013" on="0"/>
        <pt x="1516" y="952" on="1"/>
        <pt x="1516" y="448" on="1"/>
        <pt x="1516" y="394" on="0"/>
        <pt x="1461" y="305" on="0"/>
        <pt x="1365" y="235" on="0"/>
        <pt x="1233" y="184" on="0"/>
        <pt x="1081" y="150" on="0"/>
        <pt x="914" y="134" on="0"/>
        <pt x="830" y="134" on="1"/>
        <pt x="749" y="134" on="0"/>
        <pt x="586" y="150" on="0"/>
        <pt x="436" y="184" on="0"/>
        <pt x="307" y="235" on="0"/>
        <pt x="211" y="305" on="0"/>
        <pt x="156" y="393" on="0"/>
        <pt x="156" y="448" on="1"/>
        <pt x="156" y="952" on="1"/>
        <pt x="156" y="1013" on="0"/>
        <pt x="211" y="1112" on="0"/>
        <pt x="307" y="1189" on="0"/>
        <pt x="436" y="1244" on="0"/>
        <pt x="586" y="1281" on="0"/>
        <pt x="749" y="1298" on="0"/>
      </contour>
      <contour>
        <pt x="830" y="1188" on="1"/>
        <pt x="730" y="1188" on="0"/>
        <pt x="534" y="1156" on="0"/>
        <pt x="378" y="1087" on="0"/>
        <pt x="282" y="978" on="0"/>
        <pt x="282" y="902" on="1"/>
        <pt x="282" y="502" on="1"/>
        <pt x="282" y="432" on="0"/>
        <pt x="378" y="334" on="0"/>
        <pt x="534" y="272" on="0"/>
        <pt x="730" y="244" on="0"/>
        <pt x="830" y="244" on="1"/>
        <pt x="934" y="244" on="0"/>
        <pt x="1135" y="272" on="0"/>
        <pt x="1293" y="334" on="0"/>
        <pt x="1390" y="432" on="0"/>
        <pt x="1390" y="502" on="1"/>
        <pt x="1390" y="902" on="1"/>
        <pt x="1390" y="978" on="0"/>
        <pt x="1293" y="1087" on="0"/>
        <pt x="1135" y="1156" on="0"/>
        <pt x="934" y="1188" on="0"/>
      </contour>
      <contour>
        <pt x="1114" y="1016" on="1"/>
        <pt x="1114" y="962" on="0"/>
        <pt x="1105" y="841" on="0"/>
        <pt x="1096" y="778" on="1"/>
        <pt x="968" y="778" on="1"/>
        <pt x="971" y="790" on="0"/>
        <pt x="975" y="808" on="1"/>
        <pt x="977" y="822" on="0"/>
        <pt x="982" y="865" on="0"/>
        <pt x="982" y="892" on="1"/>
        <pt x="935" y="892" on="0"/>
        <pt x="867" y="882" on="0"/>
        <pt x="819" y="868" on="0"/>
        <pt x="788" y="852" on="0"/>
        <pt x="778" y="846" on="1"/>
        <pt x="778" y="488" on="1"/>
        <pt x="847" y="488" on="0"/>
        <pt x="959" y="495" on="0"/>
        <pt x="1000" y="500" on="1"/>
        <pt x="1047" y="505" on="0"/>
        <pt x="1084" y="512" on="1"/>
        <pt x="1084" y="408" on="1"/>
        <pt x="1021" y="393" on="0"/>
        <pt x="874" y="386" on="0"/>
        <pt x="806" y="386" on="1"/>
        <pt x="735" y="386" on="0"/>
        <pt x="609" y="399" on="0"/>
        <pt x="556" y="414" on="1"/>
        <pt x="556" y="512" on="1"/>
        <pt x="650" y="500" on="1"/>
        <pt x="650" y="848" on="1"/>
        <pt x="648" y="865" on="0"/>
        <pt x="632" y="889" on="0"/>
        <pt x="624" y="897" on="1"/>
        <pt x="613" y="907" on="0"/>
        <pt x="602" y="914" on="1"/>
        <pt x="648" y="1016" on="1"/>
        <pt x="668" y="1009" on="0"/>
        <pt x="687" y="998" on="1"/>
        <pt x="704" y="988" on="0"/>
        <pt x="740" y="957" on="0"/>
        <pt x="754" y="934" on="1"/>
        <pt x="797" y="962" on="0"/>
        <pt x="868" y="994" on="0"/>
        <pt x="947" y="1010" on="0"/>
        <pt x="1045" y="1015" on="0"/>
      </contour>
    </TTGlyph>
    <TTGlyph name="currency" xMin="152" yMin="52" xMax="1414" yMax="1178">
      <contour>
        <pt x="780" y="990" on="1"/>
        <pt x="842" y="990" on="0"/>
        <pt x="964" y="973" on="0"/>
        <pt x="1018" y="958" on="1"/>
        <pt x="1238" y="1178" on="1"/>
        <pt x="1414" y="1004" on="1"/>
        <pt x="1214" y="804" on="1"/>
        <pt x="1220" y="786" on="0"/>
        <pt x="1220" y="766" on="1"/>
        <pt x="1220" y="442" on="1"/>
        <pt x="1220" y="433" on="0"/>
        <pt x="1218" y="424" on="0"/>
        <pt x="1218" y="422" on="1"/>
        <pt x="1414" y="226" on="1"/>
        <pt x="1238" y="52" on="1"/>
        <pt x="1018" y="272" on="1"/>
        <pt x="964" y="257" on="0"/>
        <pt x="842" y="246" on="0"/>
        <pt x="780" y="246" on="1"/>
        <pt x="721" y="246" on="0"/>
        <pt x="601" y="257" on="0"/>
        <pt x="548" y="272" on="1"/>
        <pt x="326" y="52" on="1"/>
        <pt x="152" y="226" on="1"/>
        <pt x="350" y="424" on="1"/>
        <pt x="348" y="429" on="0"/>
        <pt x="348" y="437" on="0"/>
        <pt x="348" y="442" on="1"/>
        <pt x="348" y="766" on="1"/>
        <pt x="348" y="775" on="0"/>
        <pt x="350" y="793" on="0"/>
        <pt x="352" y="802" on="1"/>
        <pt x="152" y="1004" on="1"/>
        <pt x="326" y="1178" on="1"/>
        <pt x="546" y="958" on="1"/>
        <pt x="600" y="973" on="0"/>
        <pt x="720" y="990" on="0"/>
      </contour>
      <contour>
        <pt x="980" y="686" on="1"/>
        <pt x="980" y="712" on="0"/>
        <pt x="946" y="750" on="0"/>
        <pt x="890" y="774" on="0"/>
        <pt x="819" y="786" on="0"/>
        <pt x="782" y="786" on="1"/>
        <pt x="747" y="786" on="0"/>
        <pt x="677" y="774" on="0"/>
        <pt x="622" y="750" on="0"/>
        <pt x="588" y="712" on="0"/>
        <pt x="588" y="686" on="1"/>
        <pt x="588" y="540" on="1"/>
        <pt x="588" y="516" on="0"/>
        <pt x="622" y="482" on="0"/>
        <pt x="677" y="460" on="0"/>
        <pt x="747" y="450" on="0"/>
        <pt x="782" y="450" on="1"/>
        <pt x="819" y="450" on="0"/>
        <pt x="890" y="460" on="0"/>
        <pt x="946" y="482" on="0"/>
        <pt x="980" y="516" on="0"/>
        <pt x="980" y="540" on="1"/>
      </contour>
    </TTGlyph>
</ttFont>
